<svg width="58" height="48" viewBox="0 0 58 48" fill="none" xmlns="http://www.w3.org/2000/svg">
<path d="M17.8122 47.6292C16.6522 47.5492 15.4622 47.4591 14.3822 47.0391C11.3122 45.8591 7.93222 43.4392 5.84222 40.8892C3.57222 38.1292 2.57222 34.5992 1.09222 31.3992C0.472223 30.0592 0.0122265 28.6792 0.0022266 27.1592C-0.0177733 25.4992 0.662224 23.9292 1.56222 22.5592C4.39222 18.2392 8.62221 15.2392 12.0122 11.4292C12.5622 10.8192 13.6522 9.67918 14.5822 9.87918C15.1422 9.99918 15.3722 10.6592 15.4922 11.2192C15.5622 10.8692 15.6322 10.5192 15.7122 10.1692C15.9022 9.32915 16.1422 8.47915 16.5222 7.69915C17.1422 6.41915 18.1922 5.59916 19.2722 4.70916C21.4122 2.93916 23.5122 0.959157 26.2522 0.219157C30.1922 -0.840843 33.3322 2.16916 36.2222 4.42916C37.4122 5.36916 38.5222 6.38918 39.6722 7.37918C39.8022 7.49918 39.9522 7.55916 40.1022 7.63916C40.2922 7.73916 40.4322 7.90917 40.5722 8.05917C40.9022 8.40917 41.2122 8.78915 41.4922 9.16915C41.7822 9.55915 42.0422 9.95918 42.2822 10.3792C42.4022 10.5892 42.5222 10.7992 42.6322 11.0192C42.6722 11.1092 42.8522 11.6292 42.9322 11.6492C42.9822 11.6592 43.0322 11.6792 43.0822 11.6892C43.9022 11.9392 44.6522 12.4492 45.1922 13.1192C47.8222 16.3692 50.3322 19.6892 52.6922 23.1492C55.0322 26.5792 57.7122 29.3392 57.1822 33.7792C56.8122 36.9292 55.2922 39.8092 53.8722 42.5892C53.6422 43.0292 53.4122 43.4492 53.1222 43.8492C52.4522 44.7792 51.8622 45.7292 50.7822 46.2192C49.7422 46.7092 48.5622 46.7992 47.4022 46.8892C45.1522 47.0592 42.9022 47.2292 40.6522 47.3692C40.2222 47.3992 39.7822 47.3792 39.3622 47.4192C39.1722 47.4392 38.9822 47.4792 38.7822 47.4892C38.3522 47.5092 37.8422 47.4892 37.4822 47.2292C37.3322 47.1192 37.1922 47.0192 37.0222 46.9492C36.9422 46.9092 36.3622 46.6892 36.3622 46.6092C36.3622 46.9892 36.0922 47.3192 35.7522 47.4992C35.4222 47.6792 35.0322 47.7192 34.6622 47.7592C33.6722 47.8592 32.6822 47.8992 31.6922 47.8392C31.2022 47.8092 30.7222 47.7592 30.2422 47.6792C30.0022 47.6392 29.7522 47.5992 29.5222 47.5292C29.2422 47.4492 28.9622 47.3392 28.6922 47.2292C28.4222 47.1092 28.1622 46.9791 27.9122 46.8191C27.8222 46.7591 27.4522 46.5792 27.4222 46.4692C27.4822 46.7192 27.2722 46.9392 27.0722 47.0992C26.3122 47.6792 25.4722 47.9391 24.5222 47.8191C24.3622 47.7991 24.2122 47.8192 24.0522 47.8392C23.8122 47.8592 23.5722 47.8392 23.3322 47.8392C22.7722 47.8292 22.2222 47.8092 21.6622 47.7992C20.3722 47.7592 19.0822 47.6992 17.8022 47.6192L17.8122 47.6292Z" fill="url(#paint0_linear_931_13)"/>
<path d="M22.4032 47.8695C21.6832 47.8295 20.9532 47.7795 20.2432 47.7495C19.4232 47.7095 18.6132 47.6695 17.8032 47.6195C16.6432 47.5395 15.4532 47.4495 14.3732 47.0295C13.7032 46.7695 13.0932 46.4195 12.5432 45.9795C9.34318 43.4695 7.88317 38.4395 6.28317 35.0095C5.67317 33.6695 5.20318 32.2995 5.19318 30.7795C5.19318 29.1095 5.86317 27.5495 6.75317 26.1795C7.20317 25.4995 7.71318 24.7595 8.29318 24.1795C10.2632 22.2695 12.0432 19.9495 14.0932 18.0195C14.9132 17.2295 15.7932 16.5095 16.7232 15.9095C17.5932 15.3395 17.8532 16.1795 17.9132 17.1195C17.9132 17.3695 17.9132 17.6195 17.9132 17.8695L17.9132 18.0295C17.8932 18.4195 17.8732 18.7495 17.8632 18.8995C17.8432 19.5195 17.8032 20.1395 17.7632 20.7595C17.6632 22.3495 17.5732 23.9295 17.7632 25.5195C17.8532 24.9795 17.9332 24.4395 18.0032 23.8995C18.3832 21.1995 18.7132 18.4995 18.9632 15.7795C18.9832 15.5295 19.0132 15.2695 19.0332 15.0195C19.2932 12.0995 22.3632 10.0595 24.4532 8.3195C24.4732 8.3195 24.4732 8.2995 24.4932 8.2895C25.1532 7.7495 25.8032 7.17951 26.4832 6.63951C27.9832 5.43951 29.5532 4.34952 31.4332 3.83952C32.2732 3.60952 33.1732 3.49951 34.0332 3.66951C34.3532 3.72951 34.6732 3.82951 34.9832 3.95951C36.0632 4.41951 37.0532 5.21952 37.9632 5.89952C39.6632 7.18952 41.8632 8.83951 42.9732 10.7995C43.1032 11.0195 43.2232 11.2495 43.3232 11.4795C43.5932 12.1495 43.7032 12.8595 43.7932 13.5795C43.8832 14.2995 43.9432 15.0095 43.9932 15.7195C44.0132 15.9195 44.0232 16.1095 44.0332 16.3195C44.1432 17.9195 44.2232 19.5195 44.4332 21.0995C44.5232 21.7895 44.6532 22.4695 44.8132 23.1595C45.0132 21.2695 45.0832 19.3495 45.0332 17.4495C45.0132 16.7595 44.9632 16.0595 44.9132 15.3695C44.9132 15.1395 44.8932 14.9095 44.8832 14.6795C44.8832 14.4495 44.9432 14.2595 45.0632 14.0795C45.2632 13.7395 45.5532 13.9195 45.7432 14.1695C46.8432 15.6895 48.1432 17.0495 49.3332 18.4895C50.5632 19.9695 51.5832 21.5795 52.6532 23.1595C54.9932 26.5895 57.6732 29.3495 57.1432 33.7895C56.7732 36.9395 55.2532 39.8195 53.8332 42.5995C53.6032 43.0395 53.3732 43.4595 53.0832 43.8595C52.4132 44.7895 51.8232 45.7395 50.7432 46.2295C49.7032 46.7195 48.5232 46.8095 47.3632 46.8995C46.3132 46.9795 45.2532 47.0295 44.1932 47.0595C42.3932 47.1095 40.5832 47.1095 38.7932 47.1695C38.6332 47.1695 38.4832 47.1895 38.3332 47.1895C38.2132 47.1895 38.0932 47.1895 37.9832 47.1595C37.8732 47.1195 37.7832 47.0295 37.7132 46.9495C37.6932 46.9195 37.6632 46.8895 37.6432 46.8595C37.3332 46.4395 37.0732 45.9895 36.8632 45.5095C36.8032 45.3995 36.7632 45.2895 36.7232 45.1695C36.7832 45.6995 36.9132 46.7495 36.3632 47.1295C35.9932 47.3995 35.5632 47.4595 35.1232 47.4395C34.0832 47.3995 33.0232 47.3595 31.9832 47.4395C31.9532 47.4395 31.9232 47.4395 31.8932 47.4395C31.1332 47.5095 30.2632 47.4695 29.7032 46.8595C29.5732 46.7195 29.4632 46.5495 29.3732 46.3895C29.2832 46.2295 29.1932 46.0495 29.1032 45.8895C28.8632 45.4395 28.6532 44.9895 28.4632 44.5195C28.1532 43.7295 27.9132 42.9095 27.7532 42.0795C27.7732 42.5295 27.7932 42.9795 27.8132 43.4195C27.8432 44.1595 27.8732 44.8895 27.9032 45.6295C27.9232 46.3195 27.9032 47.1295 27.3332 47.5195C27.0932 47.6795 26.7932 47.7395 26.5032 47.7795C25.1532 47.9795 23.7732 47.9495 22.3932 47.8695L22.4032 47.8695Z" fill="url(#paint1_linear_931_13)"/>
<path d="M32.0025 47.439C31.7425 46.169 31.4725 44.899 31.1425 43.619C30.0325 39.289 29.0025 34.919 28.0325 30.559C26.4425 23.409 24.6325 15.749 24.5325 8.29898C25.1925 7.75898 25.8425 7.18899 26.5225 6.64899C29.1325 14.499 30.4625 22.859 32.8325 30.789C34.0225 34.749 35.4325 38.619 36.9125 42.469C36.6025 37.769 35.9425 33.109 35.7125 28.389C35.4425 23.019 34.8925 17.649 34.6825 12.279C34.5625 9.21899 34.4825 6.54898 35.0325 3.95898C36.1125 4.41898 37.1025 5.21899 38.0125 5.89899C39.7125 7.18899 41.9125 8.83898 43.0225 10.799C43.1725 11.809 43.2925 12.809 43.4225 13.809C44.0625 18.879 44.3225 24.049 44.5825 29.159C44.8725 34.569 44.3025 39.889 44.2225 45.299C44.2225 45.869 44.2225 46.449 44.2425 47.059C42.4425 47.109 40.6325 47.109 38.8425 47.169C38.6825 47.169 38.5325 47.189 38.3825 47.189C38.2625 47.189 38.1425 47.189 38.0325 47.159C37.8825 47.109 37.7825 46.979 37.6825 46.849C37.2925 46.329 36.9925 45.769 36.7625 45.159C36.8225 45.689 36.9525 46.739 36.4025 47.119C36.0325 47.389 35.6025 47.449 35.1625 47.429C34.1225 47.389 33.0625 47.349 32.0225 47.429L32.0025 47.439ZM22.8125 39.269C22.9125 33.859 22.5525 28.499 21.6225 23.179C21.5925 23.009 21.3025 23.039 21.3125 23.219C21.7525 28.469 21.7725 33.799 20.9025 39.019C20.6625 40.479 20.3425 41.929 20.0025 43.359C19.2125 39.749 18.7625 36.109 18.4525 32.419C18.2125 29.589 18.1025 26.759 18.0325 23.919C17.9825 21.959 17.9625 19.999 17.9425 18.039L17.9425 17.879C17.9425 17.629 17.9425 17.379 17.9425 17.129C17.8825 16.189 17.6225 15.349 16.7525 15.919C15.8225 16.519 14.9425 17.249 14.1225 18.029C13.4125 22.769 13.0825 27.559 12.8825 32.409C12.7125 36.409 12.7425 40.409 12.6225 44.419C12.6025 44.949 12.5825 45.469 12.5625 45.979C13.1125 46.419 13.7225 46.769 14.3925 47.029C15.4725 47.449 16.6625 47.539 17.8225 47.619C18.6325 47.669 19.4425 47.709 20.2625 47.749C20.9725 47.779 21.7025 47.829 22.4225 47.869C22.6625 44.959 22.7725 42.029 22.8225 39.269L22.8125 39.269Z" fill="url(#paint2_linear_931_13)"/>
<path d="M20.5809 13.2595C19.9809 14.0295 19.4509 14.8495 19.0109 15.7295C18.9609 14.4095 19.5209 13.1295 20.3309 12.0895C21.3109 10.8195 23.0209 9.0495 24.4809 8.3195C24.5009 8.3195 24.5009 8.2995 24.5209 8.2895C25.1809 7.7495 25.8309 7.17951 26.5109 6.63951C28.0109 5.43951 29.5809 4.34952 31.4609 3.83952C32.3009 3.60952 33.2009 3.49951 34.0609 3.66951C34.3809 3.72951 34.7009 3.82952 35.0109 3.95952C36.0909 4.41952 37.0809 5.21952 37.9909 5.89952C39.6909 7.18952 41.8909 8.83951 43.0009 10.7995C43.1309 11.0195 43.251 11.2495 43.351 11.4795C43.621 12.1495 43.731 12.8595 43.821 13.5795C44.121 16.0795 44.1209 18.6195 44.4609 21.1095C43.9309 19.1495 43.4509 17.0795 43.2309 15.0995C43.0909 13.7995 42.9909 12.4795 42.5209 11.2695C42.0309 10.0595 40.8209 9.67952 39.9209 8.86952C38.8309 7.88952 37.7909 6.72952 36.7109 5.70952C36.5309 5.53952 36.3309 5.35952 36.0909 5.30952C35.2709 5.12952 35.1109 6.47951 35.0609 6.98951C34.8609 9.05951 34.7209 11.1595 34.4509 13.2195C34.6309 11.8595 34.1509 10.5295 34.1709 9.17952C34.1909 7.70952 34.2109 6.42951 33.6409 5.01951C33.4309 4.50951 33.2309 4.61952 32.7409 4.74952C32.2209 4.88952 31.7009 5.04953 31.1909 5.21952C30.8309 5.33952 30.4709 5.45953 30.1109 5.59953C28.0209 6.36953 25.8409 8.31952 24.1209 9.71952C22.8309 10.7795 21.6109 11.9495 20.5909 13.2595L20.5809 13.2595Z" fill="#EB924D"/>
<path d="M22.4025 47.8692C21.6825 47.8292 20.9525 47.7792 20.2425 47.7492C19.4225 47.7092 18.6125 47.6692 17.8025 47.6192C16.6425 47.5392 15.4525 47.4492 14.3725 47.0292C13.7025 46.7692 13.0925 46.4191 12.5425 45.9791C9.34255 43.4691 7.88254 38.4391 6.28254 35.0091C5.67254 33.6691 5.20254 32.2992 5.19254 30.7792C5.19254 29.1092 5.86254 27.5492 6.75254 26.1792C7.20254 25.4992 7.71255 24.7592 8.29255 24.1792C10.2626 22.2692 12.0425 19.9491 14.0925 18.0191C14.9125 17.2291 15.7925 16.5092 16.7225 15.9092C17.5925 15.3392 17.8525 16.1792 17.9125 17.1192C17.9125 17.3692 17.9125 17.6192 17.9125 17.8692L17.9125 18.0292C17.8925 18.4192 17.8725 18.7492 17.8625 18.8992C17.8425 19.5192 17.8025 20.1391 17.7625 20.7591C17.6425 20.0891 17.5325 19.4191 17.4925 18.7991C17.4725 18.6191 17.4625 18.4291 17.3825 18.2591C17.2525 17.9891 16.9725 17.8391 16.6825 17.7691C15.8225 17.6091 15.0425 18.2191 14.3925 18.7991C11.4725 21.4791 8.84255 24.4892 6.57255 27.7492C5.76255 28.9192 5.88253 30.3791 6.11253 31.7891C6.90253 36.5291 9.01253 41.0392 12.1425 44.6892C12.8725 45.5492 13.9925 45.7292 15.0725 46.0292C18.0925 46.8592 21.2325 47.2592 24.3625 47.2092C24.9325 47.2092 25.5125 47.1692 25.9925 46.8792C27.1225 46.1992 27.0725 44.5292 27.7725 43.4092C27.8025 44.1492 27.8325 44.8792 27.8625 45.6192C27.8825 46.3092 27.8625 47.1191 27.2925 47.5091C27.0525 47.6691 26.7525 47.7291 26.4625 47.7691C25.1125 47.9691 23.7325 47.9391 22.3525 47.8591L22.4025 47.8692Z" fill="#EB924D"/>
<path d="M29.7128 46.8591C29.5828 46.7191 29.4728 46.5491 29.3828 46.3891C29.5228 46.4091 29.6828 46.4791 29.8028 46.5191C30.0628 46.5891 30.3328 46.6491 30.5928 46.7091C31.1128 46.8291 31.6328 46.9091 32.1728 46.9591C32.7728 47.0191 33.3928 47.0491 34.0028 47.0291C34.3628 47.0291 34.7428 46.9891 35.0728 46.8391C35.6328 46.5891 35.9728 46.0191 36.2928 45.4791C36.4628 45.1991 36.6228 44.9091 36.7828 44.6191C36.8128 44.9091 36.8528 45.1991 36.8828 45.4891C36.8228 45.3791 36.7828 45.2691 36.7428 45.1491C36.8028 45.6791 36.9328 46.7291 36.3828 47.1091C36.0128 47.3791 35.5828 47.4391 35.1428 47.4191C34.1028 47.3791 33.0428 47.3391 32.0028 47.4191C31.9728 47.4191 31.9428 47.4191 31.9128 47.4191C31.1528 47.4891 30.2828 47.4491 29.7228 46.8391L29.7128 46.8591Z" fill="#EB924D"/>
<path d="M38.0005 47.1491C37.8905 47.1091 37.8005 47.0191 37.7305 46.9391C41.2305 46.8091 44.6905 46.1891 48.1405 45.5591C48.6205 45.4691 49.1105 45.3891 49.5805 45.2391C49.9005 45.1391 50.2005 44.9391 50.5005 44.7891C52.4605 43.8591 53.0605 41.5091 53.8305 39.6591C54.8805 37.1391 57.0105 33.4591 56.1505 30.6691C55.7705 29.4491 55.0205 28.3891 54.2705 27.3491C52.9505 25.5391 51.5805 23.7691 50.2905 21.9391C49.0805 20.1991 48.1905 17.9391 46.7105 16.4291C46.3305 16.0491 45.7005 15.3891 45.1305 15.3391C45.0705 15.3391 45.0005 15.3391 44.9405 15.3591C44.9405 15.1291 44.9205 14.8991 44.9105 14.6691C44.9105 14.4391 44.9705 14.2491 45.0905 14.0691C45.2905 13.7291 45.5805 13.9091 45.7705 14.1591C46.8705 15.6791 48.1705 17.0391 49.3605 18.4791C50.5905 19.9591 51.6105 21.5691 52.6805 23.1491C55.0205 26.5791 57.7005 29.3391 57.1705 33.7791C56.8005 36.9291 55.2805 39.8091 53.8605 42.5891C53.6305 43.0291 53.4005 43.4491 53.1105 43.8491C52.4405 44.7791 51.8505 45.7291 50.7705 46.2191C49.7305 46.7091 48.5505 46.7991 47.3905 46.8891C46.3405 46.9691 45.2805 47.0191 44.2205 47.0491C42.4205 47.0991 40.6105 47.0991 38.8205 47.1591C38.6605 47.1591 38.5105 47.1791 38.3605 47.1791C38.2405 47.1791 38.1205 47.1791 38.0105 47.1491L38.0005 47.1491Z" fill="#EB924D"/>
<defs>
<linearGradient id="paint0_linear_931_13" x1="67.3922" y1="52.4192" x2="56.4322" y2="45.4692" gradientUnits="userSpaceOnUse">
<stop stop-color="#CF5C2B"/>
<stop offset="1" stop-color="#59173E"/>
</linearGradient>
<linearGradient id="paint1_linear_931_13" x1="59.2632" y1="36.1795" x2="-41.5468" y2="5.01954" gradientUnits="userSpaceOnUse">
<stop stop-color="#CF5C2B"/>
<stop offset="1" stop-color="#59173E"/>
</linearGradient>
<linearGradient id="paint2_linear_931_13" x1="44.4925" y1="30.869" x2="-45.8975" y2="6.409" gradientUnits="userSpaceOnUse">
<stop stop-color="#CF5C2B"/>
<stop offset="1" stop-color="#59173E"/>
</linearGradient>
</defs>
</svg>
