<svg width="202" height="74" viewBox="0 0 202 74" fill="none" xmlns="http://www.w3.org/2000/svg">
<path d="M201.3 58.2294C201.19 56.7194 201.09 55.2094 201 53.6994C200.9 52.1094 200.81 50.5194 200.72 48.9294C200.66 47.8394 200.57 46.6894 200.54 45.5694C200.52 44.6294 200.9 43.0994 200.39 42.2594C200.09 41.7594 199.44 41.6094 198.87 41.5094C198.11 41.3794 197.36 41.2394 196.6 41.1094C197.61 40.8794 198.61 40.5794 199.59 40.2094C199.81 40.1294 200.04 40.0394 200.18 39.8494C200.31 39.6894 200.35 39.4694 200.38 39.2694C200.72 37.1994 200.5 34.9994 200.49 32.9094C200.49 30.7694 200.47 28.6394 200.46 26.4994C200.45 24.4694 200.44 22.4394 200.43 20.3994C200.43 19.7294 200.71 18.2694 200.38 17.6694C200.11 17.1794 199.48 17.2094 198.98 17.1594C198.48 17.1094 197.97 17.1094 197.47 17.1394C196.72 17.1894 195.97 17.2994 195.23 17.4194C196.2 17.1494 197.21 17.0194 198.19 16.7794C198.83 16.6294 199.46 16.4194 200.03 16.1194C200.38 15.9294 200.77 15.7594 200.97 15.3994C201.05 15.2494 201.09 15.0594 201.13 14.8894C201.21 14.5194 201.24 14.1294 201.26 13.7494C201.32 12.6994 201.37 11.6394 201.38 10.5894C201.38 10.0594 201.4 9.51945 201.38 8.98945C201.38 8.63945 201.24 8.31945 201.21 7.96945C201.08 6.52945 200.5 5.15945 199.57 4.04945C198.65 2.94945 197.39 2.14945 196 1.78945C195.49 1.64945 194.96 1.57945 194.43 1.55945C131.88 -0.460553 70.5304 -0.540553 10.5104 1.53945C10.2804 1.53945 10.0104 1.52945 9.79039 1.57945C9.55039 1.63945 9.30039 1.73945 9.06039 1.81945C8.57039 1.98945 8.0804 2.17945 7.6104 2.40945C6.6904 2.84945 5.8304 3.43945 5.2404 4.27945C4.9004 4.75945 4.6604 5.30945 4.3504 5.80945C4.1904 6.05945 3.9804 6.24945 3.8504 6.51945C3.2104 7.78945 2.57039 9.07945 1.70039 10.2094C0.840392 11.3094 0.580387 13.0494 0.680387 14.3994C0.810387 16.2294 0.860399 18.0894 1.0204 19.9194C1.2804 22.8394 1.0404 25.7594 1.3604 28.6994C1.4104 29.1194 1.47039 29.5794 1.79039 29.8594C2.01039 30.0494 2.31039 30.1194 2.59039 30.1794C3.51039 30.3794 4.4404 30.5794 5.3604 30.7794C4.2204 31.5194 2.5104 31.5794 1.9104 32.7994C1.7204 33.1894 1.68039 33.6394 1.65039 34.0794C1.54039 35.6394 1.39039 37.1994 1.29039 38.7594C1.24039 39.4594 1.20039 40.1594 1.18039 40.8694C1.16039 41.5394 1.10039 42.1794 1.04039 42.8494C0.890388 44.3994 0.500396 46.4194 0.970396 47.9394C1.4304 49.4094 3.2604 49.4694 4.5204 49.8194C3.8504 49.8994 3.34039 50.4394 2.95039 50.9794C2.75039 51.2494 2.62039 51.5494 2.43039 51.8294C2.27039 52.0794 2.12039 52.3294 1.98039 52.5894C1.71039 53.1194 1.4904 53.6694 1.3304 54.2394C1.2204 54.6194 1.16039 54.9194 1.15039 55.3194C1.13039 55.6694 1.1204 56.0294 1.1104 56.3794C1.0804 57.0894 1.0604 57.7994 1.0504 58.5094C1.0204 59.9294 1.0104 61.3494 1.0204 62.7694C1.0304 64.1394 0.710388 65.4795 1.29039 66.8295C1.87039 68.1695 2.8604 69.3294 4.1104 70.0894C5.1204 70.7094 6.2604 71.0294 7.4404 71.0994C67.8104 73.7494 129.17 73.7095 191.49 71.0795C193.14 71.0095 194.72 70.3494 195.93 69.2394C196.51 68.6994 197.02 68.2294 197.45 67.5594C197.98 66.7394 198.47 65.8995 198.93 65.0395C200.05 62.9495 201.46 60.6394 201.28 58.2194L201.3 58.2294Z" fill="url(#paint0_linear_852_646)"/>
<path d="M194.461 65.7895C132.141 68.4095 70.7806 68.4495 10.4206 65.7995C7.7406 65.7995 5.23061 63.8795 4.24061 61.4595C3.80061 60.3895 3.70061 59.2195 3.77061 58.0695C3.78061 57.8695 3.80061 57.6695 3.86061 57.4695C3.95061 57.1595 4.09061 56.8895 4.13061 56.5595C4.15061 56.3895 4.17061 56.2295 4.19061 56.0595C4.29061 55.1495 4.3206 54.2095 4.4006 53.2895C4.4506 52.7795 4.5106 52.2295 4.6506 51.7395C4.8106 51.1695 5.0706 50.6395 5.5406 50.2895C7.5306 48.7995 11.4106 48.8195 14.3106 48.7595C14.8706 48.7395 15.4006 48.7295 15.8706 48.6995C17.1306 48.6195 18.3806 48.5895 19.6506 48.5995C16.6606 48.5995 13.6806 48.3295 10.7406 47.8195C9.34061 47.5895 7.9506 47.2895 6.5906 46.9395C6.2606 46.8595 5.9106 46.7495 5.5906 46.5995C5.1606 46.4095 4.7906 46.1295 4.5906 45.6995C4.4306 45.3395 4.4406 44.9395 4.4506 44.5495C4.4606 44.1795 4.4106 43.7995 4.4306 43.4195C4.4606 42.6295 4.5606 41.8495 4.6406 41.0695C4.7206 40.4395 4.79061 39.7895 4.83061 39.1495C4.93061 37.4395 5.0406 35.7395 5.1706 34.0395C5.2106 33.5295 5.27061 32.9595 5.63061 32.5995C5.85061 32.3795 6.13061 32.2695 6.41061 32.1695C7.17061 31.8895 7.9606 31.6795 8.7606 31.5495C9.1306 31.4795 9.5306 31.4795 9.9006 31.3795C10.3206 31.2495 10.6506 31.1595 11.1206 31.1095C15.5206 30.5995 19.9206 30.0795 24.3206 29.5695C24.8406 29.5095 25.3806 29.4495 25.9006 29.3895C19.2606 28.5895 12.6306 27.7595 5.99061 26.9595C5.70061 26.9195 5.4106 26.8895 5.1206 26.8495C4.8606 26.8195 4.5806 26.7795 4.4006 26.5895C4.3806 26.5795 4.37061 26.5595 4.36061 26.5495C4.23061 26.3795 4.21061 26.1595 4.19061 25.9395C3.89061 22.3495 4.2306 18.6495 4.0306 15.0295C4.0106 14.8295 3.9606 13.8095 3.9006 12.6695C3.8106 11.0095 3.7006 9.09949 3.6506 9.09949C3.3706 5.11949 6.4306 1.67949 10.4206 1.54949C70.4306 -0.530513 131.781 -0.460513 194.331 1.54949C198.341 1.67949 201.431 5.13949 201.121 9.13949C201.011 10.5095 201.281 11.8095 200.951 13.1895C200.881 13.5095 200.771 13.8395 200.531 14.0595C200.311 14.2495 200.021 14.3195 199.731 14.3895C198.981 14.5695 198.221 14.7595 197.461 14.9395C196.451 15.1795 195.461 15.3995 194.441 15.5095C188.411 16.1495 182.381 16.7995 176.361 17.4495C176.201 17.4595 176.041 17.4795 175.881 17.4995C175.691 17.5195 175.491 17.5395 175.301 17.5595C175.781 17.5495 176.261 17.5395 176.741 17.5395C184.291 17.4095 191.861 17.2895 199.411 17.1595C199.621 17.1595 199.851 17.1595 200.021 17.2895C200.211 17.4295 200.261 17.6895 200.291 17.9295C200.331 18.2495 200.341 18.5595 200.331 18.8695C200.331 19.8295 200.151 20.7495 200.151 21.7295C200.151 22.5895 200.361 23.4395 200.351 24.3095C200.331 25.5795 200.291 26.8495 200.241 28.1495C200.121 31.0595 199.921 33.9995 199.601 36.9095C199.551 37.3295 199.491 37.7795 199.211 38.0995C198.991 38.3395 198.671 38.4695 198.361 38.5695C198.171 38.6395 197.971 38.6995 197.771 38.7395C193.341 40.0095 188.471 38.9995 183.911 39.7895C183.611 39.8295 183.311 39.8895 183.021 39.9595C182.921 39.9795 182.821 40.0095 182.721 40.0295C183.091 40.0595 183.461 40.0795 183.841 40.1195C188.831 40.4795 193.801 40.9795 198.761 41.6195C199.341 41.6895 199.991 41.7995 200.331 42.2695C200.591 42.6295 200.601 43.1095 200.601 43.5595V45.0295C200.601 46.5095 200.601 47.9995 200.671 49.4695C200.761 51.4295 200.881 53.3795 201.011 55.3395C201.071 56.2995 201.131 57.2595 201.201 58.2195C201.491 62.1795 198.451 65.6095 194.481 65.7795L194.461 65.7895Z" fill="url(#paint1_linear_852_646)"/>
<path d="M200.34 24.3198C200.32 25.5898 200.28 26.8598 200.23 28.1598C197.68 28.3898 195.16 28.5898 192.71 28.8598C192.14 28.9198 191.57 28.9898 191 29.0498C188.89 29.2698 186.77 29.4698 184.65 29.6598C183.59 29.7498 182.53 29.8298 181.47 29.9198C180.8 29.9798 180.19 30.2398 179.53 30.3198C178.61 30.4198 177.6 30.1798 176.68 30.1298C175.65 30.0698 174.61 30.0498 173.58 30.0598C171.5 30.0798 169.42 30.2398 167.36 30.4798C163.22 30.9498 159.12 31.7398 155.02 32.4198C148.44 33.5198 141.81 34.3498 135.16 34.9098C138.78 35.2698 142.38 35.8598 145.93 36.6798C144.6 36.7898 143.27 36.8798 141.94 36.9698C137.71 37.2298 133.48 37.3698 129.24 37.4398C125 37.5098 120.76 37.5098 116.52 37.5098C112.28 37.5098 108.04 37.4898 103.8 37.5298C99.5597 37.5698 95.3297 37.6598 91.0997 37.8598C88.9797 37.9598 86.8697 38.0898 84.7597 38.2498C84.2297 38.2898 83.6997 38.3298 83.1797 38.3798C82.5397 38.4398 81.9297 38.6198 81.2797 38.6898C76.2297 39.2798 71.1897 40.0198 66.1897 40.9998C58.4297 42.5298 50.6297 44.0198 42.7397 44.5598C41.3097 44.6498 39.8797 44.7398 38.4597 44.8298C31.6597 46.1998 24.3197 46.4798 17.6597 47.2898C15.3997 47.5698 13.0797 47.7198 10.7697 47.8098C9.3697 47.5798 7.97969 47.2798 6.61969 46.9298C6.28969 46.8498 5.93969 46.7398 5.61969 46.5898C5.18969 46.3998 4.81969 46.1198 4.61969 45.6898C4.45969 45.3298 4.46969 44.9298 4.47969 44.5398C4.48969 44.1698 4.4397 43.7898 4.4597 43.4098C4.4897 42.6198 4.58969 41.8398 4.66969 41.0598C10.7697 40.5598 17.0297 38.7898 22.8997 37.9398C30.4397 36.8598 38.1097 36.2198 45.7197 35.7998C54.3297 35.3298 62.8997 36.3398 71.4797 36.3398C79.4197 36.3398 87.3597 35.6498 95.2597 35.0098C110.66 33.7598 126.05 32.4798 141.44 31.1398C138.09 31.0798 134.74 30.9898 131.4 30.8798C127.13 30.7298 122.87 30.5398 118.6 30.3198C117.61 30.2698 116.59 30.1398 115.6 30.2498C114.58 30.3698 113.55 30.3998 112.53 30.3798C110.5 30.3498 108.47 30.0898 106.5 29.6098C105.34 29.3198 104.2 28.9598 103.02 28.7498C101.03 28.3998 98.9997 28.5098 96.9797 28.4898C89.4497 28.3898 82.0197 26.3998 74.4897 26.4798C72.5097 26.4998 70.5397 26.6598 68.5697 26.8398C66.4797 27.0298 64.3797 27.2198 62.2797 27.2798C61.3497 27.2998 60.3797 27.3698 59.4797 27.1598C58.7797 26.9898 57.9897 27.0798 57.2697 27.0598C55.9997 27.0298 54.7197 26.9898 53.4497 26.9698C50.8997 26.9198 48.3497 26.8798 45.7997 26.8698C36.1397 26.8198 26.4897 27.3598 16.8297 27.2798C12.7097 27.2498 8.50969 27.1598 4.42969 26.5698C4.40969 26.5598 4.39969 26.5398 4.38969 26.5298C4.25969 26.3598 4.2397 26.1398 4.2197 25.9198C3.9197 22.3298 4.25969 18.6298 4.05969 15.0098C4.03969 14.8098 3.98969 13.7898 3.92969 12.6498C8.85969 12.2298 13.8197 12.1198 18.7497 11.7598C28.3997 11.0498 38.0597 10.7398 47.7497 10.7798C66.9597 10.8698 86.1097 12.0998 105.26 13.5598C124.42 15.0198 143.53 16.8098 162.69 18.1698C172.37 18.8498 182.07 19.2798 191.77 19.2798C194.62 19.2798 197.48 19.1098 200.36 18.8898C200.36 19.8498 200.18 20.7698 200.18 21.7498C200.18 22.6098 200.39 23.4598 200.38 24.3298L200.34 24.3198ZM200.65 49.4798C200.58 47.9998 200.58 46.5098 200.58 45.0398C194.47 44.3798 188.34 43.6898 182.19 43.2698C171.64 42.5498 161.06 42.6598 150.5 43.0898C148.3 43.1798 146.14 43.2298 143.97 43.5098C142.92 43.6498 141.87 43.7698 140.81 43.8998C136.6 44.3998 132.37 44.8098 128.14 45.1298C126.49 45.2598 124.84 45.3698 123.19 45.4698C127.47 45.4398 131.75 45.4098 136.02 45.3798C140.3 45.3498 144.58 45.3198 148.85 45.2898C150.99 45.2698 153.13 45.2598 155.27 45.2398C156.34 45.2398 157.41 45.2198 158.48 45.2198C158.93 45.2198 159.39 45.2498 159.84 45.1498C160.11 45.0898 160.37 44.9798 160.64 44.9398C161.6 44.7998 162.67 44.9898 163.63 45.0398C164.69 45.0998 165.75 45.1598 166.81 45.2198C168.93 45.3498 171.05 45.4998 173.17 45.6598C176.51 45.9098 179.85 46.1898 183.18 46.4898C186.82 46.8198 190.44 47.2398 194.06 47.6898C185.83 48.4698 177.61 49.2898 169.36 49.7398C150.39 50.7898 131.4 52.0998 112.4 51.7298C93.6597 51.3598 74.9497 50.2798 56.1997 50.3498C46.3197 50.3798 36.4397 50.5398 26.5797 50.8298C19.2997 51.0398 11.9197 50.9998 4.64969 51.7598C4.50969 52.2498 4.44969 52.7998 4.39969 53.3098C4.31969 54.2298 4.2897 55.1598 4.1897 56.0798C12.2797 56.4098 20.4797 55.8598 28.5497 55.8398C38.4197 55.8198 48.2997 55.9198 58.1697 56.1498C76.8797 56.5898 95.5797 57.6298 114.29 57.9598C133.32 58.2998 152.33 56.9298 171.32 55.9798C181.11 55.4898 190.98 55.4798 200.78 55.3798H200.98C200.85 53.4198 200.73 51.4698 200.64 49.5098L200.65 49.4798Z" fill="url(#paint2_linear_852_646)"/>
<path d="M5.37055 44.3996C5.35055 45.1296 5.35055 45.8996 5.59055 46.5896C5.16055 46.3996 4.79055 46.1196 4.59055 45.6896C4.43055 45.3296 4.44055 44.9296 4.45055 44.5396C4.46055 44.1696 4.41055 43.7896 4.43055 43.4096C4.49055 41.9696 4.75056 40.5596 4.83056 39.1396C4.93056 37.4296 5.04056 35.7296 5.17056 34.0296C5.21056 33.5196 5.27056 32.9496 5.63056 32.5896C5.85056 32.3696 6.13056 32.2596 6.41056 32.1596C7.17056 31.8796 7.96055 31.6696 8.76055 31.5396C9.13055 31.4696 9.53055 31.4696 9.90055 31.3696C10.3206 31.2396 10.6506 31.1496 11.1206 31.0996C15.5206 30.5896 19.9206 30.0696 24.3206 29.5596C19.5906 30.5196 14.8706 31.4596 10.1406 32.4196C9.22056 32.5996 7.99056 32.5896 7.22056 33.1996C7.06056 33.3196 6.92055 33.4696 6.79055 33.6196C6.67055 33.7496 6.57055 33.9096 6.43055 34.0296C6.17055 34.2596 6.09055 34.6096 5.98055 34.9196C5.67055 35.8196 5.48056 36.7696 5.44056 37.7196C5.42056 38.0796 5.43056 38.4396 5.39056 38.7996C5.38056 38.8896 5.37056 38.9796 5.35056 39.0596C5.33056 39.1596 5.28056 39.2396 5.24056 39.3396C5.00056 40.0596 5.03056 40.8696 5.14056 41.6096C5.18056 41.8796 5.27056 42.1396 5.33056 42.4096C5.46056 43.0596 5.36056 43.7396 5.35056 44.3896L5.37055 44.3996Z" fill="#EB924D"/>
<path d="M175.872 17.51C175.602 17.49 175.342 17.48 175.082 17.46H176.362C176.202 17.47 176.042 17.49 175.882 17.51H175.872Z" fill="#EB924D"/>
<path d="M180.211 39.4795C181.441 39.5995 182.661 39.7095 183.891 39.7995C183.591 39.8395 183.291 39.8995 183.001 39.9695C182.061 39.7995 181.131 39.6295 180.211 39.4795Z" fill="#EB924D"/>
<path d="M198.31 37.6595C198.5 36.8995 198.45 36.0895 198.39 35.3095C198.28 33.8495 198.17 32.3895 198.06 30.9395C198.04 30.6595 198 30.3495 197.78 30.1795C197.6 30.0395 197.35 30.0395 197.13 30.0495C195.3 30.1095 193.48 30.1695 191.66 30.2295C193.63 30.0595 195.58 29.5395 197.36 28.6795C197.87 28.4295 198.41 28.1195 198.6 27.5895C198.7 27.3195 198.7 27.0295 198.7 26.7395C198.67 24.4495 198.27 21.8795 198 19.6095C197.14 18.7995 195.85 18.6795 194.67 18.6095C189.9 18.3195 185.13 18.0295 180.36 17.7395C179.22 17.6595 177.95 17.6195 176.73 17.5695C184.28 17.4395 191.85 17.3195 199.4 17.1895C199.61 17.1895 199.84 17.1895 200.01 17.3195C200.2 17.4595 200.25 17.7195 200.28 17.9595C200.44 19.2595 200.14 20.4595 200.14 21.7495C200.14 22.6095 200.35 23.4595 200.34 24.3295C200.27 28.4395 200.05 32.7395 199.59 36.9295C199.54 37.3495 199.48 37.7995 199.2 38.1195C198.98 38.3595 198.66 38.4895 198.35 38.5895C198.16 38.6595 197.96 38.7195 197.76 38.7595C198.03 38.4495 198.22 38.0595 198.32 37.6595H198.31Z" fill="#EB924D"/>
<path d="M4.0306 15.0197C4.0006 14.5297 3.7306 9.08972 3.6506 9.08972C3.3706 5.10972 6.4306 1.66972 10.4206 1.53972C70.4306 -0.540278 131.781 -0.470278 194.331 1.53972C198.341 1.66972 201.431 5.12972 201.121 9.12972C201.011 10.4997 201.281 11.7997 200.951 13.1797C200.881 13.4997 200.771 13.8297 200.531 14.0497C200.311 14.2397 200.021 14.3097 199.731 14.3797C198.981 14.5597 198.231 14.7697 197.471 14.9297C198.121 14.3397 198.871 13.6397 199.181 12.7897C199.391 12.2097 199.221 11.7097 199.021 11.1597C198.721 10.3097 198.671 9.48972 198.631 8.58972C198.591 7.47972 198.781 5.88972 197.901 5.00972C197.241 4.34972 196.361 3.75972 195.531 3.34972C193.471 2.33972 191.091 2.12972 188.831 2.03972C188.721 2.03972 188.601 2.03972 188.491 2.02972C184.311 1.88972 180.121 1.87972 175.961 2.30972C175.451 2.35972 175.011 2.49972 174.521 2.59972C173.911 2.71972 173.191 2.56972 172.571 2.53972C171.151 2.46972 169.741 2.39972 168.321 2.34972C165.491 2.23972 162.651 2.16972 159.811 2.13972C157.681 2.10972 155.561 2.10972 153.431 2.10972C152.761 2.10972 152.091 2.10972 151.421 2.10972C150.131 2.10972 148.841 2.10972 147.551 2.10972C145.761 2.10972 143.971 2.10972 142.181 2.09972C142.091 2.09972 142.011 2.09972 141.921 2.09972C139.081 2.09972 136.251 2.08972 133.411 2.07972C131.991 2.07972 130.571 2.07972 129.151 2.07972C128.501 2.07972 127.781 2.16972 127.141 2.04972C126.491 1.92972 125.971 1.53972 125.281 1.47972C124.661 1.41972 124.031 1.52972 123.421 1.57972C121.871 1.69972 120.331 1.84972 118.781 2.01972C118.081 2.09972 117.321 2.20972 116.851 2.72972C116.691 2.90972 116.571 3.12972 116.371 3.26972C115.941 3.57972 115.341 3.37972 114.831 3.19972C113.831 2.83972 112.771 2.64972 111.701 2.59972C110.741 2.55972 109.791 2.72972 108.831 2.66972C108.231 2.62972 107.641 2.48972 107.051 2.36972C104.721 1.90972 102.271 1.87972 99.9106 1.70972C98.1606 1.57972 96.4006 1.48972 94.6406 1.42972C88.9706 1.22972 83.2906 1.33972 77.6206 1.57972C74.7806 1.69972 71.9506 1.84972 69.1106 2.01972C67.8106 2.09972 66.3706 2.36972 65.0806 2.19972C64.7106 2.14972 64.3606 1.99972 63.9906 1.92972C63.6006 1.85972 63.2106 1.86972 62.8206 1.86972C61.2506 1.87972 59.6706 1.89972 58.1006 1.90972C56.2606 1.91972 54.4106 1.90972 52.5606 1.90972C51.9406 1.90972 51.3406 2.02972 50.7306 2.03972C50.1706 2.03972 49.6206 1.91972 49.0606 1.91972C47.8906 1.92972 46.7306 2.15972 45.6506 2.59972C45.2306 2.76972 44.8006 2.97972 44.3506 2.94972C43.5206 2.89972 42.9506 2.11972 42.2006 1.76972C40.4206 0.919722 38.5806 2.53972 36.7706 1.87972C35.8706 1.54972 34.9406 1.59972 33.9906 1.58972C32.7806 1.57972 31.5606 1.56972 30.3506 1.57972C26.2406 1.59972 22.1206 1.73972 18.0306 2.14972C15.9906 2.35972 13.9606 2.62972 11.9406 2.98972C10.9606 3.15972 9.9706 3.44972 8.9806 3.55972C8.6706 3.59972 8.4506 3.58972 8.1806 3.77972C6.9806 4.62972 3.65061 9.34972 6.02061 11.0097C6.17061 11.1197 6.33061 11.1997 6.50061 11.2697C6.75061 11.3697 7.0206 11.4097 7.2806 11.5097C7.5406 11.6097 7.8906 11.5497 8.1706 11.5397C8.8506 11.5397 9.53061 11.5397 10.2106 11.5297C10.9306 11.5297 11.6606 11.5297 12.3506 11.7297C10.8106 12.0397 9.26061 12.3597 7.72061 12.6697C7.22061 12.7697 6.72061 12.8797 6.25061 13.0897C6.17061 13.1297 6.08061 13.1397 6.00061 13.1697C5.67061 13.2997 5.4306 13.6897 5.3106 13.9997C5.0006 14.8097 5.1906 15.7097 5.0606 16.5497C4.8206 18.0497 5.1206 19.6797 5.2606 21.1897C5.4506 23.1197 5.68061 25.0497 5.97061 26.9697C5.68061 26.9297 5.39061 26.8997 5.10061 26.8597C4.82061 26.8297 4.5206 26.7797 4.3406 26.5597C4.2106 26.3897 4.1906 26.1697 4.1706 25.9497C3.8706 22.3597 4.2106 18.6597 4.0106 15.0397L4.0306 15.0197Z" fill="#EB924D"/>
<path d="M201.179 58.2299C200.969 55.3099 200.789 52.3999 200.649 49.4799C200.559 47.5099 200.579 45.5399 200.579 43.5699C200.579 43.1299 200.569 42.6399 200.309 42.2799C199.969 41.8099 199.319 41.6999 198.739 41.6299C193.779 40.9999 188.809 40.4899 183.819 40.1299C188.259 40.9799 192.849 42.0799 197.069 43.2499C197.889 43.4799 197.949 44.1199 198.299 44.9099C198.629 45.6899 198.659 46.5799 198.679 47.4299C198.689 47.7799 198.699 48.1399 198.579 48.4899C198.329 49.2399 197.529 49.6699 196.819 50.0199C197.349 50.1699 197.889 50.3199 198.429 50.4699C198.559 50.5099 198.689 50.5499 198.779 50.6399C198.889 50.7499 198.919 50.9199 198.939 51.0799C199.139 52.4899 198.989 53.9699 198.999 55.3899C199.009 56.2999 199.009 57.2299 199.029 58.1499C199.039 58.3999 199.139 58.6399 199.189 58.8999C199.279 59.4299 199.219 59.9899 199.059 60.4999C198.739 61.5699 197.999 62.5099 197.079 63.1099C195.459 64.1699 193.449 64.3799 191.529 64.5199C188.319 64.7499 185.089 64.7299 181.899 65.0299C180.829 65.1199 179.779 65.2199 178.719 65.3099C176.599 65.4799 174.479 65.6399 172.349 65.7799C168.339 66.0499 164.319 66.2499 160.299 66.3799C150.799 66.6999 141.279 66.6699 131.759 66.6199C130.609 66.6199 129.449 66.6099 128.299 66.5999C127.369 66.5999 126.479 66.7299 125.559 66.6299C123.329 66.4099 121.099 66.8099 118.889 67.0599C116.299 67.3499 113.519 67.3799 111.279 66.0399C110.569 65.6099 109.869 65.0399 109.039 65.0199C108.349 65.0099 107.729 65.3799 107.109 65.6799C105.919 66.2499 104.619 66.5499 103.319 66.7199C103.299 66.7199 103.269 66.7199 103.249 66.7199C100.479 67.0799 97.8191 66.8799 95.0491 66.6999C93.0191 66.5599 90.8891 66.8999 88.9491 66.1899C87.4491 65.6399 85.8791 64.8599 84.3391 65.2799C83.7991 65.4299 83.3091 65.7199 82.7891 65.9199C81.7791 66.3199 80.6691 66.3999 79.5891 66.4499C78.9091 66.4899 78.2291 66.5099 77.5491 66.5399C74.7191 66.6299 71.8891 66.6199 69.0591 66.4899C67.8691 66.4399 66.6591 66.4499 65.5091 66.1099C64.7191 65.8699 63.9191 66.0199 63.0991 66.0799C59.6591 66.2999 56.2091 66.3599 52.7691 66.2399C51.3591 66.1899 49.9591 66.1199 48.5591 66.0099C47.8691 65.9599 47.1691 65.8399 46.4791 65.8399C46.0091 65.8399 45.5791 65.9899 45.0991 65.9899C42.2491 65.9799 39.3991 65.9399 36.5391 65.9099C31.6591 65.8599 26.7791 65.8099 21.9091 65.7599C18.5691 66.2099 15.7891 65.6399 12.4791 65.0399C9.77906 64.5399 6.82907 63.4399 5.69907 60.9299C5.22907 59.8799 5.14907 58.7099 5.18907 57.5799C5.19907 57.2399 5.22907 56.9099 5.18907 56.5699C5.14907 56.2599 5.03907 55.9699 4.98907 55.6699C4.83907 54.6499 5.14907 53.4599 5.40907 52.4699C5.53907 51.9599 5.70908 51.4399 6.06908 51.0499C6.39908 50.6999 6.85908 50.4899 7.31908 50.3499C8.53908 49.9599 9.82908 49.8799 11.0991 49.8099C12.9391 49.6999 14.7791 49.5899 16.6091 49.4899C16.9791 49.4699 17.3491 49.4499 17.7191 49.4399C17.6791 49.2599 17.6491 49.0799 17.6491 48.8899V48.8099C16.5391 48.7899 15.4091 48.7699 14.2891 48.7599C11.3891 48.8199 7.50907 48.7999 5.51907 50.2899C4.63907 50.9499 4.46906 52.1899 4.36906 53.2899C4.27906 54.3799 4.24908 55.4799 4.09908 56.5599C4.05908 56.8799 3.91907 57.1499 3.82907 57.4599C3.76907 57.6599 3.74907 57.8599 3.73907 58.0599C3.66907 59.2099 3.76908 60.3799 4.20908 61.4499C5.20908 63.8699 7.70907 65.7899 10.3891 65.7899C70.7491 68.4399 132.109 68.3999 194.429 65.7899C198.399 65.6199 201.439 62.1899 201.149 58.2299H201.179Z" fill="#EB924D"/>
<path d="M14.7891 36.72C14.7891 37.53 14.819 38.33 14.859 39.13C14.879 39.53 14.909 39.93 14.929 40.34C14.949 40.63 14.929 40.96 14.989 41.24C15.039 41.48 15.099 41.68 15.119 41.94C15.149 42.63 15.1791 43.31 15.2191 44L15.4091 48.12C15.4891 49.88 15.5791 51.63 15.6591 53.39C15.7091 54.37 15.8691 55.21 16.3891 56.04C16.4891 56.2 16.5891 56.36 16.6991 56.51C16.8891 56.77 17.129 56.94 17.429 57.07C18.509 57.55 19.739 57.79 20.899 57.97C22.699 58.25 24.5291 58.32 26.3491 58.38C50.3491 59.23 74.3791 60.08 98.3891 59.48C101.329 59.41 104.359 59.33 107.089 60.43C105.849 58.21 102.839 57.88 100.299 57.83C73.619 57.23 46.919 56.55 20.329 54.32C19.599 54.26 18.7991 54.17 18.2891 53.64C17.9191 53.26 17.779 52.73 17.649 52.23C16.289 46.74 16.0191 40.98 16.8491 35.38C16.8991 35.04 16.9991 34.67 16.9791 34.33C16.9591 33.97 16.9291 33.62 16.9191 33.26C16.9091 32.52 16.9391 31.77 17.0091 31.03C16.9091 30.86 16.659 30.86 16.459 30.88C15.949 30.93 15.4491 30.99 14.9391 31.04C14.9691 31.52 14.9391 31.99 14.8791 32.47C14.8591 32.63 14.8891 32.75 14.9091 32.91C14.9391 33.23 14.889 33.57 14.869 33.89C14.849 34.37 14.8291 34.85 14.8091 35.32C14.7991 35.78 14.7891 36.25 14.7891 36.71V36.72Z" fill="#EB924D"/>
<path d="M108.129 60.6998C108.429 59.9498 109.419 59.8098 110.229 59.7998C116.689 59.6698 123.159 59.5398 129.619 59.4198C135.719 59.2998 141.829 59.1798 147.929 59.0598C149.889 59.0198 151.999 59.0198 153.629 60.1198C153.589 59.8798 153.559 59.6498 153.519 59.4098C154.219 59.2898 154.879 59.1398 155.589 59.1998C155.979 59.2298 156.379 59.0998 156.759 59.0498C157.659 58.9298 158.579 58.8798 159.489 58.8398C164.519 58.6198 169.549 58.5498 174.569 58.2898C175.839 58.2198 177.099 58.1498 178.369 58.0498C179.619 57.9498 180.899 57.8798 182.139 57.6998C182.319 57.6698 182.469 57.6098 182.659 57.5998C182.899 57.5898 183.129 57.5698 183.369 57.5498C184.649 57.4398 185.939 57.1998 187.109 56.6598C188.589 55.9798 189.899 54.7698 190.369 53.1998C190.579 52.5098 190.629 51.7798 190.659 51.0498C190.809 47.7298 190.759 44.4098 190.519 41.0998C190.349 40.9298 189.939 41.2298 189.879 41.4598C189.269 43.8698 188.809 46.3098 188.519 48.7798C188.339 50.2398 188.189 51.7898 187.279 52.9498C186.289 54.2098 184.619 54.7098 183.059 55.0698C174.729 56.9998 166.109 57.1898 157.559 57.3698C149.599 57.5398 141.639 57.7098 133.669 57.8698C127.039 57.6398 120.239 58.6998 113.649 57.9798C111.799 57.7798 109.929 57.4398 108.079 57.7098C107.939 57.7298 107.789 57.7598 107.699 57.8598C107.629 57.9398 107.609 58.0398 107.579 58.1398C107.409 58.9598 107.769 59.9298 108.119 60.6898L108.129 60.6998Z" fill="#EB924D"/>
<path d="M190.431 46.6398C190.411 43.8198 190.391 41.0098 190.361 38.1898C190.341 35.4898 190.321 32.7798 190.301 30.0798C190.271 26.8198 190.401 23.5398 190.021 20.3098C189.941 19.6798 189.791 19.0198 189.801 18.3798C189.801 17.4198 189.621 16.6798 189.201 15.7498C188.651 14.4998 187.861 13.3698 186.981 12.3298C185.051 10.0398 182.281 9.94984 179.391 9.81984C176.361 9.68984 173.341 9.81984 170.311 9.78984C166.931 9.76984 163.551 9.75984 160.161 9.72984C156.051 9.69984 151.941 9.65984 147.831 9.61984C143.711 9.57984 139.601 9.52984 135.481 9.48984C133.421 9.46984 131.361 9.44984 129.301 9.42984C128.871 9.42984 128.431 9.38984 128.011 9.47984C127.751 9.53984 127.511 9.64984 127.231 9.66984C126.311 9.75984 125.261 9.52984 124.361 9.34984C124.481 7.22984 124.861 5.11984 125.471 3.08984C124.631 5.19984 123.661 7.24984 122.561 9.23984C122.491 9.36984 122.411 9.49984 122.281 9.55984C122.151 9.62984 121.991 9.60984 121.841 9.57984C121.531 9.52984 121.201 9.50984 120.901 9.42984C120.191 9.24984 119.431 9.32984 118.701 9.31984C115.521 9.29984 112.351 9.27984 109.171 9.26984C102.931 9.24984 96.6811 9.24984 90.4411 9.29984C83.7511 9.34984 77.0511 9.25984 70.3511 9.22984C68.5311 9.21984 66.7111 9.20984 64.9011 9.19984C64.1111 9.19984 63.3711 9.15984 62.6011 9.32984C61.8111 9.49984 60.8511 9.35984 60.0511 9.30984C59.6011 9.27984 59.1311 9.22984 58.7811 8.95984C58.4311 8.68984 58.2511 8.25984 58.1011 7.83984C57.7711 6.97984 57.4511 6.12984 57.1211 5.26984C57.1711 6.26984 57.2811 7.26984 57.4311 8.25984C57.4811 8.58984 57.5011 8.99984 57.2111 9.15984C57.1211 9.20984 57.0111 9.21984 56.9011 9.22984C56.5411 9.25984 56.1711 9.33984 55.8211 9.27984C55.1411 9.14984 54.4611 9.17984 53.7611 9.18984C46.1811 9.18984 38.6111 9.18984 31.0211 9.14984C26.7711 9.14984 16.5611 6.97984 15.1611 12.7398C14.9711 13.5398 14.9811 14.3698 14.9311 15.1898C14.7811 17.6798 14.8711 20.1798 14.9111 22.6798C15.0311 30.9198 15.2611 39.1698 15.6011 47.3998C15.6511 48.6598 15.7111 49.9298 15.8611 51.1898C15.9911 52.1898 15.9212 53.4898 16.7012 54.2598C16.9612 54.5198 17.1711 54.7798 17.4011 55.0898C17.8711 55.6998 18.5211 56.1598 19.2311 56.4898C20.7611 57.2098 22.5211 57.3898 24.2011 57.4698C29.7011 57.7298 35.2112 57.9498 40.7012 58.1298C46.2312 58.3098 51.7611 58.4698 57.3011 58.5798C62.8311 58.6898 68.3611 58.7498 73.9011 58.7898C78.9211 58.8298 83.9411 58.8398 88.9611 58.8398C91.5211 58.8398 94.0811 58.8398 96.6511 58.8398C99.4111 58.8398 102.761 57.9798 105.301 59.2998C106.571 59.9598 107.641 61.0098 108.241 62.3098C108.141 61.2598 108.171 60.1898 108.331 59.1498C110.341 58.8598 112.361 58.6998 114.391 58.6598C115.271 58.6398 116.101 58.7698 116.991 58.7698C118.021 58.7698 119.051 58.7598 120.081 58.7498C124.191 58.7198 128.311 58.6798 132.421 58.6398C134.971 58.6098 137.521 58.5798 140.071 58.5498C145.601 58.4898 151.131 58.3598 156.671 58.1498C157.671 58.1098 158.671 58.0698 159.651 58.0298C167.271 57.7298 174.901 57.2798 182.501 56.6798C183.151 56.6198 183.781 56.5598 184.381 56.4498C185.361 56.2598 186.271 55.9198 187.071 55.2398C188.051 54.4198 188.991 53.5198 189.651 52.4298C190.731 50.6298 190.461 48.6098 190.441 46.6098L190.431 46.6398ZM186.311 50.4698C185.901 51.1398 185.171 51.8098 184.571 52.3098C184.421 52.4298 184.201 52.5698 183.621 52.6798C183.191 52.7698 182.681 52.8198 182.181 52.8498C174.881 53.4298 167.241 53.8798 159.481 54.1998C158.491 54.2398 157.501 54.2798 156.521 54.3098C150.721 54.5198 145.321 54.6498 140.021 54.7098C124.291 54.8998 108.781 54.9998 93.9212 54.9998C87.2512 54.9998 80.5912 54.9798 73.9212 54.9398C68.4412 54.8998 62.8711 54.8298 57.3811 54.7298C51.9111 54.6198 46.3411 54.4798 40.8411 54.2898C35.3411 54.0998 29.8212 53.8798 24.3912 53.6198C23.1912 53.5698 21.8211 53.4598 20.8611 53.0098C20.6311 52.8898 20.5111 52.7998 20.4811 52.7698C20.3011 52.5298 20.0811 52.2498 19.8211 51.9598C19.8011 51.8098 19.7911 51.6498 19.7811 51.5098C19.7511 51.2498 19.7312 50.9898 19.7012 50.7398C19.5712 49.6698 19.5211 48.5798 19.4711 47.2598C19.1311 39.1098 18.9011 30.8298 18.7811 22.6398L18.7611 21.2498C18.7211 19.2298 18.6811 17.3198 18.8011 15.4298C18.8011 15.2198 18.8211 14.9898 18.8311 14.7698C18.8511 14.3098 18.8612 13.8998 18.9212 13.6598C19.0512 13.1598 20.4812 12.6298 23.4212 12.6298C24.8712 12.6298 26.4211 12.7498 27.7911 12.8498C28.9611 12.9498 30.0711 13.0298 31.0211 13.0298C37.7911 13.0598 44.5711 13.0698 51.3511 13.0698H55.1611C60.2311 13.0698 65.2911 13.0898 70.3611 13.1198L75.2511 13.1498C78.8211 13.1798 82.4011 13.1998 85.9711 13.1998C87.4711 13.1998 88.9811 13.1998 90.4911 13.1998C94.2611 13.1698 98.0311 13.1498 101.801 13.1498C114.581 13.1498 127.601 13.2998 140.191 13.4298C150.071 13.5398 160.291 13.6398 170.311 13.6798H170.801C171.681 13.6798 172.551 13.6798 173.441 13.6798C174.301 13.6798 175.151 13.6598 176.011 13.6598C177.261 13.6598 178.291 13.6798 179.231 13.7198H179.331C182.041 13.8498 183.301 13.9798 184.041 14.8498C184.801 15.7398 185.321 16.5598 185.671 17.3298C185.931 17.9298 185.941 18.1098 185.941 18.3398C185.941 19.1098 186.041 19.7698 186.121 20.3098C186.141 20.4598 186.171 20.6298 186.191 20.7798C186.451 23.0298 186.441 25.3398 186.441 27.7998C186.441 28.5798 186.441 29.3398 186.441 30.1198L186.571 46.6498C186.571 47.0198 186.591 47.3598 186.601 47.6998C186.631 48.8898 186.661 49.9298 186.331 50.4798L186.311 50.4698Z" fill="url(#paint3_linear_852_646)"/>
<path d="M14.86 31.4902L19.39 30.5902L19.2 30.1602L14.5 30.7202L14.86 31.4902Z" fill="#EB924D"/>
<path d="M185.36 17.9793L190.62 18.4093V17.2393L184.93 17.4793L185.36 17.9793Z" fill="#EB924D"/>
<path d="M185.73 40.6093L191.54 41.7193L191.42 40.7993L185.18 40.2393L185.73 40.6093Z" fill="#EB924D"/>
<path d="M168.712 35.6399C164.282 33.1599 156.932 33.9299 153.422 37.2599C151.212 39.3599 151.102 43.2799 153.422 45.3699C158.532 49.9699 167.512 48.0099 170.752 42.3099C170.812 42.2499 170.872 42.1999 170.942 42.1399C173.422 39.8999 171.652 36.1899 168.722 35.6299L168.712 35.6399Z" fill="#EB924D"/>
<path d="M169.762 33.4602C165.332 30.9802 157.982 31.7502 154.472 35.0802C152.262 37.1802 152.152 41.1002 154.472 43.1902C159.582 47.7902 168.562 45.8302 171.802 40.1302C171.862 40.0702 171.922 40.0202 171.992 39.9602C174.472 37.7202 172.702 34.0102 169.772 33.4502L169.762 33.4602Z" fill="url(#paint4_linear_852_646)"/>
<path d="M168.712 34.8703C164.282 32.3903 156.932 33.1603 153.422 36.4903C151.212 38.5903 151.102 42.5103 153.422 44.6003C158.532 49.2003 167.512 47.2403 170.752 41.5403C170.812 41.4803 170.872 41.4303 170.942 41.3703C173.422 39.1303 171.652 35.4203 168.722 34.8603L168.712 34.8703Z" fill="url(#paint5_linear_852_646)"/>
<path d="M151.881 26.5203C149.091 24.9603 144.451 25.4403 142.241 27.5403C140.851 28.8703 140.781 31.3403 142.241 32.6603C145.461 35.5603 151.121 34.3203 153.171 30.7303C153.211 30.6903 153.251 30.6603 153.291 30.6203C154.851 29.2103 153.741 26.8703 151.891 26.5203H151.881Z" fill="#EB924D"/>
<path d="M152.553 25.1502C149.763 23.5902 145.123 24.0702 142.913 26.1702C141.523 27.5002 141.453 29.9702 142.913 31.2902C146.133 34.1902 151.793 32.9502 153.843 29.3602C153.883 29.3202 153.923 29.2902 153.963 29.2502C155.523 27.8402 154.413 25.5002 152.563 25.1502H152.553Z" fill="url(#paint6_linear_852_646)"/>
<path d="M151.881 26.03C149.091 24.47 144.451 24.95 142.241 27.05C140.851 28.38 140.781 30.85 142.241 32.17C145.461 35.07 151.121 33.83 153.171 30.24C153.211 30.2 153.251 30.17 153.291 30.13C154.851 28.72 153.741 26.38 151.891 26.03H151.881Z" fill="url(#paint7_linear_852_646)"/>
<path d="M37.9394 41.53C35.1494 39.97 30.5094 40.45 28.2994 42.55C26.9094 43.88 26.8394 46.35 28.2994 47.67C31.5194 50.57 37.1794 49.33 39.2294 45.74C39.2694 45.7 39.3094 45.67 39.3494 45.63C40.9094 44.22 39.7994 41.88 37.9494 41.53H37.9394Z" fill="#EB924D"/>
<path d="M38.5996 40.1502C35.8096 38.5902 31.1695 39.0702 28.9595 41.1702C27.5695 42.5002 27.4995 44.9702 28.9595 46.2902C32.1795 49.1902 37.8396 47.9502 39.8896 44.3602C39.9296 44.3202 39.9696 44.2902 40.0096 44.2502C41.5696 42.8402 40.4595 40.5002 38.6095 40.1502H38.5996Z" fill="url(#paint8_linear_852_646)"/>
<path d="M37.9394 41.0398C35.1494 39.4798 30.5094 39.9598 28.2994 42.0598C26.9094 43.3898 26.8394 45.8598 28.2994 47.1798C31.5194 50.0798 37.1794 48.8398 39.2294 45.2498C39.2694 45.2098 39.3094 45.1798 39.3494 45.1398C40.9094 43.7298 39.7994 41.3898 37.9494 41.0398H37.9394Z" fill="url(#paint9_linear_852_646)"/>
<defs>
<linearGradient id="paint0_linear_852_646" x1="154.62" y1="-108.131" x2="119.71" y2="-14.1606" gradientUnits="userSpaceOnUse">
<stop stop-color="#CF5C2B"/>
<stop offset="1" stop-color="#59173E"/>
</linearGradient>
<linearGradient id="paint1_linear_852_646" x1="114.921" y1="-32.3005" x2="83.0906" y2="135.589" gradientUnits="userSpaceOnUse">
<stop stop-color="#CF5C2B"/>
<stop offset="1" stop-color="#59173E"/>
</linearGradient>
<linearGradient id="paint2_linear_852_646" x1="114.41" y1="-27.0802" x2="73.5897" y2="181.38" gradientUnits="userSpaceOnUse">
<stop stop-color="#CF5C2B"/>
<stop offset="1" stop-color="#59173E"/>
</linearGradient>
<linearGradient id="paint3_linear_852_646" x1="106.261" y1="91.9998" x2="103.551" y2="46.1398" gradientUnits="userSpaceOnUse">
<stop stop-color="#CF5C2B"/>
<stop offset="1" stop-color="#59173E"/>
</linearGradient>
<linearGradient id="paint4_linear_852_646" x1="170.742" y1="17.2902" x2="159.592" y2="47.1002" gradientUnits="userSpaceOnUse">
<stop stop-color="#CF5C2B"/>
<stop offset="1" stop-color="#59173E"/>
</linearGradient>
<linearGradient id="paint5_linear_852_646" x1="208.142" y1="-67.8196" x2="111.912" y2="155.47" gradientUnits="userSpaceOnUse">
<stop stop-color="#CF5C2B"/>
<stop offset="1" stop-color="#59173E"/>
</linearGradient>
<linearGradient id="paint6_linear_852_646" x1="153.163" y1="14.9502" x2="146.133" y2="33.7502" gradientUnits="userSpaceOnUse">
<stop stop-color="#CF5C2B"/>
<stop offset="1" stop-color="#59173E"/>
</linearGradient>
<linearGradient id="paint7_linear_852_646" x1="176.751" y1="-38.7399" x2="116.061" y2="102.1" gradientUnits="userSpaceOnUse">
<stop stop-color="#CF5C2B"/>
<stop offset="1" stop-color="#59173E"/>
</linearGradient>
<linearGradient id="paint8_linear_852_646" x1="39.2195" y1="29.9502" x2="32.1796" y2="48.7602" gradientUnits="userSpaceOnUse">
<stop stop-color="#CF5C2B"/>
<stop offset="1" stop-color="#59173E"/>
</linearGradient>
<linearGradient id="paint9_linear_852_646" x1="62.8094" y1="-23.7302" x2="2.1095" y2="117.11" gradientUnits="userSpaceOnUse">
<stop stop-color="#CF5C2B"/>
<stop offset="1" stop-color="#59173E"/>
</linearGradient>
</defs>
</svg>
