<svg width="90" height="25" viewBox="0 0 90 25" fill="none" xmlns="http://www.w3.org/2000/svg">
<path d="M88.89 6.81059C88.548 5.52759 90.413 2.6976 88.51 1.9586C87.634 1.6186 86.761 1.27558 85.887 0.930583C85.062 0.605583 84.331 0.89657 83.452 0.95457C82.234 1.03457 80.996 1.02159 79.775 1.04859C74.602 1.16059 69.433 0.966586 64.261 0.883586C56.341 0.757586 48.41 0.709582 40.494 0.973582C40.277 0.980582 40.059 0.988592 39.842 0.996592C39.443 1.01059 39.335 0.942587 39.197 1.17259C39.036 1.44059 39.198 2.24358 39.191 2.53858C39.168 3.45058 39.064 4.3546 39.009 5.2646C38.976 5.8116 39.244 5.81657 39.779 6.02857C40.085 6.14957 40.424 6.25259 40.741 6.37959C41.352 6.62459 41.984 6.98559 42.684 7.09059C43.238 7.17359 44.303 7.27957 44.667 7.68757C45.357 8.46157 43.6111 8.79159 43.0181 8.82859C41.8941 8.89759 40.785 8.67158 39.666 8.63758C39.224 8.62458 38.769 8.59357 38.455 8.88157C38.151 9.16057 38.294 9.60058 37.985 9.87858C37.671 10.1606 37.4 9.96458 37.055 10.1286C36.718 10.2896 36.617 10.7286 36.602 10.9996C36.551 11.9216 36.958 12.9376 37.152 13.8446C37.341 14.7266 37.608 15.6226 37.639 16.5196C37.667 17.3486 37.233 18.1616 37.616 18.9676C37.891 19.5466 38.551 20.2996 39.196 20.5456C39.641 20.7156 40.148 20.8356 40.577 21.0486C40.863 21.1896 40.993 21.1856 41.206 21.4146C41.389 21.6116 41.555 21.8886 41.665 22.1146C41.866 22.5306 41.85 23.0526 42.097 23.4456C42.228 23.6536 42.516 23.7426 42.751 23.8406C43.045 23.9626 43.338 24.0636 43.625 24.1836C43.901 24.2986 44.229 24.4266 44.499 24.5256C44.829 24.6466 45.2 24.8266 45.57 24.8706C46.22 24.9476 46.942 24.9046 47.611 24.9106C56.135 24.9896 64.6661 25.0166 73.1901 24.9616C74.9351 24.9506 76.677 24.8576 78.421 24.8516C78.993 24.8496 79.565 24.8566 80.136 24.8716C80.527 24.8816 81.552 25.0586 81.886 24.9396C82.451 24.7386 82.54 23.8456 82.895 23.4026C83.271 22.9356 83.771 22.6306 84.474 22.6256C85.027 22.6216 85.7991 22.8466 86.3151 22.6156C86.9001 22.3546 86.727 21.5616 86.733 21.1196C86.738 20.7356 86.7391 20.3416 86.5911 19.9716C86.4601 19.6466 86.217 19.3956 86.445 19.0546C86.75 18.5966 87.537 18.5966 88.055 18.3946C88.955 18.0446 88.834 17.3586 88.851 16.6536C88.872 15.7996 88.848 14.9436 88.999 14.0976C89.127 13.3766 89.276 12.7266 88.445 12.2536C87.724 11.8436 86.784 11.5836 85.989 11.2726C84.618 10.7356 86.092 10.3536 86.91 10.1746C87.694 10.0026 89.155 9.9696 89.399 9.2516C89.661 8.4736 89.09 7.55759 88.89 6.81059Z" fill="#8E8700"/>
<path d="M52.4262 6.81059C52.0842 5.52759 53.9492 2.6976 52.0462 1.9586C51.1702 1.6186 50.2972 1.27558 49.4232 0.930583C48.5972 0.605583 47.8672 0.89657 46.9882 0.95457C45.7702 1.03457 44.5322 1.02159 43.3112 1.04859C38.1382 1.16059 32.9692 0.966586 27.7972 0.883586C19.8772 0.757586 11.9462 0.709582 4.0302 0.973582C3.8132 0.980582 3.59519 0.988592 3.37819 0.996592C2.97919 1.01059 2.8712 0.942587 2.7332 1.17259C2.5712 1.44059 2.73421 2.24358 2.72621 2.53858C2.70321 3.45058 2.59921 4.3546 2.54421 5.2646C2.51121 5.8116 2.7782 5.81657 3.3142 6.02857C3.6202 6.14957 3.9592 6.25259 4.2762 6.37959C4.8872 6.62459 5.5192 6.98559 6.2192 7.09059C6.7732 7.17359 7.8382 7.27957 8.2022 7.68757C8.8922 8.46157 7.14621 8.79159 6.55321 8.82859C5.42921 8.89759 4.32019 8.67158 3.20119 8.63758C2.75919 8.62458 2.30419 8.59357 1.99019 8.88157C1.68619 9.16057 1.82919 9.60058 1.52019 9.87858C1.20619 10.1606 0.935198 9.96458 0.590198 10.1286C0.253198 10.2896 0.152195 10.7286 0.137195 10.9996C0.0861951 11.9216 0.493213 12.9376 0.687213 13.8446C0.876213 14.7266 1.14321 15.6226 1.17421 16.5196C1.20221 17.3486 0.769203 18.1616 1.1512 18.9676C1.4262 19.5466 2.08619 20.2996 2.73119 20.5456C3.17619 20.7156 3.6832 20.8356 4.1122 21.0486C4.3982 21.1896 4.5282 21.1856 4.7412 21.4146C4.9242 21.6116 5.09021 21.8886 5.20021 22.1146C5.40121 22.5306 5.38519 23.0526 5.63219 23.4456C5.76319 23.6536 6.05119 23.7426 6.28719 23.8406C6.58119 23.9626 6.87421 24.0636 7.16121 24.1836C7.43721 24.2986 7.76521 24.4266 8.03521 24.5256C8.36521 24.6466 8.7362 24.8266 9.1072 24.8706C9.7572 24.9476 10.4792 24.9046 11.1482 24.9106C19.6722 24.9896 28.2032 25.0166 36.7272 24.9616C38.4722 24.9506 40.2142 24.8576 41.9582 24.8516C42.5302 24.8496 43.1022 24.8566 43.6732 24.8716C44.0642 24.8816 45.0892 25.0586 45.4232 24.9396C45.9882 24.7386 46.0772 23.8456 46.4322 23.4026C46.8082 22.9356 47.3082 22.6306 48.0112 22.6256C48.5642 22.6216 49.3362 22.8466 49.8522 22.6156C50.4372 22.3546 50.2642 21.5616 50.2702 21.1196C50.2752 20.7356 50.2762 20.3416 50.1282 19.9716C49.9972 19.6466 49.7542 19.3956 49.9822 19.0546C50.2872 18.5966 51.0732 18.5966 51.5922 18.3946C52.4922 18.0446 52.3712 17.3586 52.3882 16.6536C52.4092 15.7996 52.3852 14.9436 52.5362 14.0976C52.6642 13.3766 52.8132 12.7266 51.9822 12.2536C51.2612 11.8436 50.3212 11.5836 49.5262 11.2726C48.1552 10.7356 49.6292 10.3536 50.4472 10.1746C51.2312 10.0026 52.6922 9.9696 52.9362 9.2516C53.1962 8.4736 52.6252 7.55759 52.4262 6.81059Z" fill="#8E8700"/>
<path d="M41.6229 23.3586L6.09991 23.0576L5.75391 23.5826C5.90091 23.7006 6.10791 23.7686 6.28491 23.8426C6.57891 23.9646 6.87191 24.0656 7.15891 24.1856C7.43491 24.3006 7.76293 24.4286 8.03293 24.5276C8.36293 24.6486 8.73392 24.8286 9.10492 24.8726C9.75492 24.9496 10.4769 24.9066 11.1459 24.9126C19.6699 24.9916 28.2009 25.0186 36.7249 24.9636C38.4699 24.9526 40.2119 24.8596 41.9559 24.8536C42.5279 24.8516 43.0999 24.8586 43.6709 24.8736C44.0619 24.8836 45.0869 25.0606 45.4209 24.9416C45.4489 24.9316 45.4699 24.9136 45.4959 24.9006L41.6229 23.3586Z" fill="#665D00"/>
<path d="M82.7396 21.1201H79.7656L83.6036 22.8271C83.8546 22.7041 84.1406 22.6301 84.4746 22.6271C85.0276 22.6231 85.7996 22.8481 86.3156 22.6171C86.4106 22.5741 86.4806 22.5141 86.5396 22.4471L82.7396 21.1201Z" fill="#665D00"/>
<path d="M88.6083 17.9979L84.9144 16.5869L82.3594 17.9989L86.4094 19.1409C86.4224 19.1119 86.4214 19.0849 86.4424 19.0549C86.7474 18.5969 87.5344 18.5969 88.0524 18.3949C88.0974 18.3769 88.1303 18.3549 88.1703 18.3359L88.6034 18.0059C88.6044 18.0029 88.6063 18.0009 88.6083 17.9979Z" fill="#665D00"/>
<path d="M81.1445 8.93933L81.6046 9.58932L85.6116 10.5993C85.9066 10.4103 86.4906 10.2663 86.9056 10.1753C87.6896 10.0033 89.1505 9.97032 89.3945 9.25232L86.1406 8.19434L81.1445 8.93933Z" fill="#665D00"/>
<path d="M78.0878 23.3586L42.5648 23.0576L42.2188 23.5826C42.3657 23.7006 42.5728 23.7686 42.7498 23.8426C43.0438 23.9646 43.3368 24.0656 43.6238 24.1856C43.8998 24.3006 44.2277 24.4286 44.4977 24.5276C44.8277 24.6486 45.1988 24.8286 45.5688 24.8726C46.2188 24.9496 46.9407 24.9066 47.6097 24.9126C56.1337 24.9916 64.6648 25.0186 73.1888 24.9636C74.9338 24.9526 76.6758 24.8596 78.4198 24.8536C78.9918 24.8516 79.5638 24.8586 80.1348 24.8736C80.5258 24.8836 81.5508 25.0606 81.8848 24.9416C81.9128 24.9316 81.9338 24.9136 81.9598 24.9006L78.0878 23.3586Z" fill="#665D00"/>
<path d="M2.67188 5.73151C2.79788 5.85351 3.01087 5.91051 3.31287 6.02951C3.61887 6.15051 3.95787 6.25252 4.27487 6.38052C4.88587 6.62552 5.51787 6.98652 6.21786 7.09152C6.47786 7.13052 6.85088 7.17551 7.21088 7.25351L7.36588 6.9155L6.14087 5.35352L2.67188 5.73151Z" fill="#665D00"/>
<path d="M70.9438 23.2761C73.4028 23.3341 75.8868 23.3981 78.3848 23.1401C76.3768 23.0841 74.3148 22.9911 72.7908 22.8771L70.7158 22.722C67.9628 22.516 63.4518 22.4291 60.6898 22.5291L58.7318 22.6001C55.9698 22.7001 51.4528 22.6621 48.6948 22.5161L46.6458 22.4071C46.3718 22.3931 46.0688 22.383 45.7638 22.373C42.2368 22.958 38.6338 23.0671 35.1038 23.1331C33.8748 23.1551 32.6528 23.1741 31.4348 23.1971C29.0818 23.3801 26.4668 23.5281 24.6208 23.5721L22.5238 23.6211C19.7598 23.6861 15.2428 23.6071 12.4858 23.4461L11.4018 23.3831C10.3468 23.4421 9.29981 23.5551 8.25781 23.7041C13.1168 23.7421 34.0008 23.8171 36.0688 23.7141C38.1478 23.6111 40.1068 23.6211 42.2158 23.7301C42.2888 23.7341 42.3698 23.7361 42.4278 23.6981C42.4398 23.6901 42.4418 23.6751 42.4508 23.6651C42.8808 23.6711 43.3108 23.6801 43.7378 23.6931C44.2478 23.7081 51.0108 23.7431 57.8728 23.7581C59.2818 23.5671 60.6968 23.3881 62.1398 23.2721C65.1068 23.0571 68.0238 23.2011 70.9438 23.2761Z" fill="url(#paint0_radial_843_2479)"/>
<path d="M76.3008 23.6523C77.0818 23.6643 77.8688 23.6873 78.6788 23.7293C78.7518 23.7333 78.8328 23.7353 78.8908 23.6973C78.9358 23.6673 78.9578 23.6203 78.9778 23.5743C79.0378 23.4363 79.0958 23.2973 79.1558 23.1593C79.1068 23.1583 79.0568 23.1563 79.0088 23.1553C78.1148 23.3693 77.2108 23.5313 76.3008 23.6523Z" fill="url(#paint1_radial_843_2479)"/>
<path d="M45.4493 22.3624C42.7113 22.2974 39.0243 22.4254 36.6533 22.6854L36.5273 22.6994C39.4913 22.7284 42.4773 22.7034 45.4493 22.3624Z" fill="url(#paint2_radial_843_2479)"/>
<path d="M58.2627 11.9415C50.4457 11.8645 42.6467 11.5676 34.7657 11.1826C26.8847 10.7946 18.9147 10.3155 10.7597 9.74355C14.3207 9.69955 17.8407 9.67257 21.3387 9.65657C18.6527 9.24757 14.9147 9.12757 12.4957 9.40157L10.4627 9.63256C7.72568 9.94256 3.22666 10.2786 0.464659 10.3776L0.373656 10.3806C0.307656 10.4676 0.249678 10.5616 0.208678 10.6626C0.0736778 10.9916 0.145657 11.3516 0.218657 11.6946C0.364657 12.3766 0.510683 13.0576 0.657683 13.7396L0.708678 13.7466C3.29268 14.1056 7.44168 14.2546 10.2127 14.1026C8.43268 13.6676 6.72568 12.9975 5.17468 12.0795C8.45368 12.3845 11.3887 12.5076 14.3087 12.6346C17.2307 12.7506 20.1417 12.8685 23.4067 12.8725C22.2877 13.3965 21.1137 13.8036 19.9117 14.0996C21.2537 14.2596 22.5297 14.4776 23.5407 14.7386C26.1697 15.4176 30.4577 16.5616 33.0707 17.2806L33.1587 17.3046C35.7717 18.0236 35.6617 18.8136 32.9147 19.0606L32.5537 19.0925C29.8067 19.3395 25.3057 19.7046 22.5527 19.9036L22.2647 19.9245C19.5117 20.1235 15.1827 20.1906 12.6457 20.0726C10.1087 19.9546 5.95966 19.7376 3.42566 19.5916C2.85266 19.5586 2.18867 19.5356 1.48367 19.5186C1.75667 19.8626 2.10368 20.1796 2.44168 20.4756C3.01168 20.3636 3.70666 20.3126 4.27466 20.4346C4.34166 20.9916 4.74466 21.4495 5.06366 21.9245C6.99366 21.9055 8.95166 21.9056 10.4167 21.9306L12.4877 21.9656C15.2517 22.0116 19.7737 21.9876 22.5367 21.9106L24.4847 21.8566C27.2477 21.7796 31.7637 21.5796 34.5207 21.4106L36.5727 21.2856C39.3297 21.1176 41.5967 20.9856 41.6107 20.9926C41.6247 20.9996 43.8987 20.9916 46.6627 20.9746L48.6747 20.9616C51.4397 20.9446 55.9607 20.8436 58.7217 20.7366L60.7147 20.6596C63.4757 20.5536 65.7467 20.6196 65.7617 20.8066C65.7757 20.9936 68.0477 21.2215 70.8097 21.3125L72.8766 21.3806C74.8696 21.4466 77.7697 21.5616 80.2707 21.6716C80.3837 21.6026 80.5067 21.5386 80.6447 21.4856C81.3787 21.1996 83.3137 21.9156 83.4737 20.9776C71.8147 20.5056 60.1056 19.7856 47.9446 18.8376C47.4756 18.9436 47.0147 19.0326 46.5267 19.0806C45.5027 19.1866 44.3296 19.1256 43.2646 18.6946C44.3866 18.4476 45.3227 18.1756 46.3737 18.0676C47.4037 17.9576 48.5757 18.0086 49.6327 18.4276C49.0707 18.5606 48.5617 18.6956 48.0647 18.8106C60.1937 18.6896 71.9017 18.7705 83.4667 19.0235C83.4617 18.9995 83.4617 18.9746 83.4567 18.9506C83.3857 18.6216 83.0257 18.3515 83.1577 17.9975C83.2947 17.6305 83.6926 17.4896 84.1266 17.3776C78.6266 17.2456 73.1046 16.9126 67.3846 17.3616C71.5126 16.6726 75.6707 16.5455 79.7277 16.4935C81.7007 16.4715 83.6527 16.4726 85.5947 16.4586C85.6207 16.3286 85.6267 16.1946 85.6297 16.0636C85.6377 15.7386 85.6457 15.4126 85.6537 15.0876C84.6067 14.9806 83.5506 14.8526 82.4706 14.6956C83.5576 14.5576 84.6197 14.4676 85.6717 14.4066C85.6787 14.1296 85.6857 13.8516 85.6927 13.5746C85.6997 13.3036 85.7807 12.9626 85.8427 12.6266C84.9257 12.6586 84.0006 12.7676 83.0876 13.0316C83.9266 12.5556 84.8987 12.2426 85.9017 12.0286C85.9017 11.9236 85.9057 11.8156 85.8817 11.7276C85.8217 11.4996 85.6646 11.3206 85.4576 11.1736C76.3226 11.8386 67.2667 12.0375 58.2627 11.9415ZM34.4547 20.5946C32.4967 20.7916 30.3177 20.6676 28.5047 19.8146C30.5947 20.0016 32.4237 19.7536 34.3157 19.5806C36.1977 19.3956 38.1537 19.2086 40.2507 19.2826C38.3067 19.8706 36.4477 20.3956 34.4547 20.5946ZM56.3927 16.5206C52.8407 16.7096 49.2027 16.8546 45.5157 16.5816C41.8387 16.3066 38.1797 15.6305 34.6627 14.5495C38.4037 14.9795 42.0537 15.1316 45.6207 15.0606C49.1857 14.9866 52.7077 14.6766 56.2947 14.4816C63.4967 14.0456 70.8286 14.5016 78.0746 15.9746C70.5056 15.8556 63.4677 16.0996 56.3927 16.5206ZM69.0657 12.2986C61.9767 12.6696 55.3047 13.8085 48.3987 13.4715C44.9697 13.2525 41.6547 12.8705 38.2457 12.6095C34.8487 12.3465 31.3997 12.1246 27.8427 12.2986C34.9237 11.3226 41.8786 12.0236 48.5486 12.4566C55.2186 12.7786 62.0037 11.9846 69.0657 12.2986Z" fill="url(#paint3_radial_843_2479)"/>
<path d="M12.6397 19.2056C15.1707 19.3806 19.4897 19.3346 22.2397 19.1036L28.1728 18.6046C30.9228 18.3736 31.0348 17.5936 28.4228 16.8726L23.4058 15.4856C21.7838 15.0376 19.4757 14.7016 17.2987 14.5586C15.8457 14.7186 14.3758 14.7296 12.9258 14.5796L10.6187 14.7426C7.86474 14.9376 5.59874 15.1256 5.58374 15.1606C5.56874 15.1946 3.45775 14.9536 0.84375 14.6216C0.85575 14.6766 0.866754 14.7306 0.878754 14.7856C1.46375 14.8616 2.01975 14.9546 2.55475 15.0276C4.89775 15.3776 7.25276 15.7076 9.62576 16.0166C11.1598 16.2176 12.7047 16.4056 14.2557 16.5896C14.3287 16.2236 14.9668 15.9346 16.0778 15.8446C17.8828 15.6986 20.8067 15.9756 22.5747 16.4596C23.7617 16.7846 23.8897 17.1936 23.1017 17.5296C23.4527 17.5626 23.7998 17.5986 24.1518 17.6306C23.6548 17.6536 23.1638 17.6616 22.6688 17.6786C22.3108 17.7816 21.8587 17.8746 21.3047 17.9496C19.4557 18.2016 17.3498 18.1086 15.9448 17.7626C13.7148 17.7366 11.4997 17.6646 9.30273 17.5316C6.86873 17.3866 4.45374 17.1766 2.05774 16.9036C1.75574 16.8696 1.46075 16.8346 1.17175 16.8006C1.16975 17.0026 1.15675 17.2016 1.11975 17.3876C1.06075 17.6816 0.967743 17.9736 0.967743 18.2716C0.967743 18.3646 0.980735 18.4556 0.996735 18.5456C1.88473 18.5586 2.71974 18.5836 3.42374 18.6236C5.96274 18.7696 10.1097 19.0306 12.6397 19.2056Z" fill="url(#paint4_radial_843_2479)"/>
<path d="M20.1726 17.2437C20.8256 17.0757 20.9796 16.8777 20.4696 16.7457C19.7936 16.5717 18.3836 16.4907 17.3356 16.5667C16.8046 16.6047 16.4196 16.6987 16.2266 16.8187C17.5346 16.9657 18.8486 17.1087 20.1726 17.2437Z" fill="url(#paint5_radial_843_2479)"/>
<path d="M86.0236 1.45867C85.9596 1.16167 85.8315 0.942661 85.5975 0.862661C85.0475 0.674661 84.6936 0.861661 84.1846 0.931661C83.4576 1.03066 82.7196 1.02864 81.9796 1.04564C80.3776 1.08264 78.7766 1.11764 77.1746 1.14864C76.3276 1.16564 74.3486 1.12566 71.6176 1.06966C71.5846 1.07666 71.5525 1.08366 71.5195 1.09066C76.3475 1.15966 81.1726 1.28267 86.0236 1.45867Z" fill="url(#paint6_radial_843_2479)"/>
<path d="M65.6202 0.952454C64.4872 0.932454 63.3022 0.914461 62.0742 0.897461C63.2622 0.950461 64.4442 0.975454 65.6202 0.952454Z" fill="url(#paint7_radial_843_2479)"/>
<path d="M82.8394 5.77698C80.0754 5.83698 75.5524 5.86296 72.7884 5.83496L70.7844 5.81497C68.0204 5.78797 63.4974 5.83197 60.7354 5.91397L58.6964 5.97397C58.1704 5.98997 57.5694 5.99698 56.9414 6.00098C58.4944 6.13398 60.0504 6.26796 61.6014 6.39996C67.2894 6.85896 72.9784 7.21396 78.7334 7.37796C81.2144 7.41896 83.7144 7.49098 86.2244 7.50098C86.1804 6.90198 85.8944 6.30698 85.7194 5.70898C85.4254 5.71798 85.1324 5.72596 84.8674 5.73196L82.8394 5.77698Z" fill="url(#paint8_radial_843_2479)"/>
<path d="M61.3546 7.40603C58.5106 7.18903 55.6336 6.86701 52.8296 6.61001C50.0576 6.38801 47.2126 6.66602 44.3716 7.02102C41.5266 7.37702 38.6526 7.83401 35.7056 8.05401C32.7726 8.29601 29.7166 8.20502 26.8506 7.50002C29.7876 8.04202 32.7846 7.97401 35.6746 7.61001C38.5746 7.26601 41.4056 6.70601 44.2746 6.26101C45.6096 6.05301 46.9606 5.86901 48.3236 5.74901L46.6275 5.63103C43.8735 5.43903 39.3906 5.58502 36.6656 5.95702L34.4536 6.25902C31.7286 6.63102 27.2805 6.58303 24.5695 6.15203L22.2746 5.78801C19.5636 5.35801 15.0855 4.92402 12.3235 4.82402L10.5266 4.75902C8.36655 4.68102 5.16055 4.81001 2.56055 5.05501C2.54155 5.24001 2.53556 5.42601 2.51456 5.61101C2.50856 5.66101 2.50355 5.71502 2.53455 5.75802C2.57455 5.81402 2.65957 5.83302 2.73557 5.84502C3.52957 5.96802 4.30056 5.84702 5.08856 5.99602C5.22456 6.02202 5.35655 6.06103 5.47455 6.12203C7.57455 5.82203 9.72356 5.65901 11.8896 5.74901C14.1316 5.84101 16.3956 6.21401 18.4756 6.96801C14.3256 6.18101 10.3386 6.49103 6.43857 7.02303C6.98757 7.28703 7.72354 7.36602 8.20654 7.73302C8.33254 8.06602 8.39355 8.25103 8.07455 8.47503C7.75655 8.69903 7.33855 8.79601 6.92755 8.84301C5.57055 8.99801 4.20154 8.67501 2.83154 8.67601C2.56254 8.67601 2.27155 8.69603 2.06955 8.84603C1.83855 9.01703 1.79756 9.29401 1.72656 9.55001C4.44556 9.37501 8.02357 9.00101 10.3306 8.63601L12.5936 8.27803C15.3056 7.84903 19.7346 7.87901 22.4376 8.34301L24.6476 8.72301C27.3496 9.18801 31.7886 9.25301 34.5106 8.86901L36.6446 8.56801C39.3666 8.18301 43.8216 8.18001 46.5446 8.55901L48.7705 8.87002C51.4935 9.25002 55.9835 9.58803 58.7475 9.62203L60.6736 9.64501C63.4386 9.67901 67.9596 9.77902 70.7226 9.86702L72.7486 9.93203C75.3606 10.016 79.4966 9.80502 82.2436 9.46102C82.3846 9.28502 82.6776 9.19002 82.9386 9.13302C83.8316 8.93802 84.7246 8.74202 85.6176 8.54702C85.7436 8.52002 85.8735 8.49003 85.9735 8.42003C86.1035 8.32903 86.1615 8.18301 86.1925 8.04201C86.1965 8.02501 86.1956 8.00802 86.1996 7.99102C83.6546 8.08702 81.1275 8.13702 78.6095 8.14602C72.7985 8.14702 67.0606 7.87003 61.3546 7.40603Z" fill="url(#paint9_radial_843_2479)"/>
<path d="M2.66406 3.79428C5.22306 3.56628 8.30406 3.41127 10.3971 3.42227L12.6001 3.43326C15.3651 3.44726 19.8561 3.76526 22.5801 4.14026L24.6181 4.42026C27.3421 4.79526 31.8031 4.81025 34.5321 4.45425L36.6131 4.18228C39.3411 3.82628 41.6031 3.59726 41.6391 3.67426C41.6751 3.75126 43.961 3.94628 46.718 4.10828L48.6691 4.22226C51.4261 4.38426 55.9431 4.45728 58.7061 4.38428L60.6431 4.33328C63.4061 4.26128 67.928 4.15727 70.692 4.10327L72.7821 4.06226C75.5461 4.00826 80.0691 3.95925 82.8341 3.95425L84.833 3.95026C85.147 3.94926 85.489 3.94625 85.843 3.94125C85.889 3.67325 85.936 3.39526 85.976 3.11926C68.759 3.32626 52.0651 2.80827 34.2151 1.55127C40.7101 1.30927 47.0511 1.15027 53.3131 1.07227C51.3971 0.943266 49.4661 0.891258 47.5201 0.864258C44.7011 0.898258 41.8911 0.960263 39.1971 1.06326C39.1981 1.08926 39.1951 1.11526 39.1961 1.14026C37.3571 1.11626 34.3381 1.04428 30.6311 0.975281C21.1691 2.29328 11.9291 3.06526 2.70206 3.29926C2.69406 3.46626 2.67406 3.63028 2.66406 3.79428Z" fill="url(#paint10_radial_843_2479)"/>
<path d="M2.73357 1.06633C2.73557 1.13633 2.72958 1.20636 2.73058 1.27736C9.56558 1.16836 16.4066 1.03735 23.3806 0.87135C16.8636 0.80035 9.44557 0.808326 2.73357 1.06633Z" fill="url(#paint11_radial_843_2479)"/>
<path d="M40.6914 9.72282C41.6764 9.73282 42.6644 9.74282 43.6474 9.75282C42.6854 9.70782 41.6814 9.69682 40.6914 9.72282Z" fill="url(#paint12_radial_843_2479)"/>
<path d="M45.7636 22.3723C45.6566 22.3693 45.5566 22.3653 45.4466 22.3623C42.4756 22.7033 39.4886 22.7293 36.5246 22.6993L34.6246 22.9073C33.7146 23.0073 32.6046 23.1053 31.4336 23.1963C32.6526 23.1733 33.8746 23.1543 35.1026 23.1323C38.6336 23.0653 42.2366 22.9563 45.7636 22.3723Z" fill="#C9BB00"/>
<path d="M18.4737 6.96733C16.3927 6.21433 14.1287 5.84034 11.8877 5.74834C9.72166 5.65834 7.57266 5.82136 5.47266 6.12136C5.50166 6.13636 5.53467 6.14535 5.56067 6.16335C5.73867 6.29035 5.81367 6.49034 5.94467 6.65334C6.07267 6.81334 6.24368 6.92835 6.43768 7.02135C10.3367 6.49135 14.3237 6.18133 18.4737 6.96733Z" fill="#C9BB00"/>
<path d="M61.5996 6.401C60.0486 6.268 58.4937 6.13501 56.9397 6.00201C54.2657 6.01701 50.8947 5.92999 48.6637 5.77399L48.3206 5.75C46.9576 5.87 45.6066 6.05399 44.2716 6.26199C41.4036 6.70599 38.5717 7.26699 35.6717 7.61099C32.7817 7.97599 29.7847 8.04401 26.8477 7.50101C29.7147 8.20501 32.7697 8.29599 35.7027 8.05499C38.6497 7.83599 41.5237 7.378 44.3687 7.022C47.2097 6.667 50.0547 6.38899 52.8267 6.61099C55.6307 6.86699 58.5077 7.18901 61.3517 7.40701C67.0577 7.87101 72.7957 8.148 78.6067 8.146C81.1257 8.137 83.6517 8.088 86.1967 7.991C86.2287 7.828 86.2337 7.66499 86.2227 7.50299C83.7127 7.49299 81.2127 7.42 78.7317 7.38C72.9767 7.215 67.2876 6.86 61.5996 6.401Z" fill="#C9BB00"/>
<path d="M10.4 23.3235C9.06099 23.2455 7.30797 23.1985 5.54297 23.1855C5.60897 23.4015 5.66098 23.5826 5.67398 23.6396C5.67698 23.6526 5.68899 23.6585 5.70599 23.6585C6.23299 23.6625 6.75498 23.6765 7.27698 23.6925C7.37698 23.6955 7.72498 23.6996 8.25998 23.7036C9.30198 23.5546 10.348 23.4415 11.404 23.3825L10.4 23.3235Z" fill="#C9BB00"/>
<path d="M85.6528 15.0901C85.6588 14.8631 85.6637 14.6362 85.6697 14.4102C84.6187 14.4712 83.5568 14.5612 82.4688 14.6992C83.5488 14.8542 84.6058 14.9831 85.6528 15.0901Z" fill="#C9BB00"/>
<path d="M48.5459 12.4563C41.8759 12.0233 34.9208 11.3213 27.8398 12.2983C31.3968 12.1243 34.8458 12.3462 38.2428 12.6092C41.6518 12.8702 44.9678 13.2512 48.3958 13.4712C55.3018 13.8072 61.9738 12.6693 69.0628 12.2983C62.0028 11.9843 55.2179 12.7783 48.5459 12.4563Z" fill="#C9BB00"/>
<path d="M34.3149 19.5811C32.4229 19.7541 30.5929 20.0021 28.5039 19.8151C30.3169 20.6681 32.4959 20.7921 34.4539 20.5951C36.4459 20.3961 38.3059 19.8711 40.2499 19.2831C38.1529 19.2091 36.1979 19.3971 34.3149 19.5811Z" fill="#C9BB00"/>
<path d="M67.3828 17.364C73.1028 16.915 78.6248 17.249 84.1248 17.38C84.6378 17.247 85.2029 17.154 85.4619 16.784C85.5319 16.684 85.5699 16.574 85.5919 16.46C83.6509 16.474 81.6979 16.473 79.7249 16.495C75.6689 16.549 71.5108 16.676 67.3828 17.364Z" fill="#C9BB00"/>
<path d="M78.386 23.1387C75.887 23.3967 73.4039 23.3327 70.9449 23.2747C68.0259 23.2007 65.109 23.0567 62.142 23.2707C60.699 23.3867 59.283 23.5657 57.875 23.7567C64.59 23.7717 71.399 23.7687 72.534 23.7127C73.814 23.6487 75.051 23.6337 76.303 23.6527C77.213 23.5317 78.1179 23.3687 79.0099 23.1557C78.8029 23.1507 78.594 23.1447 78.386 23.1387Z" fill="#C9BB00"/>
<path d="M17.3027 14.5594C15.9757 14.4714 14.6967 14.4554 13.6537 14.5294L12.9297 14.5804C14.3787 14.7294 15.8487 14.7184 17.3027 14.5594Z" fill="#C9BB00"/>
<path d="M85.8409 12.6283C85.8799 12.4173 85.899 12.2173 85.9 12.0303C84.897 12.2443 83.9249 12.5573 83.0859 13.0333C83.9989 12.7693 84.9229 12.6603 85.8409 12.6283Z" fill="#C9BB00"/>
<path d="M34.2148 1.55234C52.0648 2.80934 68.7599 3.32734 85.9759 3.12034C86.0669 2.49534 86.1159 1.89134 86.0229 1.45734C81.1719 1.28134 76.3468 1.15833 71.5188 1.08933C71.5518 1.08233 71.5839 1.07533 71.6169 1.06833C69.8889 1.03333 67.8588 0.990337 65.6178 0.952337C64.4428 0.975337 63.2599 0.950344 62.0719 0.897344C58.0459 0.843344 53.5738 0.81234 49.0758 0.84934C48.7048 0.73834 48.4169 0.791343 48.1059 0.858343C47.9099 0.860343 47.7149 0.863339 47.5199 0.866339C49.4659 0.892339 51.3968 0.945346 53.3128 1.07435C47.0498 1.15135 40.7098 1.31034 34.2148 1.55234Z" fill="#C9BB00"/>
<path d="M30.6321 0.979095C28.4261 0.938095 25.9761 0.898094 23.3821 0.871094C16.4081 1.03709 9.56715 1.1681 2.73215 1.2771C2.74115 1.9531 2.73513 2.6281 2.70312 3.3031C11.9301 3.0691 21.1701 2.2971 30.6321 0.979095Z" fill="#C9BB00"/>
<path d="M72.8388 10.7922L70.6698 10.5732C67.9268 10.2962 63.4258 10.1852 60.6668 10.3252L58.6448 10.4282C55.8858 10.5682 53.5978 10.7942 53.5618 10.9282C53.5248 11.0632 51.2798 10.8082 48.5728 10.3622L46.5388 10.0273C45.7058 9.89025 44.7028 9.80223 43.6448 9.75223C42.6618 9.74223 41.6748 9.73223 40.6888 9.72223C39.2288 9.76023 37.8178 9.87123 36.7028 10.0632L34.4458 10.4522C31.7438 10.9182 27.3418 10.8522 24.6638 10.3052L22.3388 9.83124C22.0278 9.76824 21.6888 9.71025 21.3368 9.65625C17.8388 9.67225 14.3188 9.69923 10.7578 9.74323C18.9128 10.3152 26.8828 10.7943 34.7638 11.1823C42.6448 11.5673 50.4448 11.8642 58.2608 11.9412C67.2648 12.0372 76.3208 11.8382 85.4548 11.1732C85.1428 10.9512 84.7168 10.8032 84.3228 10.6882C84.0888 10.6192 83.8538 10.5512 83.6188 10.4822L82.7758 10.6003C80.0538 10.9833 75.5818 11.0692 72.8388 10.7922Z" fill="#C9BB00"/>
<path d="M56.2961 14.4818C52.7091 14.6758 49.1871 14.9869 45.6221 15.0609C42.0541 15.1319 38.4051 14.9798 34.6641 14.5498C38.1811 15.6308 41.8391 16.3078 45.5171 16.5818C49.2051 16.8538 52.8421 16.7098 56.3941 16.5208C63.4691 16.0998 70.5071 15.8559 78.0751 15.9749C70.8301 14.5009 63.4981 14.0448 56.2961 14.4818Z" fill="#C9BB00"/>
<path d="M9.30389 17.5341C11.5009 17.6671 13.7159 17.7381 15.9459 17.7651C15.4769 17.6491 15.0859 17.5061 14.8089 17.3371C14.3829 17.0781 14.2109 16.8201 14.2559 16.5911C12.7049 16.4081 11.1589 16.2191 9.62592 16.0181C7.25292 15.7091 4.8979 15.3801 2.5549 15.0291C2.0199 14.9561 1.46391 14.8631 0.878906 14.7871C0.926906 15.0111 0.974888 15.2351 1.02289 15.4591C1.11289 15.8781 1.17791 16.3501 1.17191 16.8031C1.46091 16.8371 1.75589 16.8721 2.05789 16.9061C4.45489 17.1791 6.86989 17.3891 9.30389 17.5341Z" fill="#C9BB00"/>
<path d="M16.2566 17.2144C16.7126 17.4954 18.1226 17.5754 19.3906 17.3934C19.6996 17.3494 19.9606 17.2983 20.1716 17.2433C18.8476 17.1083 17.5326 16.9654 16.2246 16.8184C16.0376 16.9344 16.0316 17.0754 16.2566 17.2144Z" fill="#C9BB00"/>
<path d="M48.0657 18.8135C48.5627 18.6985 49.0707 18.5635 49.6337 18.4305C48.5767 18.0115 47.4046 17.9605 46.3746 18.0705C45.3236 18.1785 44.3876 18.4505 43.2656 18.6975C44.3306 19.1285 45.5036 19.1885 46.5276 19.0835C47.0156 19.0345 47.4776 18.9455 47.9456 18.8405C60.1076 19.7885 71.8157 20.5095 83.4747 20.9805C83.4807 20.9455 83.4897 20.9125 83.4907 20.8725C83.5027 20.2645 83.5797 19.6295 83.4667 19.0275C71.9017 18.7735 60.1947 18.6915 48.0657 18.8135Z" fill="#C9BB00"/>
<path d="M24.1549 17.6303C23.8029 17.5983 23.4559 17.5623 23.1049 17.5293C22.9829 17.5813 22.8379 17.6313 22.6719 17.6793C23.1669 17.6613 23.6589 17.6533 24.1549 17.6303Z" fill="#C9BB00"/>
<path d="M13.7568 13.862C15.4508 13.742 17.7678 13.846 19.9128 14.102C21.1158 13.805 22.2898 13.399 23.4078 12.875C20.1418 12.871 17.2318 12.754 14.3098 12.637C11.3888 12.509 8.45378 12.386 5.17578 12.082C6.72678 12.999 8.43378 13.67 10.2138 14.105C10.3638 14.097 10.5268 14.092 10.6678 14.081L13.7568 13.862Z" fill="#C9BB00"/>
<path d="M82.8326 3.95529C80.0676 3.96129 75.5446 4.00929 72.7806 4.06329L70.6906 4.10431C67.9266 4.15831 63.4046 4.26229 60.6416 4.33429L58.7046 4.38528C55.9416 4.45728 51.4246 4.3843 48.6676 4.2233L46.7166 4.10928C43.9596 3.94728 41.6736 3.75229 41.6376 3.67529C41.6016 3.59829 39.3396 3.82629 36.6116 4.18329L34.5306 4.45529C31.8026 4.81129 27.3416 4.79629 24.6166 4.42129L22.5786 4.1413C19.8546 3.7663 15.3636 3.4483 12.5986 3.4343L10.3956 3.42331C8.3036 3.41331 5.2226 3.56829 2.6626 3.79529C2.6366 4.21629 2.60059 4.63631 2.55859 5.05731C5.15859 4.81231 8.3646 4.68329 10.5246 4.76129L12.3216 4.82629C15.0836 4.92629 19.5616 5.35928 22.2726 5.79028L24.5676 6.1543C27.2786 6.5843 31.7266 6.63229 34.4516 6.26129L36.6636 5.95929C39.3886 5.58729 43.8716 5.4413 46.6256 5.6333L48.3216 5.75131L48.6646 5.7753C50.8946 5.9313 54.2666 6.0183 56.9406 6.0033C57.5686 5.9993 58.1696 5.99229 58.6956 5.97629L60.7346 5.91629C63.4976 5.83429 68.0196 5.78929 70.7836 5.81729L72.7876 5.83731C75.5516 5.86431 80.0756 5.8383 82.8386 5.7793L84.8656 5.73529C85.1306 5.72929 85.4236 5.72131 85.7176 5.71231C85.7066 5.67531 85.6946 5.63929 85.6846 5.60229C85.6066 5.30829 85.7186 4.66531 85.8416 3.94531C85.4876 3.95031 85.1456 3.95328 84.8316 3.95428L82.8326 3.95529Z" fill="#9B8E00"/>
<path d="M12.6442 20.0742C15.1812 20.1922 19.5092 20.1262 22.2632 19.9262L22.5512 19.9052C25.3042 19.7062 29.8052 19.3412 32.5522 19.0942L32.9132 19.0622C35.6602 18.8152 35.7702 18.0252 33.1572 17.3062L33.0692 17.2822C30.4562 16.5632 26.1682 15.4192 23.5392 14.7402C22.5282 14.4792 21.2522 14.2612 19.9102 14.1012C17.7652 13.8452 15.4472 13.7412 13.7542 13.8612L10.6652 14.0802C10.5242 14.0902 10.3612 14.0952 10.2112 14.1042C7.43924 14.2562 3.29024 14.1072 0.707245 13.7482L0.65625 13.7412C0.71925 14.0352 0.782245 14.3292 0.845245 14.6232C3.45925 14.9552 5.57024 15.1962 5.58524 15.1622C5.60124 15.1272 7.86724 14.9392 10.6202 14.7442L12.9272 14.5812L13.6512 14.5302C14.6942 14.4562 15.9732 14.4732 17.3002 14.5602C19.4762 14.7032 21.7842 15.0392 23.4072 15.4872L28.4242 16.8742C31.0362 17.5962 30.9232 18.3752 28.1742 18.6062L22.2412 19.1052C19.4922 19.3362 15.1722 19.3822 12.6412 19.2072C10.1112 19.0322 5.96323 18.7712 3.42523 18.6272C2.72123 18.5872 1.88623 18.5622 0.99823 18.5492C1.06223 18.8972 1.24224 19.2202 1.48224 19.5222C2.18724 19.5382 2.85222 19.5622 3.42422 19.5952C5.95822 19.7392 10.1072 19.9562 12.6442 20.0742Z" fill="#9B8E00"/>
<path d="M72.749 9.93032L70.723 9.86532C67.96 9.77732 63.439 9.67734 60.674 9.64334L58.748 9.62033C55.984 9.58633 51.494 9.24831 48.771 8.86831L46.545 8.55734C43.822 8.17734 39.367 8.18131 36.645 8.56631L34.511 8.86733C31.789 9.25233 27.351 9.18631 24.648 8.72131L22.438 8.34133C19.736 7.87633 15.306 7.84733 12.594 8.27633L10.331 8.63433C8.02402 8.99933 4.44602 9.37333 1.72702 9.54833C1.71902 9.57533 1.71301 9.60334 1.70401 9.63034C1.61501 9.90634 1.329 10.2063 1.005 10.1213C0.732005 10.0503 0.524 10.1853 0.375 10.3813L0.466003 10.3783C3.228 10.2793 7.72702 9.94333 10.464 9.63333L12.497 9.40234C14.916 9.12734 18.655 9.24831 21.34 9.65731C21.693 9.71131 22.032 9.76833 22.342 9.83233L24.667 10.3063C27.345 10.8533 31.747 10.9193 34.449 10.4533L36.706 10.0643C37.821 9.87233 39.232 9.76132 40.692 9.72332C41.682 9.69732 42.686 9.70832 43.648 9.75332C44.706 9.80332 45.709 9.89132 46.542 10.0283L48.576 10.3633C51.283 10.8093 53.528 11.0643 53.565 10.9293C53.602 10.7943 55.889 10.5693 58.648 10.4293L60.67 10.3263C63.429 10.1863 67.931 10.2973 70.673 10.5743L72.842 10.7933C75.585 11.0703 80.057 10.9843 82.779 10.6023L83.622 10.4843C83.398 10.4193 83.174 10.3533 82.95 10.2883C82.566 10.1763 82.1 9.95832 82.16 9.61932C82.171 9.55832 82.204 9.50832 82.242 9.46032C79.497 9.80332 75.36 10.0143 72.749 9.93032Z" fill="#9B8E00"/>
<path d="M70.8124 21.3144C68.0504 21.2234 65.7784 20.9954 65.7644 20.8084C65.7504 20.6214 63.4794 20.5544 60.7174 20.6614L58.7244 20.7384C55.9624 20.8444 51.4414 20.9454 48.6774 20.9634L46.6654 20.9764C43.9004 20.9934 41.6274 21.0024 41.6134 20.9944C41.5994 20.9874 39.3324 21.1194 36.5754 21.2874L34.5234 21.4124C31.7664 21.5804 27.2504 21.7814 24.4874 21.8584L22.5394 21.9124C19.7764 21.9894 15.2544 22.0144 12.4904 21.9674L10.4194 21.9324C8.9544 21.9074 6.99541 21.9074 5.06641 21.9264C5.09741 21.9724 5.1314 22.0174 5.1604 22.0644C5.2224 22.1634 5.41241 22.7514 5.54541 23.1854C7.31041 23.1994 9.0634 23.2454 10.4024 23.3234L11.4064 23.3824L12.4904 23.4454C15.2474 23.6064 19.7644 23.6854 22.5284 23.6204L24.6254 23.5714C26.4714 23.5284 29.0854 23.3794 31.4394 23.1964C32.6094 23.1054 33.7204 23.0064 34.6304 22.9074L36.5304 22.6994L36.6564 22.6854C39.0274 22.4254 42.7144 22.2974 45.4524 22.3624C45.5624 22.3654 45.6624 22.3694 45.7694 22.3724C46.0744 22.3814 46.3774 22.3914 46.6514 22.4064L48.7004 22.5154C51.4594 22.6614 55.9754 22.6994 58.7374 22.5994L60.6954 22.5284C63.4574 22.4284 67.9694 22.5154 70.7214 22.7214L72.7964 22.8764C74.3204 22.9904 76.3824 23.0834 78.3904 23.1394C78.5984 23.1454 78.8074 23.1514 79.0144 23.1564C79.0634 23.1574 79.1134 23.1594 79.1614 23.1604C79.4094 22.5864 79.6874 22.0344 80.2764 21.6734C77.7754 21.5634 74.8754 21.4484 72.8824 21.3824L70.8124 21.3144Z" fill="#9B8E00"/>
<path d="M14.8092 17.3356C15.0862 17.5046 15.4772 17.6487 15.9462 17.7637C17.3512 18.1097 19.4572 18.2026 21.3062 17.9506C21.8602 17.8756 22.3122 17.7826 22.6702 17.6796C22.8362 17.6316 22.9812 17.5816 23.1032 17.5296C23.8912 17.1936 23.7632 16.7856 22.5762 16.4596C20.8082 15.9756 17.8842 15.6987 16.0792 15.8447C14.9682 15.9347 14.3292 16.2236 14.2572 16.5896C14.2112 16.8186 14.3842 17.0766 14.8092 17.3356ZM17.3322 16.5666C18.3802 16.4906 19.7912 16.5717 20.4662 16.7457C20.9772 16.8777 20.8232 17.0756 20.1692 17.2436C19.9582 17.2976 19.6982 17.3487 19.3882 17.3937C18.1202 17.5757 16.7092 17.4946 16.2542 17.2146C16.0292 17.0766 16.0352 16.9356 16.2232 16.8186C16.4162 16.6986 16.8002 16.6046 17.3322 16.5666Z" fill="#9B8E00"/>
<path d="M24.3721 3.56841C24.3721 3.56841 23.3461 3.4434 21.6771 3.3264C20.0081 3.2084 17.6911 3.1234 15.1341 3.2054C12.5771 3.2904 10.2741 3.52542 8.62012 3.75142C6.96512 3.97642 5.95312 4.16741 5.95312 4.16741C5.95312 4.16741 6.99013 4.10742 8.66113 4.00942C10.3291 3.91442 12.6251 3.8104 15.1561 3.7264C17.6881 3.6454 19.9851 3.59941 21.6581 3.58641C23.3321 3.57541 24.3721 3.56841 24.3721 3.56841Z" fill="#E5DE0A"/>
<path d="M24.3731 3.56876C24.3731 3.56876 23.3411 3.49377 21.6701 3.42777C20.0001 3.36077 17.6901 3.32675 15.1431 3.40775C12.5961 3.49175 10.2961 3.67575 8.63614 3.85175C6.97614 4.02575 5.95312 4.16776 5.95312 4.16776C5.95312 4.16776 6.94712 3.89775 8.59412 3.59375C10.2391 3.28875 12.5471 2.97175 15.1201 2.88675C17.6921 2.80475 20.0221 2.96976 21.6891 3.16776C23.3581 3.36476 24.3731 3.56876 24.3731 3.56876Z" fill="#665D00"/>
<path d="M47.3466 6.20959C47.3466 6.20959 44.1536 5.97159 40.2086 5.80359C36.2636 5.63459 33.0586 5.59961 33.0586 5.59961C33.0586 5.59961 36.2326 6.15659 40.1776 6.32559C44.1236 6.49359 47.3466 6.20959 47.3466 6.20959Z" fill="#E5DE0A"/>
<path d="M47.3466 6.20935C47.3466 6.20935 44.1426 6.17435 40.1966 6.00635C36.2516 5.83735 33.0586 5.59937 33.0586 5.59937C33.0586 5.59937 36.2816 5.31535 40.2266 5.48435C44.1726 5.65235 47.3466 6.20935 47.3466 6.20935Z" fill="#665D00"/>
<path d="M45.0335 18.7119C45.0335 18.7119 44.3375 18.7199 43.2205 18.6509C42.1045 18.5829 40.5695 18.4049 38.9185 18.0409C37.2685 17.6729 35.8255 17.1909 34.8095 16.7859C33.7925 16.3819 33.1875 16.0859 33.1875 16.0859C33.1875 16.0859 33.7115 16.4929 34.6755 17.0209C35.6355 17.5479 37.0675 18.1689 38.7665 18.5479C40.4665 18.9229 42.0685 18.9749 43.2045 18.9129C44.3465 18.8509 45.0335 18.7119 45.0335 18.7119Z" fill="#E5DE0A"/>
<path d="M45.0325 18.712C45.0325 18.712 44.3405 18.771 43.2145 18.752C42.0905 18.735 40.5295 18.606 38.8595 18.238C37.1905 17.866 35.7515 17.33 34.7575 16.877C33.7615 16.425 33.1875 16.085 33.1875 16.085C33.1875 16.085 33.8415 16.299 34.8905 16.642C35.9395 16.972 37.3905 17.371 39.0105 17.731C40.6305 18.088 42.1245 18.343 43.2285 18.491C44.3395 18.628 45.0325 18.712 45.0325 18.712Z" fill="#665D00"/>
<path d="M13.7482 16.8779C13.7482 16.8779 11.6772 17.1839 9.15619 17.6849C6.63419 18.1849 4.61719 18.6899 4.61719 18.6899C4.61719 18.6899 6.77118 18.6949 9.29218 18.1949C11.8142 17.6939 13.7482 16.8779 13.7482 16.8779Z" fill="#E5DE0A"/>
<path d="M13.7482 16.8779C13.7482 16.8779 11.7302 17.3829 9.2092 17.8829C6.6872 18.3829 4.61719 18.6899 4.61719 18.6899C4.61719 18.6899 6.55218 17.8739 9.07318 17.3739C11.5942 16.8739 13.7482 16.8779 13.7482 16.8779Z" fill="#665D00"/>
<path d="M28.7767 21.6162C28.7767 21.6162 25.7187 21.8762 21.9407 21.9532C18.1627 22.0412 15.0938 21.9152 15.0938 21.9152C15.0938 21.9152 15.8487 22.0722 17.0877 22.2252C18.3247 22.3792 20.0497 22.5162 21.9567 22.4752C23.8637 22.4332 25.5777 22.2202 26.8047 22.0122C28.0317 21.8052 28.7767 21.6162 28.7767 21.6162Z" fill="#E5DE0A"/>
<path d="M28.7767 21.6161C28.7767 21.6161 25.7427 22.0781 21.9467 22.1571C18.1507 22.2451 15.0938 21.9161 15.0938 21.9161C15.0938 21.9161 18.1817 21.7221 21.9317 21.6351C25.6807 21.5571 28.7767 21.6161 28.7767 21.6161Z" fill="#665D00"/>
<path d="M60.837 3.56841C60.837 3.56841 59.811 3.4434 58.142 3.3264C56.473 3.2084 54.156 3.1234 51.599 3.2054C49.042 3.2904 46.739 3.52542 45.085 3.75142C43.43 3.97642 42.418 4.16741 42.418 4.16741C42.418 4.16741 43.455 4.10742 45.126 4.00942C46.795 3.91442 49.09 3.8104 51.621 3.7264C54.153 3.6454 56.45 3.59941 58.123 3.58641C59.797 3.57541 60.837 3.56841 60.837 3.56841Z" fill="#E5DE0A"/>
<path d="M60.838 3.56876C60.838 3.56876 59.8059 3.49377 58.1349 3.42777C56.4649 3.36077 54.155 3.32675 51.608 3.40775C49.061 3.49175 46.761 3.67575 45.101 3.85175C43.441 4.02575 42.418 4.16776 42.418 4.16776C42.418 4.16776 43.412 3.89775 45.059 3.59375C46.704 3.28875 49.012 2.97175 51.585 2.88675C54.157 2.80475 56.4869 2.96976 58.1539 3.16776C59.8229 3.36476 60.838 3.56876 60.838 3.56876Z" fill="#665D00"/>
<path d="M83.8115 6.20959C83.8115 6.20959 80.6185 5.97159 76.6735 5.80359C72.7285 5.63459 69.5234 5.59961 69.5234 5.59961C69.5234 5.59961 72.6975 6.15659 76.6435 6.32559C80.5885 6.49359 83.8115 6.20959 83.8115 6.20959Z" fill="#E5DE0A"/>
<path d="M83.8115 6.20935C83.8115 6.20935 80.6074 6.17435 76.6614 6.00635C72.7164 5.83735 69.5234 5.59937 69.5234 5.59937C69.5234 5.59937 72.7465 5.31535 76.6915 5.48435C80.6375 5.65235 83.8115 6.20935 83.8115 6.20935Z" fill="#665D00"/>
<path d="M81.4983 18.7119C81.4983 18.7119 80.8023 18.7199 79.6853 18.6509C78.5693 18.5829 77.0343 18.4049 75.3833 18.0409C73.7333 17.6729 72.2903 17.1909 71.2743 16.7859C70.2573 16.3819 69.6523 16.0859 69.6523 16.0859C69.6523 16.0859 70.1763 16.4929 71.1403 17.0209C72.1003 17.5479 73.5323 18.1689 75.2313 18.5479C76.9313 18.9229 78.5333 18.9749 79.6693 18.9129C80.8113 18.8509 81.4983 18.7119 81.4983 18.7119Z" fill="#E5DE0A"/>
<path d="M81.4973 18.712C81.4973 18.712 80.8043 18.771 79.6793 18.752C78.5553 18.735 76.9943 18.606 75.3243 18.238C73.6553 17.866 72.2164 17.33 71.2224 16.877C70.2264 16.425 69.6523 16.085 69.6523 16.085C69.6523 16.085 70.3063 16.299 71.3553 16.642C72.4043 16.972 73.8553 17.371 75.4753 17.731C77.0953 18.088 78.5894 18.343 79.6934 18.491C80.8044 18.628 81.4973 18.712 81.4973 18.712Z" fill="#665D00"/>
<path d="M65.2416 21.6162C65.2416 21.6162 62.1836 21.8762 58.4056 21.9532C54.6276 22.0412 51.5586 21.9152 51.5586 21.9152C51.5586 21.9152 52.3136 22.0722 53.5526 22.2252C54.7896 22.3792 56.5156 22.5162 58.4216 22.4752C60.3286 22.4332 62.0436 22.2202 63.2696 22.0122C64.4966 21.8052 65.2416 21.6162 65.2416 21.6162Z" fill="#E5DE0A"/>
<path d="M65.2416 21.6161C65.2416 21.6161 62.2076 22.0781 58.4116 22.1571C54.6156 22.2451 51.5586 21.9161 51.5586 21.9161C51.5586 21.9161 54.6466 21.7221 58.3966 21.6351C62.1466 21.5571 65.2416 21.6161 65.2416 21.6161Z" fill="#665D00"/>
<defs>
<radialGradient id="paint0_radial_843_2479" cx="0" cy="0" r="1" gradientUnits="userSpaceOnUse" gradientTransform="translate(83.8096 -51.6556) scale(140.164 111.504)">
<stop stop-color="#BFB000"/>
<stop offset="0.3463" stop-color="#BBAD00"/>
<stop offset="0.6599" stop-color="#B0A200"/>
<stop offset="0.96" stop-color="#9E9100"/>
<stop offset="1" stop-color="#9B8E00"/>
</radialGradient>
<radialGradient id="paint1_radial_843_2479" cx="0" cy="0" r="1" gradientUnits="userSpaceOnUse" gradientTransform="translate(83.8084 -51.6625) scale(140.175 111.514)">
<stop stop-color="#BFB000"/>
<stop offset="0.3463" stop-color="#BBAD00"/>
<stop offset="0.6599" stop-color="#B0A200"/>
<stop offset="0.96" stop-color="#9E9100"/>
<stop offset="1" stop-color="#9B8E00"/>
</radialGradient>
<radialGradient id="paint2_radial_843_2479" cx="0" cy="0" r="1" gradientUnits="userSpaceOnUse" gradientTransform="translate(83.8121 -51.66) scale(140.169 111.51)">
<stop stop-color="#BFB000"/>
<stop offset="0.3463" stop-color="#BBAD00"/>
<stop offset="0.6599" stop-color="#B0A200"/>
<stop offset="0.96" stop-color="#9E9100"/>
<stop offset="1" stop-color="#9B8E00"/>
</radialGradient>
<radialGradient id="paint3_radial_843_2479" cx="0" cy="0" r="1" gradientUnits="userSpaceOnUse" gradientTransform="translate(83.8103 -51.6578) scale(140.168 111.507)">
<stop stop-color="#BFB000"/>
<stop offset="0.3463" stop-color="#BBAD00"/>
<stop offset="0.6599" stop-color="#B0A200"/>
<stop offset="0.96" stop-color="#9E9100"/>
<stop offset="1" stop-color="#9B8E00"/>
</radialGradient>
<radialGradient id="paint4_radial_843_2479" cx="0" cy="0" r="1" gradientUnits="userSpaceOnUse" gradientTransform="translate(83.8086 -51.658) scale(140.168 111.507)">
<stop stop-color="#BFB000"/>
<stop offset="0.3463" stop-color="#BBAD00"/>
<stop offset="0.6599" stop-color="#B0A200"/>
<stop offset="0.96" stop-color="#9E9100"/>
<stop offset="1" stop-color="#9B8E00"/>
</radialGradient>
<radialGradient id="paint5_radial_843_2479" cx="0" cy="0" r="1" gradientUnits="userSpaceOnUse" gradientTransform="translate(83.8129 -51.6621) scale(140.175 111.512)">
<stop stop-color="#BFB000"/>
<stop offset="0.3463" stop-color="#BBAD00"/>
<stop offset="0.6599" stop-color="#B0A200"/>
<stop offset="0.96" stop-color="#9E9100"/>
<stop offset="1" stop-color="#9B8E00"/>
</radialGradient>
<radialGradient id="paint6_radial_843_2479" cx="0" cy="0" r="1" gradientUnits="userSpaceOnUse" gradientTransform="translate(83.8103 -51.6557) scale(140.161 111.503)">
<stop stop-color="#BFB000"/>
<stop offset="0.3463" stop-color="#BBAD00"/>
<stop offset="0.6599" stop-color="#B0A200"/>
<stop offset="0.96" stop-color="#9E9100"/>
<stop offset="1" stop-color="#9B8E00"/>
</radialGradient>
<radialGradient id="paint7_radial_843_2479" cx="0" cy="0" r="1" gradientUnits="userSpaceOnUse" gradientTransform="translate(83.8116 -51.7104) scale(140.309 111.609)">
<stop stop-color="#BFB000"/>
<stop offset="0.3463" stop-color="#BBAD00"/>
<stop offset="0.6599" stop-color="#B0A200"/>
<stop offset="0.96" stop-color="#9E9100"/>
<stop offset="1" stop-color="#9B8E00"/>
</radialGradient>
<radialGradient id="paint8_radial_843_2479" cx="0" cy="0" r="1" gradientUnits="userSpaceOnUse" gradientTransform="translate(83.8092 -51.6562) scale(140.165 111.505)">
<stop stop-color="#BFB000"/>
<stop offset="0.3463" stop-color="#BBAD00"/>
<stop offset="0.6599" stop-color="#B0A200"/>
<stop offset="0.96" stop-color="#9E9100"/>
<stop offset="1" stop-color="#9B8E00"/>
</radialGradient>
<radialGradient id="paint9_radial_843_2479" cx="0" cy="0" r="1" gradientUnits="userSpaceOnUse" gradientTransform="translate(83.8113 -51.6575) scale(140.168 111.507)">
<stop stop-color="#BFB000"/>
<stop offset="0.3463" stop-color="#BBAD00"/>
<stop offset="0.6599" stop-color="#B0A200"/>
<stop offset="0.96" stop-color="#9E9100"/>
<stop offset="1" stop-color="#9B8E00"/>
</radialGradient>
<radialGradient id="paint10_radial_843_2479" cx="0" cy="0" r="1" gradientUnits="userSpaceOnUse" gradientTransform="translate(83.8107 -51.6574) scale(140.166 111.506)">
<stop stop-color="#BFB000"/>
<stop offset="0.3463" stop-color="#BBAD00"/>
<stop offset="0.6599" stop-color="#B0A200"/>
<stop offset="0.96" stop-color="#9E9100"/>
<stop offset="1" stop-color="#9B8E00"/>
</radialGradient>
<radialGradient id="paint11_radial_843_2479" cx="0" cy="0" r="1" gradientUnits="userSpaceOnUse" gradientTransform="translate(83.8105 -51.6607) scale(140.17 111.511)">
<stop stop-color="#BFB000"/>
<stop offset="0.3463" stop-color="#BBAD00"/>
<stop offset="0.6599" stop-color="#B0A200"/>
<stop offset="0.96" stop-color="#9E9100"/>
<stop offset="1" stop-color="#9B8E00"/>
</radialGradient>
<radialGradient id="paint12_radial_843_2479" cx="0" cy="0" r="1" gradientUnits="userSpaceOnUse" gradientTransform="translate(83.8104 -51.5898) scale(140.047 111.409)">
<stop stop-color="#BFB000"/>
<stop offset="0.3463" stop-color="#BBAD00"/>
<stop offset="0.6599" stop-color="#B0A200"/>
<stop offset="0.96" stop-color="#9E9100"/>
<stop offset="1" stop-color="#9B8E00"/>
</radialGradient>
</defs>
</svg>
