<svg width="201" height="74" viewBox="0 0 201 74" fill="none" xmlns="http://www.w3.org/2000/svg">
<path d="M200.64 58.2226C200.53 56.7126 200.43 55.2026 200.34 53.6926C200.24 52.1026 200.15 50.5126 200.06 48.9226C200 47.8326 199.91 46.6826 199.88 45.5626C199.86 44.6226 200.24 43.0926 199.73 42.2526C199.43 41.7526 198.78 41.6026 198.21 41.5026C197.45 41.3726 196.7 41.2326 195.94 41.1026C196.95 40.8726 197.95 40.5726 198.93 40.2026C199.15 40.1226 199.38 40.0326 199.52 39.8426C199.65 39.6826 199.69 39.4626 199.72 39.2626C200.06 37.1926 199.84 34.9926 199.83 32.9026L199.8 26.4926C199.79 24.4626 199.78 22.4326 199.77 20.3926C199.77 19.7226 200.05 18.2626 199.72 17.6626C199.45 17.1726 198.82 17.2026 198.32 17.1526C197.82 17.1026 197.31 17.1026 196.81 17.1326C196.06 17.1826 195.31 17.2926 194.57 17.4126C195.54 17.1426 196.55 17.0126 197.53 16.7726C198.17 16.6226 198.8 16.4126 199.37 16.1126C199.72 15.9226 200.11 15.7526 200.31 15.3926C200.39 15.2426 200.43 15.0526 200.47 14.8826C200.55 14.5126 200.58 14.1226 200.6 13.7426C200.66 12.6926 200.71 11.6326 200.72 10.5826C200.72 10.0526 200.74 9.51263 200.72 8.98263C200.72 8.63263 200.58 8.31261 200.55 7.96261C200.42 6.52261 199.84 5.15263 198.91 4.04263C197.99 2.94263 196.73 2.14262 195.34 1.78262C194.83 1.64262 194.3 1.57261 193.77 1.55261C131.22 -0.467394 69.8702 -0.547383 9.85023 1.53262C9.62023 1.53262 9.35023 1.52263 9.13023 1.57263C8.89023 1.63263 8.64022 1.73262 8.40022 1.81262C7.91022 1.98262 7.42022 2.17261 6.95022 2.40261C6.03022 2.84261 5.17023 3.43261 4.58023 4.27261C4.24023 4.75261 4.00023 5.30261 3.69023 5.80261C3.53023 6.05261 3.32023 6.24263 3.19023 6.51263C2.55023 7.78263 1.91022 9.07263 1.04022 10.2026C0.180221 11.3026 -0.0797682 13.0426 0.0202318 14.3926C0.150232 16.2226 0.200228 18.0826 0.360228 19.9126C0.620228 22.8326 0.380224 25.7526 0.700224 28.6926C0.750224 29.1126 0.810232 29.5726 1.13023 29.8526C1.35023 30.0426 1.65022 30.1126 1.93022 30.1726C2.85022 30.3726 3.78022 30.5726 4.70022 30.7726C3.56022 31.5126 1.85023 31.5726 1.25023 32.7926C1.06023 33.1826 1.02023 33.6326 0.990233 34.0726C0.880233 35.6326 0.730232 37.1926 0.630232 38.7526C0.580232 39.4526 0.540232 40.1526 0.520232 40.8626C0.500232 41.5326 0.440232 42.1726 0.380232 42.8426C0.230232 44.3926 -0.159775 46.4126 0.310225 47.9326C0.770225 49.4026 2.60023 49.4626 3.86023 49.8126C3.19023 49.8926 2.68022 50.4326 2.29022 50.9726C2.09022 51.2426 1.96023 51.5426 1.77023 51.8226C1.61023 52.0726 1.46023 52.3226 1.32023 52.5826C1.05023 53.1126 0.830226 53.6626 0.670226 54.2326C0.560226 54.6126 0.500233 54.9126 0.490233 55.3126C0.470233 55.6626 0.460224 56.0226 0.450224 56.3726C0.420224 57.0826 0.400227 57.7926 0.390227 58.5026C0.360227 59.9226 0.350228 61.3426 0.360228 62.7626C0.370228 64.1326 0.0502324 65.4726 0.630232 66.8226C1.21023 68.1626 2.20022 69.3226 3.45022 70.0826C4.46022 70.7026 5.60023 71.0226 6.78023 71.0926C67.1502 73.7426 128.51 73.7026 190.83 71.0726C192.48 71.0026 194.06 70.3426 195.27 69.2326C195.85 68.6926 196.36 68.2226 196.79 67.5526C197.32 66.7326 197.81 65.8926 198.27 65.0326C199.39 62.9426 200.8 60.6326 200.62 58.2126L200.64 58.2226Z" fill="url(#paint0_linear_852_674)"/>
<path d="M193.922 65.7824C131.602 68.4024 70.2415 68.4424 9.88154 65.7924C7.20154 65.7924 4.69153 63.8724 3.70153 61.4524C3.26153 60.3824 3.16153 59.2124 3.23153 58.0624C3.23153 57.8624 3.26154 57.6624 3.32154 57.4624C3.41154 57.1524 3.55153 56.8824 3.59153 56.5524C3.61153 56.3824 3.63153 56.2224 3.65153 56.0524C3.75153 55.1424 3.78154 54.2024 3.86154 53.2824C3.91154 52.7724 3.97154 52.2224 4.11154 51.7324C4.27154 51.1624 4.53154 50.6324 5.00154 50.2824C6.99154 48.7924 10.8715 48.8124 13.7715 48.7524C14.3315 48.7324 14.8615 48.7224 15.3315 48.6924C16.5915 48.6124 17.8415 48.5824 19.1115 48.5924C16.1215 48.5824 13.1415 48.3224 10.2015 47.8124C8.80153 47.5824 7.41154 47.2824 6.05154 46.9324C5.72154 46.8524 5.37154 46.7424 5.05154 46.5924C4.62154 46.4024 4.25154 46.1224 4.05154 45.6924C3.89154 45.3324 3.90154 44.9324 3.91154 44.5424C3.92154 44.1724 3.87154 43.7924 3.89154 43.4124C3.92154 42.6224 4.02154 41.8424 4.10154 41.0624C4.18154 40.4324 4.25153 39.7824 4.29153 39.1424C4.39153 37.4324 4.50154 35.7324 4.63154 34.0324C4.67154 33.5224 4.73153 32.9524 5.09153 32.5924C5.31153 32.3724 5.59153 32.2624 5.87153 32.1624C6.63153 31.8824 7.42154 31.6724 8.22154 31.5424C8.59154 31.4724 8.99154 31.4724 9.36154 31.3724C9.78154 31.2424 10.1115 31.1524 10.5815 31.1024C14.9815 30.5924 19.3815 30.0724 23.7815 29.5624C24.3015 29.5024 24.8415 29.4424 25.3615 29.3824C18.7215 28.5824 12.0915 27.7524 5.45153 26.9524C5.16153 26.9124 4.87154 26.8824 4.58154 26.8424C4.32154 26.8124 4.04154 26.7724 3.86154 26.5824C3.84154 26.5724 3.83154 26.5524 3.82154 26.5424C3.69154 26.3724 3.67153 26.1524 3.65153 25.9324C3.35153 22.3424 3.69154 18.6424 3.49154 15.0224C3.47154 14.8224 3.42154 13.8024 3.36154 12.6624C3.27154 11.0024 3.16154 9.09241 3.11154 9.09241C2.83154 5.11241 5.89154 1.67242 9.88154 1.54242C69.8915 -0.537578 131.242 -0.467599 193.792 1.5524C197.802 1.6824 200.892 5.1424 200.582 9.1424C200.472 10.5124 200.742 11.8124 200.412 13.1924C200.342 13.5124 200.232 13.8424 199.992 14.0624C199.772 14.2524 199.482 14.3224 199.192 14.3924C198.442 14.5724 197.682 14.7624 196.922 14.9424C195.912 15.1824 194.922 15.4024 193.902 15.5124C187.872 16.1524 181.842 16.8024 175.822 17.4524C175.662 17.4624 175.502 17.4824 175.342 17.5024C175.152 17.5224 174.952 17.5424 174.762 17.5624C175.242 17.5524 175.722 17.5424 176.202 17.5424C183.752 17.4124 191.322 17.2924 198.872 17.1624C199.082 17.1624 199.312 17.1624 199.482 17.2924C199.672 17.4324 199.722 17.6924 199.752 17.9324C199.792 18.2524 199.802 18.5624 199.792 18.8724C199.782 19.8324 199.612 20.7524 199.612 21.7324C199.612 22.5924 199.822 23.4424 199.812 24.3124C199.792 25.5824 199.752 26.8524 199.702 28.1524C199.582 31.0624 199.382 34.0024 199.062 36.9124C199.012 37.3324 198.952 37.7824 198.672 38.1024C198.452 38.3424 198.132 38.4724 197.822 38.5724C197.632 38.6424 197.432 38.7024 197.232 38.7424C192.802 40.0124 187.932 39.0024 183.372 39.7924C183.072 39.8324 182.772 39.8924 182.482 39.9624C182.382 39.9824 182.282 40.0124 182.182 40.0324C182.552 40.0624 182.922 40.0824 183.302 40.1224C188.292 40.4824 193.262 40.9824 198.222 41.6224C198.802 41.6924 199.452 41.8024 199.792 42.2724C200.052 42.6324 200.062 43.1124 200.062 43.5624V45.0324C200.062 46.5124 200.062 48.0024 200.132 49.4724C200.222 51.4324 200.342 53.3824 200.472 55.3424C200.532 56.3024 200.592 57.2624 200.662 58.2224C200.952 62.1824 197.912 65.6124 193.942 65.7824H193.922Z" fill="url(#paint1_linear_852_674)"/>
<path d="M199.808 24.3127C199.788 25.5827 199.748 26.8527 199.698 28.1527C197.148 28.3827 194.628 28.5827 192.178 28.8527C191.608 28.9127 191.038 28.9827 190.468 29.0427C188.358 29.2627 186.238 29.4627 184.118 29.6527C183.058 29.7427 181.998 29.8227 180.938 29.9127C180.268 29.9727 179.658 30.2327 178.998 30.3127C178.078 30.4127 177.068 30.1727 176.148 30.1227C175.118 30.0627 174.078 30.0427 173.048 30.0527C170.968 30.0727 168.888 30.2327 166.828 30.4727C162.688 30.9427 158.588 31.7327 154.488 32.4127C147.908 33.5127 141.278 34.3427 134.628 34.9027C138.248 35.2627 141.848 35.8527 145.398 36.6727C144.068 36.7827 142.738 36.8727 141.408 36.9627C137.178 37.2227 132.948 37.3627 128.708 37.4327C124.468 37.5027 120.228 37.5027 115.988 37.5027C111.748 37.5027 107.508 37.4827 103.268 37.5227C99.0284 37.5627 94.7985 37.6527 90.5685 37.8527C88.4485 37.9527 86.3385 38.0827 84.2285 38.2427C83.6985 38.2827 83.1684 38.3227 82.6484 38.3727C82.0084 38.4327 81.3984 38.6127 80.7484 38.6827C75.6984 39.2727 70.6584 40.0127 65.6584 41.0027C57.8984 42.5327 50.0984 44.0227 42.2084 44.5627C40.7784 44.6527 39.3484 44.7427 37.9284 44.8327C31.1284 46.2027 23.7884 46.4827 17.1284 47.2927C14.8684 47.5727 12.5484 47.7227 10.2384 47.8127C8.83845 47.5827 7.44844 47.2827 6.08844 46.9327C5.75844 46.8527 5.40844 46.7427 5.08844 46.5927C4.65844 46.4027 4.28844 46.1227 4.08844 45.6927C3.92844 45.3327 3.93844 44.9327 3.94844 44.5427C3.95844 44.1727 3.90844 43.7927 3.92844 43.4127C3.95844 42.6227 4.05844 41.8427 4.13844 41.0627C10.2384 40.5627 16.4984 38.7927 22.3684 37.9427C29.9084 36.8627 37.5784 36.2227 45.1884 35.8027C53.7984 35.3327 62.3685 36.3427 70.9485 36.3427C78.8885 36.3427 86.8285 35.6527 94.7285 35.0127C110.128 33.7627 125.518 32.4827 140.908 31.1427C137.558 31.0827 134.208 30.9927 130.868 30.8827C126.598 30.7327 122.338 30.5427 118.068 30.3227C117.078 30.2727 116.058 30.1427 115.068 30.2527C114.048 30.3727 113.018 30.4027 111.998 30.3827C109.968 30.3527 107.938 30.0927 105.968 29.6127C104.808 29.3227 103.668 28.9627 102.488 28.7527C100.498 28.4027 98.4685 28.5127 96.4485 28.4927C88.9185 28.3927 81.4884 26.4027 73.9584 26.4827C71.9784 26.5027 70.0085 26.6627 68.0385 26.8427C65.9485 27.0327 63.8484 27.2227 61.7484 27.2827C60.8184 27.3027 59.8485 27.3727 58.9485 27.1627C58.2485 26.9927 57.4584 27.0827 56.7384 27.0627C55.4684 27.0327 54.1885 26.9927 52.9185 26.9727C50.3685 26.9227 47.8184 26.8827 45.2684 26.8727C35.6084 26.8227 25.9584 27.3627 16.2984 27.2827C12.1784 27.2527 7.97844 27.1627 3.89844 26.5727C3.87844 26.5627 3.86844 26.5427 3.85844 26.5327C3.72844 26.3627 3.70845 26.1427 3.68845 25.9227C3.38845 22.3327 3.72844 18.6327 3.52844 15.0127C3.50844 14.8127 3.45844 13.7927 3.39844 12.6527C8.32844 12.2327 13.2884 12.1227 18.2184 11.7627C27.8684 11.0527 37.5284 10.7427 47.2184 10.7827C66.4284 10.8727 85.5785 12.1027 104.728 13.5627C123.888 15.0227 142.998 16.8127 162.158 18.1727C171.838 18.8527 181.538 19.2827 191.238 19.2827C194.088 19.2827 196.948 19.1127 199.828 18.8927C199.818 19.8527 199.648 20.7727 199.648 21.7527C199.648 22.6127 199.858 23.4627 199.848 24.3327L199.808 24.3127ZM200.108 49.4727C200.038 47.9927 200.038 46.5027 200.038 45.0327C193.928 44.3727 187.798 43.6827 181.648 43.2627C171.098 42.5427 160.518 42.6527 149.958 43.0827C147.758 43.1727 145.598 43.2227 143.428 43.5027C142.378 43.6427 141.328 43.7627 140.268 43.8927C136.058 44.3927 131.828 44.8027 127.598 45.1227C125.948 45.2527 124.298 45.3627 122.648 45.4627C126.928 45.4327 131.208 45.4027 135.478 45.3727C139.758 45.3427 144.038 45.3127 148.308 45.2827C150.448 45.2627 152.588 45.2527 154.728 45.2327C155.798 45.2327 156.868 45.2127 157.938 45.2127C158.388 45.2127 158.848 45.2427 159.298 45.1427C159.568 45.0827 159.828 44.9727 160.098 44.9327C161.058 44.7927 162.128 44.9827 163.088 45.0327C164.148 45.0927 165.208 45.1527 166.268 45.2127C168.388 45.3427 170.508 45.4927 172.628 45.6427C175.968 45.8927 179.308 46.1727 182.638 46.4727C186.278 46.8027 189.898 47.2227 193.518 47.6727C185.288 48.4527 177.068 49.2727 168.818 49.7227C149.848 50.7727 130.858 52.0827 111.858 51.7127C93.1184 51.3427 74.4084 50.2627 55.6584 50.3327C45.7784 50.3627 35.8985 50.5227 26.0385 50.8127C18.7585 51.0227 11.3784 50.9827 4.10844 51.7427C3.96844 52.2327 3.90844 52.7827 3.85844 53.2927C3.77844 54.2127 3.74844 55.1427 3.64844 56.0627C11.7384 56.3927 19.9385 55.8427 28.0085 55.8227C37.8785 55.8027 47.7584 55.9027 57.6284 56.1327C76.3384 56.5727 95.0384 57.6127 113.748 57.9427C132.778 58.2827 151.788 56.9127 170.778 55.9627C180.568 55.4727 190.438 55.4627 200.238 55.3627H200.438C200.308 53.4027 200.188 51.4527 200.098 49.4927L200.108 49.4727Z" fill="url(#paint2_linear_852_674)"/>
<path d="M149.261 15.0527C145.351 12.8727 138.871 13.5427 135.781 16.4827C133.831 18.3327 133.731 21.7927 135.781 23.6327C140.291 27.6927 148.201 25.9627 151.061 20.9327C151.111 20.8827 151.171 20.8327 151.221 20.7827C153.401 18.8127 151.851 15.5327 149.261 15.0427V15.0527Z" fill="#EB924D"/>
<path d="M150.191 13.1328C146.281 10.9528 139.801 11.6228 136.711 14.5628C134.761 16.4128 134.661 19.8728 136.711 21.7128C141.221 25.7728 149.131 24.0428 151.991 19.0128C152.041 18.9628 152.101 18.9128 152.151 18.8628C154.331 16.8928 152.781 13.6128 150.191 13.1228V13.1328Z" fill="url(#paint3_linear_852_674)"/>
<path d="M149.261 14.373C145.351 12.193 138.871 12.863 135.781 15.803C133.831 17.653 133.731 21.113 135.781 22.953C140.291 27.013 148.201 25.283 151.061 20.253C151.111 20.203 151.171 20.153 151.221 20.103C153.401 18.133 151.851 14.853 149.261 14.363V14.373Z" fill="url(#paint4_linear_852_674)"/>
<path d="M76.0115 47.5722C72.1015 45.3922 65.6215 46.0622 62.5315 49.0022C60.5815 50.8522 60.4815 54.3122 62.5315 56.1522C67.0415 60.2122 74.9515 58.4823 77.8115 53.4523C77.8615 53.4023 77.9215 53.3522 77.9715 53.3022C80.1515 51.3322 78.6015 48.0522 76.0115 47.5622V47.5722Z" fill="#EB924D"/>
<path d="M76.9333 45.6523C73.0233 43.4723 66.5434 44.1423 63.4534 47.0823C61.5034 48.9323 61.4034 52.3923 63.4534 54.2323C67.9634 58.2923 75.8734 56.5623 78.7334 51.5323C78.7834 51.4823 78.8434 51.4323 78.8934 51.3823C81.0734 49.4123 79.5233 46.1323 76.9333 45.6423V45.6523Z" fill="url(#paint5_linear_852_674)"/>
<path d="M76.0115 46.8925C72.1015 44.7125 65.6215 45.3826 62.5315 48.3226C60.5815 50.1726 60.4815 53.6326 62.5315 55.4726C67.0415 59.5326 74.9515 57.8026 77.8115 52.7726C77.8615 52.7226 77.9215 52.6726 77.9715 52.6226C80.1515 50.6526 78.6015 47.3726 76.0115 46.8826V46.8925Z" fill="url(#paint6_linear_852_674)"/>
<path d="M4.83149 44.3927C4.81149 45.1227 4.81149 45.8927 5.05149 46.5827C4.62149 46.3927 4.25149 46.1127 4.05149 45.6827C3.89149 45.3227 3.90149 44.9227 3.91149 44.5327C3.92149 44.1627 3.87149 43.7827 3.89149 43.4027C3.95149 41.9627 4.21148 40.5528 4.29148 39.1328C4.39148 37.4228 4.50149 35.7227 4.63149 34.0227C4.67149 33.5127 4.73149 32.9427 5.09149 32.5827C5.31149 32.3627 5.59148 32.2527 5.87148 32.1527C6.63148 31.8727 7.42149 31.6627 8.22149 31.5327C8.59149 31.4627 8.99149 31.4627 9.36149 31.3627C9.78149 31.2327 10.1115 31.1427 10.5815 31.0927C14.9815 30.5827 19.3815 30.0627 23.7815 29.5527C19.0515 30.5127 14.3315 31.4528 9.60149 32.4128C8.68149 32.5928 7.45148 32.5827 6.68148 33.1927C6.39148 33.4227 6.13149 33.7627 5.89149 34.0527C5.82149 34.1427 5.16149 35.4627 5.41149 35.4727C8.88149 35.5927 12.3615 35.7028 15.8315 35.8228C13.2615 36.2428 10.6915 36.7027 8.14149 37.2227C6.85149 37.4827 5.3915 37.8827 4.8215 39.0627C4.4615 39.8127 4.49149 40.8127 4.61149 41.6227C4.65149 41.8927 4.74149 42.1527 4.80149 42.4227C4.93149 43.0727 4.8315 43.7527 4.8215 44.4027L4.83149 44.3927Z" fill="#EB924D"/>
<path d="M175.329 17.5031C175.059 17.4831 174.799 17.4731 174.539 17.4531H175.819C175.659 17.4631 175.499 17.4831 175.339 17.5031H175.329Z" fill="#EB924D"/>
<path d="M179.68 39.4629C180.91 39.5829 182.13 39.6929 183.36 39.7829C183.06 39.8229 182.76 39.8829 182.47 39.9529C181.53 39.7829 180.6 39.6129 179.68 39.4629Z" fill="#EB924D"/>
<path d="M197.779 37.6429C197.969 36.8829 197.919 36.0729 197.859 35.2929C197.749 33.8329 197.639 32.3729 197.529 30.9229C197.509 30.6429 197.469 30.3329 197.249 30.1629C197.069 30.0229 196.819 30.0229 196.599 30.0329C194.769 30.0929 192.949 30.1529 191.129 30.2129C193.099 30.0429 195.049 29.5229 196.829 28.6629C197.339 28.4129 197.879 28.1029 198.069 27.5729C198.169 27.3029 198.169 27.0129 198.169 26.7229C198.139 24.4329 197.739 21.8629 197.469 19.5929C196.609 18.7829 195.319 18.6629 194.139 18.5929C189.369 18.3029 184.599 18.0129 179.829 17.7229C178.689 17.6429 177.419 17.6029 176.199 17.5529C183.749 17.4229 191.319 17.3029 198.869 17.1729C199.079 17.1729 199.309 17.1729 199.479 17.3029C199.669 17.4429 199.719 17.7029 199.749 17.9429C199.909 19.2429 199.609 20.4429 199.609 21.7329C199.609 22.5929 199.819 23.4429 199.809 24.3129C199.739 28.4229 199.519 32.7229 199.059 36.9129C199.009 37.3329 198.949 37.7829 198.669 38.1029C198.449 38.3429 198.129 38.4729 197.819 38.5729C197.629 38.6429 197.429 38.7029 197.229 38.7429C197.499 38.4329 197.689 38.0429 197.789 37.6429H197.779Z" fill="#EB924D"/>
<path d="M3.49154 15.0127C3.46154 14.5227 3.19154 9.08263 3.11154 9.08263C2.83154 5.10263 5.89154 1.66264 9.88154 1.53264C69.8915 -0.547358 131.242 -0.477349 193.792 1.54265C197.802 1.67265 200.892 5.13265 200.582 9.13265C200.472 10.5026 200.742 11.8026 200.412 13.1826C200.342 13.5026 200.232 13.8326 199.992 14.0526C199.772 14.2426 199.482 14.3126 199.192 14.3826C198.442 14.5626 197.692 14.7726 196.932 14.9326C197.582 14.3426 198.332 13.6427 198.642 12.7927C198.852 12.2127 198.682 11.7126 198.482 11.1626C198.182 10.3126 198.132 9.49264 198.092 8.59264C198.052 7.48264 198.242 5.89265 197.362 5.01265C196.702 4.35265 195.822 3.76265 194.992 3.35265C192.932 2.34265 190.552 2.13265 188.292 2.04265C188.182 2.04265 188.062 2.04264 187.952 2.03264C183.772 1.89264 179.582 1.88264 175.422 2.31264C174.912 2.36264 174.472 2.50265 173.982 2.60265C173.372 2.72265 172.652 2.57265 172.032 2.54265C170.612 2.47265 169.202 2.40265 167.782 2.35265C164.952 2.24265 162.112 2.17263 159.272 2.14263C157.142 2.11263 155.022 2.11263 152.892 2.11263C152.222 2.11263 151.552 2.11263 150.882 2.11263C149.592 2.11263 148.302 2.11263 147.012 2.11263C145.222 2.11263 143.432 2.11265 141.642 2.10265C141.552 2.10265 141.472 2.10265 141.382 2.10265C138.542 2.10265 135.712 2.09263 132.872 2.08263H128.612C127.962 2.08263 127.242 2.16265 126.602 2.04265C125.952 1.92265 125.432 1.53264 124.742 1.47264C124.122 1.41264 123.492 1.52265 122.882 1.57265C121.332 1.69265 119.792 1.84265 118.242 2.01265C117.542 2.09265 116.782 2.20264 116.312 2.72264C116.152 2.90264 116.032 3.12265 115.832 3.26265C115.402 3.57265 114.802 3.37265 114.292 3.19265C113.292 2.83265 112.232 2.64264 111.162 2.59264C110.202 2.55264 109.252 2.72265 108.292 2.66265C107.692 2.62265 107.102 2.48263 106.512 2.36263C104.182 1.90263 101.732 1.87265 99.3715 1.70265C97.6215 1.57265 95.8615 1.48263 94.1015 1.42263C88.4315 1.22263 82.7515 1.33265 77.0815 1.57265C74.2415 1.69265 71.4115 1.84265 68.5715 2.01265C67.2715 2.09265 65.8315 2.36265 64.5415 2.19265C64.1715 2.14265 63.8215 1.99263 63.4515 1.92263C63.0615 1.85263 62.6715 1.86263 62.2815 1.86263C60.7115 1.87263 59.1315 1.89264 57.5615 1.90264C55.7215 1.91264 53.8715 1.90264 52.0215 1.90264C51.4015 1.90264 50.8015 2.02264 50.1915 2.03264C49.6315 2.03264 49.0815 1.91265 48.5215 1.91265C47.3515 1.92265 46.1915 2.15264 45.1115 2.59264C44.6915 2.76264 44.2615 2.97265 43.8115 2.94265C42.9815 2.89265 42.4115 2.11265 41.6615 1.76265C39.8815 0.912652 38.0415 2.53264 36.2315 1.87264C35.3315 1.54264 34.4015 1.59263 33.4515 1.58263C32.2415 1.57263 31.0215 1.56265 29.8115 1.57265C25.7015 1.59265 21.5815 1.73263 17.4915 2.14263C15.4515 2.35263 13.4215 2.62265 11.4015 2.98265C10.4215 3.15265 9.43154 3.44263 8.44154 3.55263C8.13154 3.59263 7.91154 3.58263 7.64154 3.77263C6.44154 4.62263 3.11153 9.34264 5.48153 11.0026C6.25153 11.5426 7.26153 11.5526 8.20153 11.5326C14.2615 11.4526 20.3115 11.3626 26.3715 11.2826C19.8315 11.8026 13.2915 12.3226 6.76153 12.8426C6.34153 12.8726 5.90153 12.9126 5.53153 13.1126C4.27153 13.7926 4.70154 15.3826 4.52154 16.5326C4.28154 18.0326 4.58154 19.6626 4.72154 21.1726C4.91154 23.1026 5.14153 25.0327 5.43153 26.9527C5.14153 26.9127 4.85153 26.8826 4.56153 26.8426C4.28153 26.8126 3.98154 26.7627 3.80154 26.5427C3.67154 26.3727 3.65154 26.1526 3.63154 25.9326C3.33154 22.3426 3.67154 18.6426 3.47154 15.0226L3.49154 15.0127Z" fill="#EB924D"/>
<path d="M193.921 65.7831C131.601 68.4031 70.2413 68.4431 9.88127 65.7931C7.20127 65.7931 4.69126 63.8731 3.70126 61.4531C3.26126 60.3831 3.16126 59.213 3.23126 58.063C3.23126 57.863 3.26127 57.663 3.32127 57.463C3.41127 57.153 3.55126 56.883 3.59126 56.553C3.74126 55.473 3.77127 54.3731 3.86127 53.2831C3.96127 52.1831 4.12126 50.9531 5.01126 50.2831C7.00126 48.7931 10.8813 48.8131 13.7813 48.7531C16.1413 48.7831 18.5013 48.803 20.9013 48.933C20.2013 48.933 19.5813 49.2631 18.9013 49.3231C17.9713 49.4131 17.0313 49.4331 16.1013 49.4831C14.2613 49.5931 12.4213 49.703 10.5913 49.803C9.31126 49.873 8.02126 49.953 6.81126 50.343C6.35126 50.493 5.89126 50.6931 5.56126 51.0431C5.20126 51.4231 5.03126 51.953 4.90126 52.463C4.65126 53.453 4.33126 54.6431 4.48126 55.6631C4.53126 55.9731 4.64126 56.263 4.68126 56.563C4.72126 56.903 4.68126 57.2331 4.68126 57.5731C4.64126 58.7131 4.72127 59.873 5.19127 60.923C6.32127 63.433 9.26127 64.5331 11.9713 65.0331C15.2813 65.6331 18.0613 66.2131 21.4013 65.7531C26.2813 65.8031 31.1613 65.853 36.0313 65.903C38.8813 65.933 41.7313 65.9731 44.5913 65.9831C45.0713 65.9831 45.5013 65.833 45.9713 65.833C46.6613 65.833 47.3613 65.9531 48.0513 66.0031C49.4513 66.1031 50.8613 66.1831 52.2613 66.2331C55.7013 66.3531 59.1513 66.2931 62.5913 66.0731C63.4113 66.0231 64.2013 65.8731 65.0013 66.1031C66.1513 66.4431 67.3613 66.4331 68.5513 66.4831C71.3813 66.6131 74.2113 66.6231 77.0413 66.5331C77.7213 66.5131 78.4013 66.4831 79.0813 66.4431C80.1713 66.3831 81.2713 66.3131 82.2813 65.9131C82.8013 65.7031 83.2913 65.413 83.8313 65.273C85.3713 64.853 86.9413 65.633 88.4413 66.183C90.3813 66.903 92.5113 66.5631 94.5413 66.6931C97.3113 66.8831 99.9713 67.073 102.741 66.713C102.761 66.713 102.791 66.713 102.811 66.713C104.111 66.543 105.411 66.243 106.601 65.673C107.221 65.373 107.851 65.0031 108.531 65.0131C109.361 65.0331 110.051 65.6031 110.771 66.0331C113.011 67.3731 115.791 67.343 118.381 67.053C120.591 66.803 122.821 66.403 125.051 66.623C125.971 66.713 126.861 66.583 127.791 66.593C128.941 66.593 130.101 66.603 131.251 66.613C140.761 66.663 150.281 66.693 159.791 66.373C163.801 66.243 167.821 66.043 171.841 65.773C173.961 65.633 176.081 65.473 178.211 65.303C179.271 65.213 180.321 65.113 181.391 65.023C184.591 64.723 187.821 64.7431 191.021 64.5131C192.941 64.3731 194.951 64.1631 196.571 63.1031C197.501 62.5031 198.231 61.553 198.551 60.493C198.711 59.983 198.771 59.423 198.681 58.893C198.631 58.633 198.531 58.393 198.521 58.143C198.501 57.223 198.501 56.3031 198.491 55.3831C198.491 53.9531 198.631 52.4731 198.431 51.0731C198.411 50.9131 198.381 50.7431 198.271 50.6331C198.181 50.5431 198.051 50.503 197.921 50.463C197.381 50.313 196.841 50.1631 196.311 50.0131C197.021 49.6631 197.821 49.2431 198.071 48.4831C198.191 48.1431 198.181 47.783 198.171 47.423C198.151 46.573 198.121 45.683 197.791 44.903C197.451 44.123 197.391 43.473 196.561 43.243C192.341 42.073 187.751 40.983 183.311 40.123C188.301 40.483 193.271 40.983 198.231 41.623C198.811 41.693 199.461 41.803 199.801 42.273C200.061 42.633 200.071 43.113 200.071 43.563C200.071 45.533 200.051 47.5031 200.141 49.4731C200.281 52.3931 200.461 55.3031 200.671 58.2231C200.961 62.1831 197.921 65.6131 193.951 65.7831H193.921Z" fill="#EB924D"/>
<path d="M85.7095 11.9026C79.1195 13.0326 72.3295 12.9726 65.7695 11.7126C72.4095 11.3526 79.0695 11.6826 85.7095 11.9026Z" fill="#EB924D"/>
<path d="M139.508 17.3225C136.198 17.8725 132.798 17.7225 129.428 17.5625C120.218 17.1325 110.798 16.6725 102.238 13.4925C107.458 13.4725 112.628 14.3425 117.798 15.0125C124.918 15.9425 132.338 16.6425 139.498 17.3225H139.508Z" fill="#EB924D"/>
<path d="M143.721 17.0325C141.271 16.9525 138.841 16.6924 136.411 16.4224C125.421 15.2224 114.441 14.0225 103.451 12.8125C91.541 11.5125 79.5409 10.2025 67.5909 11.0325C66.0009 11.0125 64.3009 11.2024 62.7109 11.1824C70.0409 11.9924 77.421 12.2525 84.791 11.9425C87.691 11.8225 90.6009 11.6124 93.4909 11.9024C95.8009 12.1424 98.0709 12.6925 100.341 13.1925C104.601 14.1225 108.911 14.8525 113.231 15.4425C125.291 17.0925 137.491 17.6925 149.671 17.6325C147.431 17.3625 145.971 17.1025 143.721 17.0325Z" fill="url(#paint7_linear_852_674)"/>
<path d="M47.0305 27.7323C41.2005 28.3823 35.3005 28.3623 29.4805 27.6923C35.3705 27.1223 41.1305 27.2823 47.0305 27.7323Z" fill="#EB924D"/>
<path d="M51.6316 27.7729C43.3716 27.6029 35.1116 27.5729 26.8516 27.6729C27.8216 27.6629 28.8616 27.4429 29.8416 27.3129C30.8716 27.1829 31.8916 27.0529 32.9216 26.9529C34.9816 26.7429 37.0516 26.6529 39.1216 26.8129C39.4816 26.8429 39.7716 26.7729 40.1216 26.7229C40.5916 26.6629 41.1115 26.7429 41.5815 26.7729C42.6415 26.8429 43.6916 26.9129 44.7516 27.0029C46.8616 27.1829 48.9716 27.4129 51.0616 27.6929C51.2516 27.7129 51.4416 27.7429 51.6316 27.7729Z" fill="url(#paint8_linear_852_674)"/>
<path d="M67.6413 41.2229C65.3913 42.1029 63.1413 42.9829 60.8913 43.8629C59.4713 44.4129 58.0512 44.9729 56.5812 45.3329C54.6812 45.8029 52.7113 45.9429 50.7613 46.0829C45.8413 46.4229 40.8212 46.7129 36.0312 45.5329C46.7113 45.4229 57.1912 43.3329 67.6512 41.2129L67.6413 41.2229Z" fill="#EB924D"/>
<path d="M77.6819 38.7426C71.9819 40.2326 66.2819 41.7226 60.5719 43.2126C57.8519 43.9226 55.1319 44.6327 52.3519 45.0627C48.9119 45.5927 45.4219 45.6827 41.9319 45.7327C38.8419 45.7727 35.7619 45.7726 32.6719 45.7426C33.8619 45.5526 35.0619 45.4026 36.2619 45.2726C36.7519 45.2226 37.2719 45.2427 37.7519 45.1627C40.2719 44.7727 42.6519 44.9427 45.2219 44.8427C47.9019 44.7427 50.5419 44.0227 53.1619 43.5927C57.3319 42.9127 61.4919 42.1226 65.6319 41.2726C69.6519 40.4526 73.6619 39.5927 77.6719 38.7227L77.6819 38.7426Z" fill="url(#paint9_linear_852_674)"/>
<path d="M177.089 49.9023C172.369 51.6023 167.189 51.2924 162.179 50.9824C161.129 50.9124 160.069 50.8524 159.019 50.9524C158.349 51.0224 157.689 51.1623 157.029 51.3023C154.059 51.9223 151.059 52.4923 148.019 52.6523C144.979 52.8123 141.899 52.5424 139.039 51.5124C146.959 52.7824 155.119 50.3123 163.139 50.1423C165.139 50.1023 167.139 50.1923 169.129 50.0923C171.859 49.9523 174.359 49.9524 177.089 49.9124V49.9023Z" fill="#EB924D"/>
<path d="M135.988 51.1928C140.338 51.8028 144.728 52.4128 149.098 52.0628C151.918 51.8428 154.698 51.2128 157.518 50.9128C160.858 50.5428 164.228 50.6228 167.588 50.5728C173.618 50.4828 179.638 49.9628 185.598 49.0328C183.928 48.9928 182.258 49.0028 180.588 49.0628C179.118 49.1128 177.658 49.0328 176.188 49.0628C172.918 49.1228 169.648 49.3428 166.388 49.6128C163.138 49.8828 159.888 50.2128 156.638 50.5128C153.388 50.8128 150.148 51.0828 146.888 51.2428C143.628 51.4028 140.368 51.4328 137.108 51.2728C136.738 51.2528 136.358 51.2628 135.988 51.2128V51.1928Z" fill="url(#paint10_linear_852_674)"/>
<defs>
<linearGradient id="paint0_linear_852_674" x1="153.96" y1="-108.137" x2="119.04" y2="-14.1774" gradientUnits="userSpaceOnUse">
<stop stop-color="#CF5C2B"/>
<stop offset="1" stop-color="#59173E"/>
</linearGradient>
<linearGradient id="paint1_linear_852_674" x1="114.392" y1="-32.3176" x2="82.5515" y2="135.582" gradientUnits="userSpaceOnUse">
<stop stop-color="#CF5C2B"/>
<stop offset="1" stop-color="#59173E"/>
</linearGradient>
<linearGradient id="paint2_linear_852_674" x1="113.868" y1="-27.0973" x2="73.0485" y2="181.373" gradientUnits="userSpaceOnUse">
<stop stop-color="#CF5C2B"/>
<stop offset="1" stop-color="#59173E"/>
</linearGradient>
<linearGradient id="paint3_linear_852_674" x1="151.051" y1="-1.1272" x2="141.221" y2="25.1528" gradientUnits="userSpaceOnUse">
<stop stop-color="#CF5C2B"/>
<stop offset="1" stop-color="#59173E"/>
</linearGradient>
<linearGradient id="paint4_linear_852_674" x1="152.451" y1="-2.877" x2="129.081" y2="51.3031" gradientUnits="userSpaceOnUse">
<stop stop-color="#CF5C2B"/>
<stop offset="1" stop-color="#59173E"/>
</linearGradient>
<linearGradient id="paint5_linear_852_674" x1="79.6234" y1="26.5123" x2="69.7933" y2="52.8023" gradientUnits="userSpaceOnUse">
<stop stop-color="#CF5C2B"/>
<stop offset="1" stop-color="#59173E"/>
</linearGradient>
<linearGradient id="paint6_linear_852_674" x1="101.441" y1="-20.5975" x2="44.2815" y2="109.483" gradientUnits="userSpaceOnUse">
<stop stop-color="#CF5C2B"/>
<stop offset="1" stop-color="#59173E"/>
</linearGradient>
<linearGradient id="paint7_linear_852_674" x1="131.501" y1="-33.4576" x2="114.941" y2="-2.13757" gradientUnits="userSpaceOnUse">
<stop stop-color="#CF5C2B"/>
<stop offset="1" stop-color="#59173E"/>
</linearGradient>
<linearGradient id="paint8_linear_852_674" x1="79.4816" y1="-71.6161" x2="54.832" y2="-10.7666" gradientUnits="userSpaceOnUse">
<stop stop-color="#CF5C2B"/>
<stop offset="1" stop-color="#59173E"/>
</linearGradient>
<linearGradient id="paint9_linear_852_674" x1="98.2218" y1="-64.0173" x2="73.5818" y2="-3.17734" gradientUnits="userSpaceOnUse">
<stop stop-color="#CF5C2B"/>
<stop offset="1" stop-color="#59173E"/>
</linearGradient>
<linearGradient id="paint10_linear_852_674" x1="193.735" y1="-25.2789" x2="167.448" y2="34.8821" gradientUnits="userSpaceOnUse">
<stop stop-color="#CF5C2B"/>
<stop offset="1" stop-color="#59173E"/>
</linearGradient>
</defs>
</svg>
