<svg width="41" height="40" viewBox="0 0 41 40" fill="none" xmlns="http://www.w3.org/2000/svg">
<path d="M0.253431 18.8766C0.0354268 19.9455 -0.0419309 21.0355 0.0213607 22.1255C0.0846523 23.1593 0.126846 24.2071 0.745697 25.0791C0.991831 25.4237 1.29422 25.7261 1.6388 25.9652C1.87087 26.127 2.14514 26.2043 2.37018 26.352C2.42644 26.3872 2.48269 26.4153 2.47566 26.4927C2.47566 26.6333 2.20843 26.7739 2.11701 26.8513C1.93417 26.999 1.75133 27.1748 1.68101 27.4069C1.56146 27.8218 1.76539 28.2578 1.94823 28.6235C2.36314 29.4674 2.83432 30.2831 3.34768 31.0707C5.42224 34.2353 7.81325 37.4773 11.4631 38.9119C13.5517 39.7276 15.7599 39.805 17.968 39.9105C20.2887 40.03 22.6094 40.03 24.9231 39.9105C26.9976 39.798 29.2761 39.6292 31.0483 38.5532C32.3634 37.7515 33.4042 36.549 34.2129 35.3394C35.542 33.3492 36.7024 31.2466 37.6869 29.0665C37.7783 28.8626 37.9119 28.6657 37.919 28.4406C37.919 28.3351 37.933 28.2297 37.919 28.1242C37.8908 27.9132 37.7994 27.7093 37.6588 27.5475C38.0526 27.3576 38.355 27.013 38.5589 26.6333C38.6714 26.4223 38.7558 26.2043 38.8261 25.9793C38.8824 25.7894 38.9316 25.6066 39.0441 25.4448C39.2832 25.0862 39.3747 24.6291 39.4872 24.2141C39.7614 23.2366 39.9865 22.2451 40.1553 21.2465C40.1764 21.0988 40.2045 20.9581 40.2256 20.8105C40.317 20.1705 40.3873 19.5235 40.3522 18.8836C40.3522 18.8203 40.3451 18.757 40.3381 18.7007C40.2467 21.0988 39.4169 23.2015 38.4394 25.4448C37.4056 27.8007 36.182 30.0651 34.7614 32.203C33.9597 33.4125 32.9189 34.6151 31.6109 35.4168C29.8458 36.4998 27.5813 36.6685 25.5208 36.7811C23.2212 36.9076 20.9146 36.9076 18.608 36.7951C16.4139 36.6896 14.2127 36.6263 12.1452 35.8036C9.93001 34.9315 8.10158 33.3211 6.63181 31.556C5.03546 29.6291 3.76259 27.3928 2.67257 25.3393C0.942597 22.0763 0.295622 18.7218 1.13951 15.3252C0.731631 16.4926 0.478461 17.7443 0.246392 18.8906L0.253431 18.8766Z" fill="url(#paint0_linear_856_719)"/>
<path d="M40.3468 18.5178C40.3468 18.5811 40.3468 18.6373 40.3468 18.6936C40.2976 19.875 40.0725 20.9932 39.742 22.0762C39.4045 23.1943 38.9473 24.2984 38.4551 25.4306C38.1386 26.1409 37.8151 26.8441 37.4706 27.5333C37.4495 27.5755 37.4284 27.6247 37.4002 27.6669C36.6196 29.2281 35.7406 30.7401 34.7701 32.1888C34.4325 32.7092 34.0458 33.2225 33.6098 33.7007C33.0331 34.3477 32.3721 34.9455 31.6196 35.4026C29.8615 36.4926 27.59 36.6543 25.5366 36.7739C23.237 36.9005 20.9303 36.9005 18.6237 36.7809C16.4296 36.6754 14.2285 36.6051 12.1609 35.7964C9.9387 34.9173 8.11731 33.314 6.64754 31.5418C6.64754 31.5348 6.63348 31.5277 6.62645 31.5137C5.54346 30.2056 4.60815 28.757 3.79239 27.3153C3.56032 26.9145 3.33528 26.5136 3.11025 26.1128C2.96257 25.8455 2.82191 25.5853 2.6883 25.3251C2.51249 25.0016 2.35778 24.6852 2.2101 24.3617C1.48576 22.8005 1.02161 21.2112 0.859869 19.6148C0.768448 18.6936 0.768451 17.7794 0.873937 16.8511C0.937229 16.3377 1.02866 15.8244 1.15524 15.318C1.30995 14.7203 1.50686 14.1155 1.74596 13.5107C1.81628 13.349 1.87957 13.1802 1.94989 13.0184C2.16087 12.484 2.3859 11.9565 2.63204 11.4362C2.76565 11.1478 2.89223 10.8665 3.02585 10.5782C3.30011 9.99451 3.60251 9.41082 3.91194 8.83416C4.12291 8.45442 4.33388 8.07466 4.56595 7.70898C4.84724 7.23077 5.14261 6.76664 5.45906 6.30954C5.47313 6.28141 5.49423 6.25327 5.51533 6.21811C5.67004 5.98604 5.83178 5.76101 5.99352 5.53597C6.12714 5.34609 6.26076 5.16325 6.4014 4.98744C6.4225 4.95931 6.45063 4.92415 6.47173 4.89602C7.6813 3.32779 9.10887 1.94945 11.1342 1.27434C15.431 -0.160273 19.8966 -0.13917 24.545 0.170255C26.4156 0.296838 28.4972 0.641417 29.981 1.80879C33.0542 4.242 35.7335 7.0831 37.8644 10.2828C37.8925 10.318 37.9136 10.3532 37.9347 10.3883C38.7715 11.6401 39.4045 13.0184 39.8123 14.446C39.8123 14.446 39.8123 14.453 39.8123 14.4671C39.8897 14.7343 39.96 15.0016 40.0163 15.2688C40.0655 15.4727 40.1077 15.6767 40.1429 15.8877C40.1429 15.8947 40.1429 15.9017 40.1429 15.9158C40.2483 16.4925 40.3116 17.0691 40.3398 17.6528C40.3538 17.9482 40.3538 18.2435 40.3468 18.5248V18.5178Z" fill="url(#paint1_linear_856_719)"/>
<path d="M40.3452 18.5175C40.3452 18.5808 40.3452 18.637 40.3452 18.6933C40.296 19.8747 40.071 20.9929 39.7405 22.0759C38.566 22.0196 37.3705 21.9352 36.1539 21.8649C31.3578 21.5555 26.5617 21.2812 21.7586 21.021C14.7332 20.6483 7.77116 20.4303 0.844249 19.6145C0.752828 18.6933 0.752821 17.7791 0.858307 16.8508C7.79225 16.3515 14.7192 16.5344 21.7516 16.682C21.843 16.682 21.9414 16.682 22.0329 16.6891C21.632 16.6258 21.2312 16.5554 20.8233 16.4992C14.7051 15.5568 7.96103 14.9239 1.92723 13.0111C2.13821 12.4767 2.36324 11.9492 2.60938 11.4288C2.74299 11.1405 2.86958 10.8592 3.00319 10.5709C3.27745 9.98719 3.57985 9.4035 3.88928 8.82685C4.10025 8.4471 4.31122 8.06734 4.54329 7.70166C10.3731 7.53288 16.3929 8.37677 21.9836 8.85497C26.6039 9.24879 31.2453 9.55822 35.8515 10.0364C36.5126 10.1067 37.1807 10.1841 37.8347 10.2685C37.8628 10.3037 37.8839 10.3388 37.905 10.374C38.7418 11.6257 39.3748 13.0041 39.7826 14.4317C39.7826 14.4317 39.7826 14.4387 39.7826 14.4528C39.86 14.72 39.9303 14.9872 39.9866 15.2545C40.0358 15.4584 40.078 15.6623 40.1132 15.8733C40.1132 15.8803 40.1132 15.8874 40.1132 15.9014C40.2187 16.4781 40.2819 17.0548 40.3101 17.6384C40.3241 17.9338 40.3241 18.2292 40.3171 18.5105L40.3452 18.5175ZM37.3143 27.6596C35.2819 27.4416 33.2777 27.2447 31.2312 27.1884C27.1806 27.0759 23.1299 26.9142 19.0793 26.6891C15.0286 26.4641 11.0272 26.232 6.96244 26.2461C5.77396 26.2461 4.43077 26.1406 3.10164 26.1195C3.31965 26.5133 3.54469 26.9212 3.78379 27.3221C4.60658 28.7637 5.54189 30.2124 6.61784 31.5204C10.5911 32.2588 14.5293 32.6526 18.58 32.955C22.6236 33.2504 26.6742 33.4824 30.7249 33.6653C31.6954 33.7075 32.6448 33.7145 33.6012 33.7075C34.0372 33.2293 34.424 32.7089 34.7615 32.1955C35.7249 30.7398 36.604 29.2349 37.3916 27.6737C37.3635 27.6737 37.3424 27.6737 37.3213 27.6737L37.3143 27.6596Z" fill="url(#paint2_linear_856_719)"/>
<path d="M37.9194 10.3811C38.7562 11.6329 39.3891 13.0112 39.797 14.4388C39.7056 14.2489 39.5931 14.0661 39.5017 13.8903C39.1641 13.2714 38.8125 12.6526 38.4398 12.0548C37.7225 10.9085 36.9419 9.81148 36.0909 8.75662C35.7323 8.30654 35.3103 7.90569 35.0994 7.35716C34.9236 6.90006 34.5438 6.53438 34.2063 6.1898C33.067 5.02945 31.7238 4.1082 30.4861 3.07444C29.7688 2.47668 29.0726 1.82268 28.2287 1.42183C27.4059 1.02801 26.4847 0.880333 25.5775 0.838138C25.24 0.817041 24.9165 0.810003 24.5789 0.810003C24.4453 0.810003 24.3117 0.810005 24.1851 0.76781C24.0374 0.718583 23.8827 0.71859 23.728 0.697493C23.306 0.648266 22.8841 0.613101 22.4622 0.584972C18.946 0.324773 15.3876 0.62013 11.9698 1.47105C11.3439 1.62576 10.711 1.80861 10.1344 2.111C10.05 2.16023 9.97262 2.20242 9.88823 2.25165C9.34673 2.5892 8.88259 3.01115 8.39735 3.412C8.15825 3.61594 7.91212 3.81284 7.65192 3.98865C7.54643 4.05897 7.44798 4.11523 7.33546 4.16446C7.15262 4.25588 7.04714 4.44576 6.94165 4.61453C6.70958 4.97319 6.5619 5.35293 6.38609 5.73268C6.35796 5.79597 6.32983 5.84521 6.31577 5.91553C6.26654 6.11947 6.23841 6.33044 6.19622 6.53438C5.94305 6.52734 5.68285 6.44999 5.46484 6.31637C5.47891 6.28824 5.50001 6.26012 5.5211 6.22496C5.67582 5.99289 5.83757 5.76785 5.99931 5.54282C6.13293 5.35294 6.26655 5.1701 6.40719 4.99429C6.42829 4.96616 6.45641 4.93099 6.47751 4.90286C7.68708 3.33464 9.11466 1.95628 11.14 1.28117C15.4368 -0.153437 19.9024 -0.132334 24.5508 0.177091C26.4214 0.303674 28.503 0.648263 29.9868 1.81564C33.0881 4.27698 35.7956 7.15323 37.9405 10.3952L37.9194 10.3811Z" fill="#EB924D"/>
<path d="M40.1369 15.8806C40.1299 15.9509 40.1088 16.0142 40.0948 16.0775C40.0526 15.8173 39.9822 15.5571 40.0104 15.2899V15.2617C40.0596 15.4657 40.1018 15.6696 40.1369 15.8806Z" fill="#EB924D"/>
<path d="M37.5247 17.5681C38.017 17.5681 38.5304 17.5822 38.9664 17.8002C39.6907 18.1659 40.0353 19.0028 40.2392 19.7904C40.3236 19.0942 40.3166 18.3909 40.2041 17.7018C40.183 17.5822 40.1619 17.4627 40.0986 17.3572C40.0212 17.2447 39.8947 17.1673 39.7681 17.111C38.7202 16.6399 37.5036 16.893 36.3644 17.0759C35.6612 17.1884 34.9579 17.2728 34.2476 17.329C33.5374 17.3853 32.8201 17.4064 32.1098 17.3994C31.9762 17.3994 31.8074 17.3642 31.6808 17.4345C31.512 17.533 31.723 17.5189 31.8074 17.5189C32.1731 17.5189 32.5317 17.5189 32.8974 17.526C33.6218 17.526 34.3461 17.54 35.0704 17.5471C35.7948 17.5471 36.5261 17.5611 37.2505 17.5681C37.3419 17.5681 37.4263 17.5681 37.5177 17.5681H37.5247Z" fill="#EB924D"/>
<path d="M34.7635 32.1893C33.9618 33.3988 32.9281 34.6014 31.613 35.4101C29.8549 36.5001 27.5834 36.6619 25.53 36.7814C23.2304 36.908 20.9237 36.908 18.6171 36.7885C16.423 36.683 14.2219 36.6127 12.1543 35.8039C9.9321 34.9249 8.11071 33.3215 6.64093 31.5493C5.55091 30.2343 4.60857 28.7786 3.78578 27.3229C3.39197 26.6548 3.02629 25.9867 2.6817 25.3327C2.50589 25.0092 2.35117 24.6927 2.20349 24.3692C0.839205 21.4156 0.389132 18.3847 1.14863 15.3185C1.30334 14.7208 1.50025 14.116 1.73935 13.5112C1.89406 13.1315 2.04879 12.7517 2.21053 12.379C2.40744 11.9289 2.63247 11.4929 2.80828 11.0358C2.98409 10.5857 3.18803 10.1427 3.41306 9.71372C3.86314 8.8628 4.40463 8.06111 5.03052 7.32974C5.12897 7.21722 5.23446 7.1047 5.36807 7.04141C5.49465 6.99218 5.63531 6.99219 5.76892 6.99219C6.22603 7.00625 6.6761 7.04141 7.12617 7.0836C8.55375 7.21018 9.98133 7.68136 11.43 7.65323C12.1473 7.63917 12.8646 7.50555 13.5819 7.47039C13.9476 7.45632 14.3203 7.46336 14.686 7.48445C14.8688 7.49852 15.0517 7.50555 15.2345 7.52665C15.3259 7.53368 15.4174 7.54071 15.5088 7.54774C15.565 7.54774 15.6213 7.53368 15.6776 7.54071C15.7198 7.54071 15.769 7.55477 15.8112 7.56884C15.4736 7.67432 15.122 7.72355 14.7774 7.78684C14.4258 7.8431 14.0812 7.89233 13.7296 7.93453C13.0264 8.01188 12.3161 8.04704 11.6058 8.0611C10.8955 8.07517 10.1782 8.06111 9.46796 8.04705C8.84911 8.03298 8.23026 8.01188 7.61141 7.99079C6.97849 7.97672 6.33152 7.96266 5.72673 8.1666C4.92504 8.4268 4.27805 9.03862 3.81392 9.74186C3.79985 9.76999 3.77875 9.79107 3.76468 9.8192C3.49042 10.2482 3.27242 10.7123 3.07551 11.1835C2.97706 11.4156 2.90673 11.6687 2.79421 11.8938C2.75905 11.9641 2.70279 12.0133 2.65356 12.0766C2.56918 12.1891 2.51995 12.3368 2.45666 12.4634C2.32304 12.7517 2.18942 13.04 2.06987 13.3284C1.88 13.8066 1.69716 14.2848 1.54948 14.777C1.4229 15.192 1.22599 15.7053 1.26818 16.1484C1.30334 16.507 1.22599 16.8727 1.19786 17.2243C1.19786 17.3158 1.12754 18.3636 1.19786 18.3706C1.89407 18.4058 2.58324 18.5464 3.23725 18.7855C2.94893 18.8136 2.66764 18.8629 2.38634 18.9191C2.11911 18.9754 1.79561 19.102 1.61277 19.32C1.53542 19.4114 1.51432 19.5802 1.49322 19.6997C1.444 19.981 1.46509 20.2764 1.49322 20.5647C1.62684 21.7954 2.02065 22.9909 2.51292 24.1231C2.63247 24.4044 2.75906 24.6927 2.87861 24.974C2.98409 25.2131 3.09661 25.4663 3.30758 25.6069C3.47636 25.7195 3.69437 25.7617 3.89127 25.7968C4.30618 25.8742 4.6789 26.043 5.09381 26.1273C5.90957 26.2891 6.73939 26.4157 7.57624 26.4368C9.07415 26.4719 10.6142 26.1695 12.0559 26.5704C11.8238 26.5915 11.5847 26.6055 11.3526 26.6266C9.88288 26.7321 8.40608 26.8306 6.9363 26.9079C6.21197 26.9501 5.48059 26.9853 4.75626 27.0134C4.60858 27.0134 4.26399 26.9853 4.18663 27.1541C4.16554 27.1963 4.17257 27.2455 4.18663 27.2877C4.24289 27.562 4.42573 27.8503 4.56638 28.0894C4.96722 28.7926 5.46653 29.4255 5.94473 30.0725C6.40887 30.7054 6.90817 31.3173 7.45669 31.8869C7.70986 32.1541 7.97006 32.4284 8.25136 32.6534C8.30059 32.6956 8.34981 32.7237 8.40607 32.7519C8.65221 32.8784 8.82802 33.1246 9.03196 33.3074C9.48906 33.7223 9.99539 34.081 10.5228 34.3904C11.2753 34.8335 12.084 35.171 12.9209 35.4242C14.6086 35.9446 16.3738 36.1274 18.1319 36.2329C21.7887 36.4579 25.4948 36.3665 29.0673 35.5648C30.0377 35.3468 31.0082 35.0726 31.8732 34.5803C33.35 33.7364 34.3908 32.3158 35.3331 30.8953C35.9028 30.0374 36.4794 29.1161 36.5497 28.0894C35.8676 27.8714 35.1714 27.6956 34.4611 27.562C35.1714 27.4987 35.8817 27.4143 36.5919 27.344C36.6763 27.3369 36.7607 27.3229 36.8381 27.344C36.9014 27.358 36.9506 27.3721 37.0139 27.365C37.1053 27.365 37.1967 27.351 37.2811 27.3369C37.3092 27.3369 37.5202 27.3088 37.5272 27.2877C37.4218 27.6604 37.2811 28.0261 37.0912 28.3636C37.0068 28.5184 36.9154 28.666 36.8099 28.8067C36.6412 29.0247 36.5286 29.2849 36.388 29.531C36.2122 29.8405 36.0364 30.1499 35.8535 30.4523C35.5019 31.043 35.1292 31.6267 34.7494 32.2033L34.7635 32.1893Z" fill="#EB924D"/>
<path d="M30.3508 17.4842C32.9106 17.435 35.4704 17.3787 38.0231 17.3366C38.5154 17.3295 39.0358 17.3155 39.4929 17.4983C39.95 17.6811 40.3579 18.0961 40.3368 18.5672C40.3368 18.5532 40.3368 18.5391 40.3368 18.525C40.3438 18.2437 40.3368 17.9484 40.3298 17.653C40.3016 17.0764 40.2383 16.4927 40.1328 15.916C40.1047 16.0004 40.0696 16.0848 40.0063 16.1551C39.8023 16.4012 39.3171 16.4223 39.0217 16.4716C38.7615 16.5138 38.5013 16.5419 38.2411 16.57C35.604 16.8724 32.9739 17.1818 30.3438 17.4913L30.3508 17.4842Z" fill="url(#paint3_linear_856_719)"/>
<path d="M3.50725 26.5914C3.59867 26.8305 3.69009 27.0766 3.78151 27.3228C3.38769 26.6547 3.02202 25.9866 2.67743 25.3326C2.50162 25.0091 2.3469 24.6926 2.19922 24.3691C2.24141 24.4113 2.29065 24.4465 2.32581 24.4817C2.56491 24.6856 2.82511 24.8614 3.09234 25.0161C4.00655 25.5365 5.06844 25.649 6.08814 25.7967C6.65776 25.8741 7.26958 26.0007 7.84623 26.0007C10.1318 26.2327 12.4103 26.4578 14.7028 26.6547C10.9757 26.5632 7.23442 26.5492 3.50725 26.6054V26.5914Z" fill="url(#paint4_linear_856_719)"/>
<path d="M37.66 26.1828C36.6473 26.9071 35.3393 27.2236 34.0664 27.5189C35.1846 27.5189 36.3027 27.5189 37.4279 27.5471C37.2943 27.744 37.2521 27.9831 37.3154 28.2011C37.5404 27.6877 37.7584 27.1814 37.9835 26.668C38.2015 26.1758 38.3773 25.6413 38.6445 25.1631C38.6375 25.3319 38.3562 25.5639 38.2366 25.6905C38.0678 25.8663 37.878 26.0281 37.667 26.1758L37.66 26.1828Z" fill="url(#paint5_linear_856_719)"/>
<path d="M17.0881 7.45599C13.8673 7.97638 10.4776 7.87793 7.24273 7.54037C6.70124 7.48411 5.95581 7.3083 5.44948 7.64585C5.17522 7.82869 4.89392 8.01858 4.61965 8.20142C4.35242 8.38426 4.11332 8.59523 3.90234 8.83433C4.39461 7.93418 4.92907 7.06216 5.50573 6.21828C5.66044 5.98621 5.82219 5.76117 5.98394 5.53613C5.98394 5.57833 5.97691 5.62053 5.98394 5.66272C6.01207 6.02841 6.26524 6.34486 6.5817 6.54177C6.89815 6.73165 7.26384 6.81603 7.62249 6.88635C10.6816 7.5052 13.9727 7.19579 17.1022 7.45599H17.0881Z" fill="url(#paint6_linear_856_719)"/>
<path d="M0.7956 17.168C0.661985 17.4844 0.851863 17.8642 1.14019 18.0611C1.42852 18.251 1.78717 18.3002 2.12472 18.3424C3.43275 18.4971 4.75485 18.6237 6.06287 18.4971C4.572 18.5604 2.93346 18.7151 1.44962 18.7784C1.35117 18.7784 1.24568 18.7854 1.16129 18.8346C0.971413 18.9261 0.908117 19.1652 0.91515 19.3761C0.91515 19.5871 0.964377 19.7981 0.91515 20.002C0.704178 19.0597 0.697147 18.1244 0.7956 17.168Z" fill="url(#paint7_linear_856_719)"/>
<path d="M19.6698 14.6119C18.7637 14.2406 16.556 12.9644 17.1764 11.7404C17.3102 11.4793 17.5413 11.2705 17.7602 11.0674C18.3988 10.4931 19.2198 9.39091 20.0287 9.06605C20.3632 8.93263 20.801 9.01965 21.1173 9.16468C21.5065 9.33871 21.8228 9.62876 22.1208 9.92462C22.7289 10.5279 23.7202 11.2647 23.8054 12.158C23.8723 12.8484 22.8323 13.5677 22.3397 13.9158C21.841 14.2696 21.2815 14.6177 20.6916 14.7221C20.3632 14.7801 20.0165 14.7569 19.6698 14.6119ZM24 28.7898C23.927 28.7898 23.9027 27.8964 23.8966 27.821C23.8966 27.5773 23.775 27.3221 23.7385 27.0785C23.7142 26.945 23.702 26.8116 23.6898 26.6782C23.6898 26.6318 23.7081 26.3301 23.6777 26.3069C23.5074 26.1851 23.2702 26.1561 23.0695 26.2257C22.6681 23.7892 22.5404 21.3064 22.7046 18.8467C23.106 18.8003 23.4101 18.4406 23.5013 18.0636C23.5804 17.7329 23.4831 17.4254 23.5013 17.0948C23.5013 17.002 23.5378 16.9149 23.5682 16.8221C23.6412 16.5959 23.6594 16.358 23.6655 16.126C23.4648 16.126 23.5195 16.1028 23.3249 16.068C22.8566 15.9868 22.3519 15.8823 21.8775 15.8939C21.6768 15.8939 21.5004 15.8301 21.2997 15.7953C21.0686 15.7547 20.8375 15.7431 20.6064 15.7605C20.4361 15.7721 20.2598 15.8069 20.1442 15.9229C20.0347 16.0332 19.9983 16.1956 19.9739 16.3522C19.8036 17.437 19.7246 18.5334 19.7428 19.6356C19.6273 18.6321 19.5117 17.6285 19.3962 16.6249C19.3719 16.4102 19.3293 16.1666 19.1347 16.0506C18.9461 15.9404 18.7211 16.0042 18.5204 16.0332C18.4109 16.0506 18.3136 16.0506 18.2042 16.039C17.8271 15.9926 17.3771 16.1376 17 16.2188C17.0061 16.6365 17.0183 17.0542 17.0243 17.4718C17.0243 17.7677 17.0243 17.9475 17.3649 17.9881C17.4987 18.0055 17.6325 18.0113 17.7602 18.052C17.8271 18.0694 17.894 18.1042 17.9548 18.1274C18.0947 18.1796 18.1555 18.1506 18.1677 18.3246C18.1616 18.4232 18.1555 18.5276 18.1494 18.6263C18.1312 19.1136 18.1251 19.6066 18.119 20.0939C18.1069 22.1533 18.2163 24.2127 18.4414 26.2605C18.0947 26.1561 17.8879 26.6202 17.8514 26.9682C17.7967 27.5193 17.7359 28.0704 17.6812 28.6273C18.1373 28.6564 18.5934 28.697 19.0495 28.7086C19.1772 28.7086 19.2867 28.726 19.4083 28.7608C19.8401 28.9 19.9679 29.1959 20.0104 29.6077C20.0652 30.1124 20.1016 30.6983 20.5274 31C20.6551 30.3213 20.7524 29.6367 20.8132 28.9522C20.801 29.0566 22.3519 28.9464 22.4857 28.9348L23.0573 28.8884C23.3736 28.8652 23.6838 28.8362 24 28.813V28.7898Z" fill="#FCEBC5"/>
<defs>
<linearGradient id="paint0_linear_856_719" x1="19.9582" y1="-1.05327" x2="20.1551" y2="18.3562" gradientUnits="userSpaceOnUse">
<stop stop-color="#CF5C2B"/>
<stop offset="1" stop-color="#59173E"/>
</linearGradient>
<linearGradient id="paint1_linear_856_719" x1="34.5029" y1="-7.43177" x2="-0.441107" y2="57.3929" gradientUnits="userSpaceOnUse">
<stop stop-color="#CF5C2B"/>
<stop offset="1" stop-color="#59173E"/>
</linearGradient>
<linearGradient id="paint2_linear_856_719" x1="30.5702" y1="-0.139464" x2="-4.37378" y2="64.6852" gradientUnits="userSpaceOnUse">
<stop stop-color="#CF5C2B"/>
<stop offset="1" stop-color="#59173E"/>
</linearGradient>
<linearGradient id="paint3_linear_856_719" x1="35.1539" y1="-1.20783" x2="35.3508" y2="18.2015" gradientUnits="userSpaceOnUse">
<stop stop-color="#CF5C2B"/>
<stop offset="1" stop-color="#59173E"/>
</linearGradient>
<linearGradient id="paint4_linear_856_719" x1="8.17676" y1="-0.933504" x2="8.37367" y2="18.476" gradientUnits="userSpaceOnUse">
<stop stop-color="#CF5C2B"/>
<stop offset="1" stop-color="#59173E"/>
</linearGradient>
<linearGradient id="paint5_linear_856_719" x1="36.0706" y1="-1.21549" x2="36.2676" y2="18.1869" gradientUnits="userSpaceOnUse">
<stop stop-color="#CF5C2B"/>
<stop offset="1" stop-color="#59173E"/>
</linearGradient>
<linearGradient id="paint6_linear_856_719" x1="15.2175" y1="-8.48648" x2="8.81799" y2="14.0594" gradientUnits="userSpaceOnUse">
<stop stop-color="#CF5C2B"/>
<stop offset="1" stop-color="#59173E"/>
</linearGradient>
<linearGradient id="paint7_linear_856_719" x1="7.0896" y1="4.03145" x2="3.3554" y2="18.1033" gradientUnits="userSpaceOnUse">
<stop stop-color="#CF5C2B"/>
<stop offset="1" stop-color="#59173E"/>
</linearGradient>
</defs>
</svg>
