<svg width="41" height="40" viewBox="0 0 41 40" fill="none" xmlns="http://www.w3.org/2000/svg">
<path d="M0.253431 18.8766C0.0354268 19.9455 -0.0419308 21.0355 0.0213607 22.1255C0.0846523 23.1593 0.126846 24.2071 0.745697 25.0791C0.991831 25.4237 1.29423 25.7261 1.63881 25.9652C1.87088 26.127 2.14515 26.2043 2.37018 26.352C2.42644 26.3872 2.4827 26.4153 2.47567 26.4926C2.47567 26.6333 2.20844 26.7739 2.11702 26.8513C1.93418 26.999 1.75133 27.1748 1.68101 27.4069C1.56146 27.8218 1.7654 28.2578 1.94824 28.6235C2.36315 29.4674 2.83432 30.2831 3.34769 31.0707C5.42225 34.2353 7.81326 37.4773 11.4631 38.9119C13.5517 39.7276 15.7599 39.805 17.968 39.9105C20.2887 40.03 22.6094 40.03 24.9231 39.9105C26.9976 39.798 29.2761 39.6292 31.0483 38.5532C32.3634 37.7515 33.4042 36.549 34.2129 35.3394C35.542 33.3492 36.7024 31.2466 37.6869 29.0665C37.7783 28.8626 37.9119 28.6657 37.919 28.4406C37.919 28.3351 37.933 28.2297 37.919 28.1242C37.8908 27.9132 37.7994 27.7093 37.6588 27.5475C38.0526 27.3576 38.355 27.013 38.5589 26.6333C38.6714 26.4223 38.7558 26.2043 38.8261 25.9793C38.8824 25.7894 38.9316 25.6066 39.0441 25.4448C39.2833 25.0862 39.3747 24.6291 39.4872 24.2141C39.7615 23.2366 39.9865 22.2451 40.1553 21.2465C40.1764 21.0988 40.2045 20.9581 40.2256 20.8105C40.317 20.1705 40.3873 19.5235 40.3522 18.8836C40.3522 18.8203 40.3451 18.757 40.3381 18.7007C40.2467 21.0988 39.4169 23.2015 38.4394 25.4448C37.4056 27.8007 36.182 30.0651 34.7614 32.203C33.9597 33.4125 32.9189 34.6151 31.6109 35.4168C29.8458 36.4998 27.5813 36.6685 25.5208 36.7811C23.2212 36.9076 20.9146 36.9076 18.608 36.7951C16.4139 36.6896 14.2127 36.6263 12.1452 35.8036C9.93001 34.9315 8.10159 33.3211 6.63182 31.556C5.03546 29.6291 3.7626 27.3928 2.67258 25.3393C0.942608 22.0763 0.295627 18.7218 1.13952 15.3252C0.731636 16.4926 0.478466 17.7443 0.246397 18.8906L0.253431 18.8766Z" fill="url(#paint0_linear_879_844)"/>
<path d="M40.3468 18.5178C40.3468 18.5811 40.3468 18.6373 40.3468 18.6936C40.2976 19.875 40.0725 20.9932 39.742 22.0762C39.4045 23.1943 38.9473 24.2984 38.4551 25.4306C38.1386 26.1409 37.8151 26.8441 37.4705 27.5333C37.4494 27.5755 37.4283 27.6247 37.4002 27.6669C36.6196 29.2281 35.7406 30.7401 34.7701 32.1888C34.4325 32.7092 34.0458 33.2225 33.6098 33.7007C33.0331 34.3477 32.3721 34.9455 31.6196 35.4026C29.8615 36.4926 27.59 36.6543 25.5366 36.7739C23.237 36.9005 20.9303 36.9005 18.6237 36.7809C16.4296 36.6754 14.2285 36.6051 12.1609 35.7964C9.9387 34.9173 8.11731 33.314 6.64754 31.5418C6.64754 31.5348 6.63347 31.5277 6.62644 31.5137C5.54345 30.2056 4.60814 28.757 3.79238 27.3153C3.56031 26.9145 3.33527 26.5136 3.11024 26.1128C2.96256 25.8455 2.82191 25.5853 2.68829 25.3251C2.51248 25.0016 2.35777 24.6852 2.21009 24.3617C1.48575 22.8005 1.02162 21.2112 0.859872 19.6148C0.768451 18.6936 0.768448 17.7794 0.873934 16.8511C0.937226 16.3377 1.02865 15.8244 1.15523 15.318C1.30994 14.7203 1.50685 14.1155 1.74596 13.5107C1.81628 13.349 1.87957 13.1802 1.9499 13.0184C2.16087 12.484 2.3859 11.9565 2.63203 11.4362C2.76565 11.1478 2.89224 10.8665 3.02585 10.5782C3.30012 9.99451 3.60251 9.41082 3.91193 8.83417C4.1229 8.45442 4.33387 8.07466 4.56594 7.70898C4.84724 7.23077 5.1426 6.76664 5.45906 6.30954C5.47313 6.28141 5.49422 6.25327 5.51532 6.21811C5.67003 5.98604 5.83178 5.76101 5.99353 5.53597C6.12714 5.34609 6.26075 5.16325 6.4014 4.98744C6.4225 4.95931 6.45063 4.92415 6.47173 4.89602C7.6813 3.32779 9.10888 1.94945 11.1342 1.27434C15.431 -0.160273 19.8966 -0.13917 24.545 0.170255C26.4156 0.296838 28.4972 0.641417 29.981 1.80879C33.0542 4.242 35.7335 7.0831 37.8644 10.2828C37.8925 10.318 37.9136 10.3532 37.9347 10.3883C38.7715 11.6401 39.4045 13.0184 39.8123 14.446C39.8123 14.446 39.8123 14.453 39.8123 14.4671C39.8897 14.7343 39.96 15.0016 40.0163 15.2688C40.0655 15.4727 40.1077 15.6767 40.1429 15.8877C40.1429 15.8947 40.1429 15.9017 40.1429 15.9158C40.2483 16.4925 40.3116 17.0691 40.3398 17.6528C40.3538 17.9482 40.3538 18.2435 40.3468 18.5248V18.5178Z" fill="url(#paint1_linear_879_844)"/>
<path d="M40.3452 18.5175C40.3452 18.5808 40.3452 18.637 40.3452 18.6933C40.296 19.8747 40.071 20.9929 39.7404 22.0759C38.566 22.0196 37.3705 21.9352 36.1539 21.8649C31.3578 21.5555 26.5617 21.2812 21.7586 21.021C14.7332 20.6483 7.77116 20.4303 0.844247 19.6145C0.752826 18.6933 0.752823 17.7791 0.858309 16.8508C7.79226 16.3515 14.7262 16.5344 21.7516 16.682C21.843 16.682 21.9414 16.682 22.0329 16.6891C21.632 16.6258 21.2312 16.5554 20.8233 16.4992C14.7051 15.5568 7.96103 14.9239 1.92723 13.0111C2.1382 12.4767 2.36324 11.9492 2.60938 11.4288C2.74299 11.1405 2.86958 10.8592 3.00319 10.5709C3.27746 9.98719 3.57985 9.4035 3.88927 8.82685C4.10024 8.4471 4.31122 8.06734 4.54329 7.70166C10.3731 7.53288 16.3929 8.37677 21.9836 8.85497C26.6039 9.24879 31.2453 9.55822 35.8515 10.0364C36.5126 10.1067 37.1807 10.1841 37.8347 10.2685C37.8628 10.3037 37.8839 10.3388 37.905 10.374C38.7418 11.6257 39.3748 13.0041 39.7826 14.4317C39.7826 14.4317 39.7826 14.4387 39.7826 14.4528C39.86 14.72 39.9303 14.9872 39.9866 15.2545C40.0358 15.4584 40.078 15.6623 40.1132 15.8733C40.1132 15.8803 40.1132 15.8874 40.1132 15.9014C40.2187 16.4781 40.2819 17.0548 40.3101 17.6384C40.3241 17.9338 40.3241 18.2292 40.3171 18.5105L40.3452 18.5175ZM37.3213 27.6596C35.2889 27.4416 33.2847 27.2447 31.2383 27.1884C27.1876 27.0759 23.137 26.9142 19.0863 26.6891C15.0356 26.4641 11.0342 26.232 6.96947 26.2461C5.78099 26.2461 4.4378 26.1406 3.10868 26.1195C3.32668 26.5133 3.55172 26.9212 3.79082 27.3221C4.61361 28.7637 5.54892 30.2124 6.62488 31.5204C10.5982 32.2588 14.5363 32.6526 18.587 32.955C22.6306 33.2504 26.6813 33.4824 30.7319 33.6653C31.7024 33.7075 32.6518 33.7145 33.6082 33.7075C34.0442 33.2293 34.431 32.7089 34.7685 32.1955C35.732 30.7398 36.611 29.2349 37.3987 27.6737C37.3705 27.6737 37.3494 27.6737 37.3283 27.6737L37.3213 27.6596Z" fill="url(#paint2_linear_879_844)"/>
<path d="M37.9272 10.3811C38.764 11.6329 39.3969 13.0112 39.8048 14.4388C39.7134 14.2489 39.6009 14.0661 39.5095 13.8903C39.1719 13.2714 38.8203 12.6526 38.4476 12.0548C37.7303 10.9085 36.9497 9.81148 36.0988 8.75662C35.7401 8.30654 35.3182 7.90569 35.1072 7.35716C34.9314 6.90006 34.5516 6.53438 34.2141 6.18979C33.0748 5.02945 31.7316 4.1082 30.4939 3.07444C29.7766 2.47668 29.0804 1.82268 28.2365 1.42183C27.4137 1.02801 26.4925 0.880333 25.5853 0.838138C25.2478 0.817041 24.9243 0.810003 24.5867 0.810003C24.4531 0.810003 24.3195 0.810005 24.1929 0.76781C24.0452 0.718583 23.8905 0.71859 23.7358 0.697493C23.3139 0.648266 22.8919 0.613101 22.47 0.584972C18.9538 0.324773 15.3954 0.62013 11.9776 1.47105C11.3517 1.62576 10.7188 1.80861 10.1422 2.111C10.0578 2.16023 9.98042 2.20242 9.89604 2.25165C9.35454 2.5892 8.89041 3.01115 8.40517 3.412C8.16607 3.61594 7.91993 3.81284 7.65973 3.98865C7.55425 4.05897 7.4558 4.11523 7.34328 4.16446C7.16043 4.25588 7.05494 4.44576 6.94946 4.61453C6.71739 4.97319 6.56971 5.35293 6.3939 5.73268C6.36577 5.79597 6.33764 5.84521 6.32358 5.91553C6.27435 6.11947 6.24622 6.33044 6.20403 6.53438C5.95086 6.52734 5.69066 6.44999 5.47266 6.31637C5.48672 6.28824 5.50782 6.26012 5.52892 6.22496C5.68363 5.99289 5.84537 5.76785 6.00712 5.54282C6.14074 5.35294 6.27435 5.1701 6.415 4.99429C6.4361 4.96616 6.46423 4.93099 6.48532 4.90286C7.6949 3.33464 9.12247 1.95628 11.1478 1.28117C15.4446 -0.153437 19.9102 -0.132334 24.5586 0.177091C26.4292 0.303674 28.5108 0.648263 29.9946 1.81564C33.0959 4.27698 35.8034 7.15323 37.9483 10.3952L37.9272 10.3811Z" fill="#EB924D"/>
<path d="M40.1369 15.8806C40.1299 15.9509 40.1088 16.0142 40.0948 16.0775C40.0526 15.8173 39.9822 15.5571 40.0104 15.2899V15.2617C40.0596 15.4657 40.1018 15.6696 40.1369 15.8806Z" fill="#EB924D"/>
<path d="M37.5247 17.5681C38.017 17.5681 38.5304 17.5822 38.9664 17.8002C39.6907 18.1659 40.0353 19.0028 40.2392 19.7904C40.3236 19.0942 40.3166 18.3909 40.2041 17.7018C40.183 17.5822 40.1619 17.4627 40.0986 17.3572C40.0212 17.2447 39.8947 17.1673 39.7681 17.111C38.7202 16.6399 37.5036 16.893 36.3644 17.0759C35.6611 17.1884 34.9579 17.2728 34.2476 17.329C33.5374 17.3853 32.8201 17.4064 32.1098 17.3994C31.9762 17.3994 31.8074 17.3642 31.6808 17.4345C31.512 17.533 31.723 17.5189 31.8074 17.5189H32.8974C33.6218 17.533 34.3461 17.54 35.0704 17.5471C35.7948 17.5471 36.5261 17.5611 37.2505 17.5681C37.3419 17.5681 37.4263 17.5681 37.5177 17.5681H37.5247Z" fill="#EB924D"/>
<path d="M34.7635 32.1893C33.9618 33.3988 32.928 34.6014 31.613 35.4101C29.8549 36.5001 27.5834 36.6619 25.53 36.7814C23.2304 36.908 20.9237 36.908 18.6171 36.7885C16.423 36.683 14.2219 36.6127 12.1543 35.8039C9.9321 34.9249 8.11071 33.3215 6.64094 31.5493C5.55092 30.2343 4.60857 28.7786 3.78578 27.3229C3.39197 26.6548 3.02628 25.9867 2.68169 25.3327C2.50588 25.0092 2.35117 24.6927 2.20349 24.3692C0.839205 21.4156 0.389132 18.3847 1.14863 15.3185C1.30334 14.7208 1.50025 14.116 1.73936 13.5112C1.89407 13.1315 2.04878 12.7517 2.21052 12.379C2.40743 11.9289 2.63247 11.4929 2.80828 11.0358C2.98409 10.5857 3.18803 10.1427 3.41306 9.71372C3.86314 8.8628 4.40463 8.06111 5.03052 7.32974C5.12897 7.21722 5.23445 7.1047 5.36807 7.04141C5.49465 6.99218 5.63531 6.99219 5.76892 6.99219C6.22603 7.00625 6.6761 7.04141 7.12617 7.0836C8.55375 7.21018 9.98133 7.68136 11.43 7.65323C12.1473 7.63917 12.8646 7.50555 13.5819 7.47039C13.9476 7.45632 14.3203 7.46336 14.686 7.48445C14.8688 7.49852 15.0517 7.50555 15.2345 7.52665C15.326 7.53368 15.4174 7.54071 15.5088 7.54774C15.5651 7.54774 15.6213 7.53368 15.6776 7.54071C15.7198 7.54071 15.769 7.55477 15.8112 7.56884C15.4736 7.67432 15.122 7.72355 14.7774 7.78684C14.4258 7.8431 14.0812 7.89233 13.7296 7.93453C13.0264 8.01188 12.3161 8.04704 11.6058 8.0611C10.8955 8.07517 10.1782 8.06111 9.46796 8.04705C8.84911 8.03298 8.23026 8.01188 7.61141 7.99079C6.97849 7.97672 6.33151 7.96266 5.72672 8.1666C4.92503 8.4268 4.27805 9.03862 3.81391 9.74186C3.79985 9.76999 3.77875 9.79107 3.76468 9.8192C3.49042 10.2482 3.27242 10.7123 3.07551 11.1835C2.97706 11.4156 2.90673 11.6687 2.79422 11.8938C2.75905 11.9641 2.7028 12.0133 2.65357 12.0766C2.56918 12.1891 2.51995 12.3368 2.45666 12.4634C2.32304 12.7517 2.18943 13.04 2.06988 13.3284C1.88 13.8066 1.69716 14.2848 1.54948 14.777C1.4229 15.192 1.22599 15.7053 1.26819 16.1484C1.30335 16.507 1.22599 16.8727 1.19786 17.2243C1.19786 17.3158 1.12754 18.3636 1.19786 18.3706C1.89407 18.4058 2.58324 18.5464 3.23725 18.7855C2.94893 18.8136 2.66763 18.8629 2.38633 18.9191C2.1191 18.9754 1.79561 19.102 1.61277 19.32C1.53542 19.4114 1.51432 19.5802 1.49322 19.6997C1.444 19.981 1.46509 20.2764 1.49322 20.5647C1.62684 21.7954 2.02065 22.9909 2.51292 24.1231C2.6395 24.4044 2.75906 24.6927 2.87861 24.974C2.98409 25.2131 3.09661 25.4663 3.30758 25.6069C3.47636 25.7195 3.69436 25.7617 3.89127 25.7968C4.30618 25.8742 4.6789 26.043 5.09381 26.1273C5.90957 26.2891 6.73939 26.4157 7.57625 26.4368C9.07415 26.4719 10.6142 26.1695 12.0559 26.5704C11.8238 26.5915 11.5847 26.6055 11.3526 26.6266C9.88287 26.7321 8.40607 26.8306 6.9363 26.9079C6.21196 26.9501 5.48059 26.9853 4.75626 27.0134C4.60857 27.0134 4.26399 26.9853 4.18663 27.1541C4.16554 27.1963 4.17257 27.2455 4.18663 27.2877C4.24289 27.562 4.42573 27.8503 4.56638 28.0894C4.96722 28.7926 5.46653 29.4255 5.94473 30.0725C6.40887 30.7054 6.90817 31.3173 7.45669 31.8869C7.70986 32.1541 7.97006 32.4284 8.25136 32.6534C8.30059 32.6956 8.34981 32.7237 8.40607 32.7519C8.65221 32.8784 8.82802 33.1246 9.03196 33.3074C9.48906 33.7223 9.99539 34.081 10.5228 34.3904C11.2753 34.8334 12.084 35.171 12.9209 35.4242C14.6086 35.9446 16.3738 36.1274 18.1319 36.2329C21.7887 36.4579 25.4948 36.3665 29.0673 35.5648C30.0377 35.3468 31.0082 35.0726 31.8732 34.5803C33.35 33.7364 34.3908 32.3159 35.3331 30.8953C35.9027 30.0374 36.4794 29.1161 36.5497 28.0894C35.8676 27.8714 35.1714 27.6956 34.4611 27.562C35.1714 27.4987 35.8817 27.4143 36.5919 27.344C36.6763 27.3369 36.7607 27.3229 36.8381 27.344C36.9013 27.358 36.9506 27.3721 37.0139 27.365C37.1053 27.365 37.1967 27.351 37.2811 27.3369C37.3092 27.3369 37.5202 27.3088 37.5272 27.2877C37.4217 27.6604 37.2811 28.0261 37.0912 28.3636C37.0068 28.5184 36.9154 28.666 36.8099 28.8067C36.6412 29.0247 36.5286 29.2849 36.388 29.531C36.2122 29.8405 36.0364 30.1499 35.8535 30.4523C35.5019 31.043 35.1292 31.6267 34.7494 32.2033L34.7635 32.1893Z" fill="#EB924D"/>
<path d="M30.3508 17.4842C32.9106 17.435 35.4704 17.3787 38.0231 17.3366C38.5154 17.3295 39.0358 17.3155 39.4929 17.4983C39.95 17.6811 40.3579 18.0961 40.3368 18.5672C40.3368 18.5532 40.3368 18.5391 40.3368 18.525C40.3438 18.2437 40.3368 17.9484 40.3298 17.653C40.3016 17.0764 40.2383 16.4927 40.1328 15.916C40.1047 16.0004 40.0696 16.0848 40.0063 16.1551C39.8023 16.4012 39.3171 16.4223 39.0217 16.4716C38.7615 16.5138 38.5013 16.5419 38.2411 16.57C35.604 16.8724 32.9739 17.1818 30.3438 17.4913L30.3508 17.4842Z" fill="url(#paint3_linear_879_844)"/>
<path d="M3.50725 26.5914C3.59867 26.8305 3.69009 27.0766 3.78151 27.3228C3.38769 26.6547 3.02201 25.9866 2.67742 25.3326C2.50161 25.0091 2.3469 24.6926 2.19922 24.3691C2.24141 24.4113 2.29064 24.4465 2.3258 24.4817C2.5649 24.6856 2.82511 24.8614 3.09234 25.0161C4.00655 25.5365 5.06844 25.649 6.08814 25.7967C6.65776 25.8741 7.26958 26.0007 7.84624 26.0007C10.1318 26.2327 12.4103 26.4578 14.7028 26.6547C10.9757 26.5632 7.23442 26.5492 3.50725 26.6054V26.5914Z" fill="url(#paint4_linear_879_844)"/>
<path d="M37.6639 26.1828C36.6512 26.9071 35.3432 27.2236 34.0703 27.5189C35.1885 27.5189 36.3066 27.5189 37.4318 27.5471C37.2982 27.744 37.256 27.9831 37.3193 28.2011C37.5443 27.6877 37.7623 27.1814 37.9874 26.668C38.2054 26.1758 38.3812 25.6413 38.6484 25.1631C38.6414 25.3319 38.3601 25.5639 38.2405 25.6905C38.0717 25.8663 37.8819 26.0281 37.6709 26.1758L37.6639 26.1828Z" fill="url(#paint5_linear_879_844)"/>
<path d="M17.0881 7.45599C13.8673 7.97638 10.4776 7.87793 7.24273 7.54037C6.70124 7.48411 5.9558 7.3083 5.44947 7.64585C5.17521 7.82869 4.89391 8.01858 4.61965 8.20142C4.35241 8.38426 4.11332 8.59523 3.90234 8.83433C4.39461 7.93418 4.92907 7.06216 5.50573 6.21828C5.66044 5.98621 5.82219 5.76117 5.98393 5.53613C5.98393 5.57833 5.9769 5.62053 5.98393 5.66272C6.01206 6.02841 6.26523 6.34486 6.58169 6.54177C6.89814 6.73165 7.26383 6.81603 7.62248 6.88635C10.6816 7.5052 13.9727 7.19579 17.1022 7.45599H17.0881Z" fill="url(#paint6_linear_879_844)"/>
<path d="M0.803413 17.168C0.669797 17.4844 0.85967 17.8642 1.148 18.0611C1.43633 18.251 1.79498 18.3002 2.13254 18.3424C3.44056 18.4971 4.76265 18.6237 6.07068 18.4971C4.57981 18.5604 2.94126 18.7151 1.45743 18.7784C1.35897 18.7784 1.25349 18.7854 1.1691 18.8346C0.979226 18.9261 0.91593 19.1652 0.922962 19.3761C0.922962 19.5871 0.972189 19.7981 0.922962 20.002C0.71199 19.0597 0.704959 18.1244 0.803413 17.168Z" fill="url(#paint7_linear_879_844)"/>
<path d="M28.8153 12.6473L25.1569 9.8457C23.7342 11.6782 22.263 13.482 20.7629 15.2665C19.2046 13.4724 17.6368 11.6782 16.0592 9.91286C15.9043 10.0472 14.1525 11.448 14.1331 11.4192C14.5783 12.2155 14.9558 13.0406 15.2849 13.8849C14.7913 13.2709 14.2493 12.7048 13.6686 12.1771C13.446 12.3019 13.175 12.4074 12.9621 12.5705C12.904 12.6185 12.8653 12.6665 12.8072 12.724C12.6523 12.8679 12.6039 12.9063 12.7394 13.127C12.904 13.3956 13.2137 13.6451 13.4266 13.8849C13.6492 14.1344 13.8718 14.3839 14.0944 14.6333C14.5397 15.1322 14.9849 15.6407 15.4204 16.1396C15.6236 16.3699 17.7916 18.7301 17.7335 18.8069C16.1559 20.6106 14.5493 22.3856 12.9137 24.1222C12.9814 24.055 14.4719 25.6957 14.6074 25.9451C14.9655 25.6765 15.372 25.475 15.8075 25.3503C15.5752 25.6765 15.343 26.0123 15.1204 26.3385C15.5172 26.6455 15.9237 26.9141 16.2914 27.25C16.214 27.1828 17.1915 26.3769 17.3948 26.1658C17.627 25.9259 17.7529 25.5517 17.9077 25.2543C17.9755 25.1296 18.0916 24.9857 18.2174 25.0336C18.3336 25.072 18.3433 25.2255 18.3433 25.3407L18.3142 26.3289C18.3142 26.5783 18.3046 26.847 18.4497 27.0581C18.5949 27.2691 18.9433 27.3459 19.0982 27.154C19.1853 27.0389 19.1853 26.8758 19.1756 26.7318C19.1369 26.137 19.0885 25.5517 19.0498 24.9569C19.0111 24.4196 19.1853 24.0742 19.5531 23.6904C19.9789 23.2491 20.3757 22.7885 20.7822 22.328C20.7338 22.3856 23.2986 25.2927 23.5309 25.5709C23.7438 25.83 23.9567 26.0794 24.1697 26.3385C24.431 26.6455 24.673 27.0485 24.973 27.3171C25.244 27.5666 25.244 27.3267 25.4956 27.2212C25.9505 27.0197 26.4151 26.895 26.8603 26.6359C26.2796 25.9835 25.8247 25.2159 25.544 24.3908C25.9408 24.7842 26.328 25.1776 26.7248 25.5709C27.0151 25.8588 27.3732 25.5997 27.6926 25.475C27.9636 25.3694 28.2637 25.2927 28.5056 25.1392C29.1444 24.7458 28.3217 24.1222 28.0217 23.7576C26.928 22.4432 25.8344 21.1479 24.7213 19.8431C24.6439 19.7471 23.8019 18.8165 23.8213 18.7877C25.5343 16.7633 27.2087 14.7101 28.8347 12.6281L28.8153 12.6473Z" fill="#F24A20"/>
<defs>
<linearGradient id="paint0_linear_879_844" x1="19.9582" y1="-1.05327" x2="20.1622" y2="18.3562" gradientUnits="userSpaceOnUse">
<stop stop-color="#CF5C2B"/>
<stop offset="1" stop-color="#59173E"/>
</linearGradient>
<linearGradient id="paint1_linear_879_844" x1="34.5029" y1="-7.43177" x2="-0.441117" y2="57.3929" gradientUnits="userSpaceOnUse">
<stop stop-color="#CF5C2B"/>
<stop offset="1" stop-color="#59173E"/>
</linearGradient>
<linearGradient id="paint2_linear_879_844" x1="30.5702" y1="-0.139464" x2="-4.37379" y2="64.6852" gradientUnits="userSpaceOnUse">
<stop stop-color="#CF5C2B"/>
<stop offset="1" stop-color="#59173E"/>
</linearGradient>
<linearGradient id="paint3_linear_879_844" x1="35.1539" y1="-1.20783" x2="35.3578" y2="18.2015" gradientUnits="userSpaceOnUse">
<stop stop-color="#CF5C2B"/>
<stop offset="1" stop-color="#59173E"/>
</linearGradient>
<linearGradient id="paint4_linear_879_844" x1="8.17676" y1="-0.933507" x2="8.3807" y2="18.476" gradientUnits="userSpaceOnUse">
<stop stop-color="#CF5C2B"/>
<stop offset="1" stop-color="#59173E"/>
</linearGradient>
<linearGradient id="paint5_linear_879_844" x1="36.0675" y1="-1.21549" x2="36.2715" y2="18.1869" gradientUnits="userSpaceOnUse">
<stop stop-color="#CF5C2B"/>
<stop offset="1" stop-color="#59173E"/>
</linearGradient>
<linearGradient id="paint6_linear_879_844" x1="15.2175" y1="-8.48648" x2="8.81798" y2="14.0594" gradientUnits="userSpaceOnUse">
<stop stop-color="#CF5C2B"/>
<stop offset="1" stop-color="#59173E"/>
</linearGradient>
<linearGradient id="paint7_linear_879_844" x1="7.09741" y1="4.03145" x2="3.36321" y2="18.1033" gradientUnits="userSpaceOnUse">
<stop stop-color="#CF5C2B"/>
<stop offset="1" stop-color="#59173E"/>
</linearGradient>
</defs>
</svg>
