<svg width="234" height="30" viewBox="0 0 234 30" fill="none" xmlns="http://www.w3.org/2000/svg">
<path d="M233.6 6.43625C233.27 2.94625 230.61 0.286263 227.45 0.266263C153.11 -0.0837368 79.7903 -0.0937368 7.59028 0.266263C6.77028 0.266263 5.94028 0.456251 5.19028 0.816251C4.60028 1.09625 4.00028 1.47625 3.54028 1.97625C3.10028 2.45625 2.70028 3.00625 2.35028 3.56625C1.94028 4.22625 1.58028 4.92625 1.27028 5.65625C0.820279 6.73625 0.400279 7.95626 0.280279 9.13626C-0.139721 13.5563 -0.0697213 17.9962 0.370279 22.4562C0.710279 25.9162 3.31028 28.5663 6.45028 28.6063C78.5103 29.6863 151.81 29.6463 226.2 28.6063C227.75 28.5863 229.26 27.9062 230.38 26.7162C230.57 26.5162 230.72 26.3062 230.93 26.1262C231.05 26.0162 231.12 25.8662 231.2 25.7162C231.4 25.3462 231.59 24.9662 231.78 24.5862C232.15 23.8262 232.5 23.0463 232.83 22.2563C232.92 22.0463 233.04 21.8263 233.09 21.5963C233.13 21.4163 233.16 21.2463 233.22 21.0663C233.36 20.6063 233.46 20.1262 233.5 19.6462C233.94 15.1562 234.02 10.7462 233.61 6.43625H233.6Z" fill="url(#paint0_linear_931_30)"/>
<path d="M233.741 13.9567C233.791 15.8767 233.671 17.7467 233.481 19.6467C233.411 20.3867 233.231 21.0967 232.971 21.7467C232.771 22.2467 232.511 22.7067 232.221 23.1367C231.091 24.7567 229.341 25.7867 227.381 25.8167C226.501 25.8367 225.621 25.8467 224.751 25.8467C222.561 25.8767 220.361 25.9067 218.161 25.9367C215.971 25.9667 213.771 25.9867 211.571 26.0167H211.531L205.001 26.0967C203.161 26.1267 201.311 26.1367 199.471 26.1667C199.121 26.1667 198.771 26.1667 198.421 26.1667C196.231 26.1867 194.041 26.2067 191.861 26.2267C191.201 26.2267 190.531 26.2767 189.881 26.2467C189.211 26.2167 188.531 26.1567 187.871 26.1567C187.751 26.1567 187.621 26.1567 187.521 26.0767C187.331 25.9567 187.271 25.6767 187.241 25.4367C187.191 25.0467 187.151 24.6667 187.121 24.2767C187.061 23.5567 187.041 22.8367 187.061 22.1067C187.021 23.1767 186.811 24.2167 186.461 25.2067C186.431 25.2967 186.401 25.3867 186.361 25.4767C186.241 25.7667 186.071 26.0967 185.791 26.1367C185.571 26.1767 185.361 26.0467 185.131 26.0567C184.971 26.0567 184.911 26.1567 184.771 26.2367C184.681 26.2767 184.611 26.2867 184.511 26.2967C183.901 26.3867 183.221 26.3167 182.601 26.3167C181.311 26.3367 180.021 26.3467 178.731 26.3467C176.551 26.3667 174.371 26.3767 172.191 26.3967C170.341 26.4167 168.491 26.4267 166.641 26.4267C166.311 26.4267 165.971 26.4267 165.641 26.4267C164.531 26.4267 163.431 26.4467 162.321 26.4567C161.251 26.4567 160.171 26.4567 159.101 26.4767C156.921 26.4767 154.741 26.5067 152.571 26.5067C150.401 26.5067 148.221 26.5267 146.051 26.5367C145.081 26.5367 144.111 26.5367 143.151 26.5367C141.941 26.5367 140.731 26.5367 139.531 26.5567C137.541 26.5567 135.541 26.5567 133.561 26.5767H131.611C130.701 26.5767 129.791 26.5767 128.871 26.5767C128.341 26.5767 127.811 26.5767 127.271 26.5967C126.121 26.6167 124.971 26.6367 123.821 26.5767C122.301 26.4967 120.211 27.2667 118.951 26.0167C118.831 25.8967 118.711 25.7567 118.621 25.6067C118.301 25.1267 118.121 24.5367 117.951 23.9567C117.931 24.7067 117.911 25.4467 117.901 26.1867C117.901 26.3967 117.901 26.5967 117.881 26.8067C116.971 26.6667 116.071 26.5567 115.151 26.4667C114.581 26.4167 114.021 26.3667 113.451 26.3267H113.401C113.191 26.3067 112.971 26.2967 112.761 26.2967C112.741 26.2967 112.721 26.2967 112.701 26.2967C112.171 26.2967 111.621 26.3867 111.161 26.6767C110.661 25.7567 110.151 24.8367 109.661 23.9167C109.641 23.9167 109.641 23.8967 109.641 23.8867C109.311 23.2667 108.971 22.6567 108.641 22.0467C108.941 23.1767 109.251 24.2967 109.551 25.4167C109.581 25.5267 109.601 25.6367 109.611 25.7567C109.631 25.9067 109.611 26.0567 109.521 26.1667C109.291 26.4567 108.881 26.2567 108.581 26.3067C108.431 26.3367 108.361 26.4267 108.221 26.4967C107.861 26.6767 107.421 26.5867 107.031 26.5867C104.871 26.5867 102.711 26.5867 100.551 26.5867C98.3907 26.5867 96.2307 26.5867 94.0707 26.5667C92.7607 26.5667 91.4507 26.5667 90.1407 26.5467H89.9607C89.1807 26.5467 88.3907 26.5467 87.6007 26.5467C85.4507 26.5467 83.2907 26.5467 81.1407 26.5167C80.5307 26.5167 79.9107 26.5167 79.3007 26.5167C77.7607 26.5167 76.2207 26.5167 74.6907 26.4967C73.1507 26.4967 71.6107 26.4767 70.0707 26.4667C69.4607 26.4667 68.8507 26.4667 68.2307 26.4667C66.0807 26.4667 63.9407 26.4367 61.7907 26.4267C59.6407 26.4167 57.5007 26.3967 55.3507 26.3767C53.4507 26.3567 51.5707 26.3467 49.6707 26.3367C49.4207 26.3367 49.1707 26.3367 48.9207 26.3367C48.0807 26.3367 47.2507 26.3367 46.4207 26.3367C43.9607 26.3067 41.5107 26.2467 39.0507 26.1767C38.8307 26.1767 36.3807 26.3267 36.6707 25.7667V25.7467C36.7607 25.5967 36.9407 25.4767 37.0407 25.3467C37.3307 24.9967 37.5707 24.5967 37.8007 24.2067C37.8907 24.0567 37.9707 23.8967 38.0607 23.7467C38.4207 23.0967 38.7707 22.4367 39.2307 21.8567C39.3607 21.6867 39.5107 21.5167 39.6707 21.3667C39.7407 21.2967 39.8007 21.2267 39.8907 21.2167C39.9507 21.1967 40.1107 21.2467 40.1507 21.1867C40.2607 21.0367 39.5707 20.7267 39.4807 20.6767C39.0907 21.1667 38.7807 21.7667 38.4407 22.2967C38.0907 22.8367 37.7407 23.3767 37.3907 23.9167C37.0307 24.4967 36.6407 25.0867 36.1507 25.5567C36.1307 25.5567 36.1207 25.5867 36.1007 25.5967C35.8507 25.8167 35.5707 25.9867 35.2607 26.0967C33.8307 26.6367 31.8907 26.1167 30.4907 26.0967C28.4607 26.0667 26.4307 26.0967 24.4007 26.0667H23.8007C18.4007 25.9967 13.0007 25.9167 7.59069 25.8467C4.45069 25.7967 1.86069 23.1467 1.51069 19.6867C1.43069 18.8567 1.36069 18.0067 1.30069 17.1667C1.24069 16.2167 0.870691 14.8667 1.43069 14.0367C1.48069 13.9567 1.54069 13.8567 1.62069 13.8067C1.74069 13.7067 1.95069 13.7467 2.10069 13.7267C3.17069 13.6367 4.25069 13.5667 5.32069 13.4767C5.38069 13.4767 5.45069 13.4767 5.51069 13.4967C5.65069 13.5567 5.69069 13.7567 5.71069 13.9167C5.73069 14.1167 5.75069 14.3067 5.77069 14.4967C5.79069 13.9167 5.80069 13.3667 5.80069 12.8167C5.80069 12.3967 5.78069 11.9867 5.77069 11.5467C5.71069 11.6867 5.70069 11.8467 5.67069 11.9967C5.59069 12.3067 5.38069 12.5567 5.13069 12.6767C5.00069 12.7467 4.87069 12.7667 4.73069 12.7767C4.50069 12.7767 4.27069 12.8367 4.04069 12.8567C3.53069 12.8967 3.00069 12.8867 2.49069 12.8267C2.32069 12.8067 2.14069 12.7767 1.97069 12.7367C1.79069 12.6767 1.61069 12.5967 1.46069 12.4667C1.36069 12.3767 1.36069 12.3367 1.33069 12.1967C1.28069 11.9867 1.23069 11.7967 1.18069 11.5867C0.990691 10.7867 1.18069 9.84668 1.22069 9.03668C1.27069 8.15668 1.34069 7.21667 1.41069 6.36667C1.74069 2.91667 4.40069 0.296682 7.54069 0.286682C8.94069 0.286682 10.3507 0.266693 11.7507 0.266693C12.8107 0.266693 13.8707 0.266674 14.9407 0.246674H15.3107C17.8407 0.226674 20.3807 0.216675 22.9107 0.216675C24.0307 0.216675 25.1607 0.216675 26.2807 0.216675C26.9507 0.216675 27.6407 0.216675 28.3207 0.216675C29.6007 0.216675 30.8807 0.216686 32.1607 0.196686C33.8007 0.196686 35.4507 0.196666 37.0907 0.176666C38.7307 0.156666 40.3807 0.176677 42.0107 0.156677C43.6607 0.156677 45.3007 0.156688 46.9507 0.136688C48.6007 0.116688 50.2407 0.136669 51.8807 0.116669C53.5307 0.116669 55.1707 0.11668 56.8207 0.0966797H58.8107C59.3107 0.0966797 59.8307 0.0966797 60.3407 0.0966797H61.0907C62.8207 0.0966797 64.5507 0.0966797 66.2907 0.0966797C67.7207 0.0966797 69.1507 0.0966797 70.5807 0.0966797H72.3607C73.6507 0.0966797 74.9607 0.0966797 76.2507 0.0966797C77.8907 0.0966797 79.5407 0.0966797 81.1707 0.0966797C84.2107 0.0966797 87.2507 0.0966797 90.2807 0.0966797H91.3207C94.5107 0.0966797 97.7107 0.0966797 100.911 0.0966797H108.511C111.121 0.0966797 113.731 0.0966797 116.351 0.0966797C123.531 0.0966797 130.731 0.0966687 137.931 0.116669C139.771 0.116669 141.601 0.116669 143.441 0.116669C145.631 0.116669 147.801 0.116669 149.991 0.116669C152.181 0.116669 154.381 0.116669 156.581 0.116669H158.271C158.921 0.116669 159.581 0.116669 160.241 0.116669H161.501C163.561 0.116669 165.621 0.116688 167.691 0.136688C169.411 0.136688 171.131 0.136688 172.851 0.136688C183.541 0.166688 194.251 0.196664 204.991 0.236664C207.381 0.236664 209.761 0.256693 212.151 0.266693C213.101 0.266693 214.031 0.266682 214.981 0.286682C216.021 0.286682 217.061 0.286682 218.101 0.286682C221.191 0.306682 224.281 0.316691 227.381 0.326691C230.151 0.326691 232.841 2.55668 233.411 5.62668C233.461 5.93668 233.461 6.25668 233.451 6.56668C233.451 7.08668 233.421 7.54667 233.191 7.99667C233.191 8.01667 233.191 8.02668 233.171 8.03668C232.831 8.66668 232.271 9.10667 231.731 9.52667C231.271 9.88667 230.821 10.2367 230.371 10.5967C229.901 10.9667 229.411 11.3667 229.181 11.9667C229.091 12.1967 229.061 12.4467 229.061 12.6967C229.041 13.0567 229.101 13.4167 229.151 13.7667C229.151 13.2867 229.241 12.7767 229.501 12.3967C229.631 12.2167 229.791 12.0667 229.961 11.9267C230.911 11.1067 231.851 10.2667 232.801 9.44669C232.981 9.29669 233.181 9.13669 233.391 9.19669C233.851 9.32669 233.671 13.4967 233.681 13.9967L233.741 13.9567Z" fill="url(#paint1_linear_931_30)"/>
<path d="M5.94016 11.1958C5.94016 11.1958 5.94016 11.2858 5.94016 11.3358C5.94016 11.4758 5.94016 11.6258 5.92016 11.7658C5.92016 11.8158 5.91016 11.8758 5.89016 11.9158C5.87016 11.9558 5.84016 11.9858 5.81016 12.0258C5.68016 12.1858 5.61016 12.4058 5.44016 12.5258C5.37016 12.5758 5.29016 12.5958 5.21016 12.6158C4.94016 12.6858 4.67016 12.7558 4.41016 12.8358C4.66016 12.6958 4.90016 12.5558 5.14016 12.4058C5.23016 12.3458 5.33016 12.2858 5.39016 12.1858C5.42016 12.1258 5.44016 12.0558 5.46016 11.9858C5.48016 11.9058 5.49016 11.8158 5.51016 11.7358C5.56016 11.4458 5.57016 11.1558 5.56016 10.8558C5.56016 10.7958 5.55016 10.7358 5.56016 10.6758C5.57016 10.6358 5.59016 10.5958 5.60016 10.5458C5.68016 10.2058 5.73016 9.84578 5.77016 9.48578C5.79016 9.29578 5.81016 9.1058 5.82016 8.9158C5.83016 8.7558 5.85016 8.58578 5.84016 8.42578C5.88016 9.34578 5.91016 10.2758 5.95016 11.1958H5.94016Z" fill="#EB924D"/>
<path d="M233.742 13.9565C233.792 15.8765 233.672 17.7465 233.482 19.6465C233.412 20.3865 233.232 21.0965 232.972 21.7465C232.772 22.2465 232.512 22.7065 232.222 23.1365C232.402 22.3565 232.552 21.5665 232.662 20.7665C232.992 18.4865 233.082 16.1765 233.082 13.8765C233.082 12.7265 233.102 11.5565 233.042 10.4065C233.022 9.98648 232.772 10.1465 232.542 10.3265C231.742 10.9665 230.872 11.4965 230.192 12.3065C229.882 12.6765 229.622 13.0965 229.442 13.5565C229.142 14.2765 229.062 15.0465 229.132 15.8365C229.162 16.1765 229.132 16.5165 229.082 16.8565C229.042 17.1065 228.992 17.3465 228.932 17.5865C228.902 17.7065 228.862 17.8165 228.822 17.9365C228.802 18.0165 228.702 18.1665 228.702 18.2365C228.642 17.0065 228.582 15.7865 228.552 14.5465C228.552 14.1465 228.532 13.7165 228.682 13.3465C228.782 13.0865 228.952 12.8765 229.112 12.6565C229.092 13.0165 229.152 13.3765 229.202 13.7265C229.202 13.2465 229.292 12.7365 229.552 12.3565C229.682 12.1765 229.842 12.0265 230.012 11.8865C230.962 11.0665 231.902 10.2265 232.852 9.40648C233.032 9.25648 233.232 9.09648 233.442 9.15648C233.902 9.28648 233.722 13.4565 233.732 13.9565H233.742Z" fill="#EB924D"/>
<path d="M35.3091 26.0759C33.8791 26.6159 31.9391 26.0959 30.5391 26.0759C28.5091 26.0459 26.4791 26.0759 24.4491 26.0459C24.4091 25.9559 24.3691 25.8658 24.3291 25.7758C24.3091 25.7458 24.2991 25.7358 24.2791 25.7058C22.2991 23.0158 20.4891 20.2459 18.9991 17.1859C16.3091 11.6359 14.8591 5.48585 11.7891 0.24585C12.8491 0.24585 13.9091 0.245861 14.9791 0.225861C15.1691 0.455861 15.3391 0.685842 15.5191 0.925842C15.4591 0.695842 15.3991 0.465861 15.3491 0.225861C17.8791 0.205861 20.4191 0.195862 22.9491 0.195862C24.6891 4.94586 26.6091 9.61585 28.7191 14.1559C30.5391 18.0859 33.1791 22.0259 35.3091 26.0759ZM38.9591 12.7159C35.6291 8.23585 32.0991 4.08584 28.3691 0.175842C27.6891 0.175842 27.0091 0.175842 26.3291 0.175842C30.5491 4.65584 34.4991 9.40585 38.2091 14.5858C40.8891 18.3258 43.5391 22.4758 46.4491 26.3058C47.2891 26.3058 48.1191 26.3058 48.9491 26.3058C49.1991 26.3058 49.4491 26.3058 49.6991 26.3058C46.0591 21.8458 42.4391 17.3759 38.9591 12.6959V12.7159ZM76.3591 13.6458C75.2391 9.02584 73.9991 4.47587 72.4091 0.0458679H70.6291C71.8691 4.81587 72.7091 9.67586 73.4091 14.5959C73.3391 14.4459 73.2591 14.2959 73.1991 14.1359C71.1991 9.76586 69.1491 4.39585 66.3291 0.0558472C64.5891 0.0558472 62.8591 0.0558472 61.1291 0.0558472C61.7291 2.49585 62.6691 4.86585 63.4491 7.18585C64.6391 10.7559 65.9691 14.2658 67.2191 17.8058C68.1691 20.4758 69.0191 23.5359 70.0991 26.4659C71.6391 26.4859 73.1791 26.4958 74.7191 26.4958C76.2491 26.4958 77.7891 26.4959 79.3291 26.5159C78.7491 22.1559 77.3691 17.7659 76.3591 13.6359V13.6458ZM122.769 11.7659C121.199 8.03587 119.579 4.02585 117.119 0.935852C116.869 0.625852 116.639 0.315859 116.409 0.00585938C113.709 0.00585938 111.009 0.00585938 108.309 0.00585938C108.679 1.62586 109.239 3.21586 109.599 5.09586C110.379 9.19586 111.769 13.1859 112.759 17.2659C113.279 19.3759 113.989 23.0958 115.179 26.4858C116.089 26.5758 116.999 26.6959 117.909 26.8259C117.929 25.8859 117.959 24.9358 117.979 23.9858C118.199 24.7458 118.449 25.5259 118.989 26.0459C120.249 27.2959 122.349 26.5259 123.859 26.6059C125.009 26.6659 126.159 26.6359 127.309 26.6259C127.209 21.5059 124.169 15.0858 122.779 11.7758L122.769 11.7659ZM143.149 19.8559C143.269 13.6059 144.409 6.45587 143.509 0.0158691C141.669 0.0158691 139.839 0.0158691 137.999 0.0158691C135.899 5.26587 135.209 11.4959 134.529 16.9059C134.259 19.0659 133.519 22.9458 133.479 26.5858C135.499 26.5858 137.529 26.5859 139.559 26.5659C140.759 26.5659 141.969 26.5659 143.179 26.5459C143.289 23.8659 143.129 21.2559 143.149 19.8459V19.8559ZM167.759 0.0658569C166.739 3.24586 166.059 6.64585 165.289 9.68585C163.829 15.4059 162.519 20.6759 162.349 26.4759C163.459 26.4759 164.559 26.4559 165.669 26.4459C165.999 26.4459 166.339 26.4459 166.669 26.4459C168.239 21.7659 169.119 17.0559 170.169 12.0359C170.959 8.24586 172.289 4.13587 172.939 0.0758667C171.219 0.0758667 169.499 0.0758667 167.779 0.0758667L167.759 0.0658569ZM215.049 0.215851C213.469 5.09585 211.829 9.97587 210.089 14.7959C210.399 12.9959 210.709 11.2159 211.019 9.41586C211.479 6.72586 212.259 3.33586 212.219 0.195862C209.829 0.195862 207.449 0.175863 205.059 0.165863C203.729 3.82586 203.089 8.20587 202.399 11.0459C201.249 15.8259 199.629 21.0559 199.479 26.1559C201.319 26.1259 203.159 26.1158 205.009 26.0858L211.539 26.0059C212.619 23.2559 213.469 20.3659 214.289 17.6259C216.019 11.8559 217.299 6.15585 218.169 0.215851C217.129 0.215851 216.089 0.215851 215.049 0.215851Z" fill="url(#paint2_linear_931_30)"/>
<path d="M156.189 20.3266C156.439 20.3466 156.689 20.3766 156.939 20.4066C157.209 20.4366 157.479 20.4766 157.739 20.5166C157.969 20.5566 158.159 20.5466 158.389 20.5366C160.589 20.4766 162.779 20.4666 164.979 20.4266C167.179 20.3866 169.369 20.3566 171.569 20.3166L178.159 20.2066L184.749 20.0966C186.949 20.0566 189.139 20.0266 191.339 19.9866L197.929 19.8766C200.129 19.8366 202.319 19.8066 204.519 19.7666L211.109 19.6566C212.079 19.6366 213.039 19.6266 214.009 19.6066C217.049 19.5566 220.099 19.5066 223.129 19.2966C224.419 19.2066 225.759 19.0766 226.899 18.4066C228.039 17.7266 229.319 16.1966 229.149 14.7666C229.119 16.1166 229.089 17.4666 229.059 18.8166C229.039 19.5766 228.979 20.4366 228.449 20.9166C227.959 21.3466 227.269 21.2966 226.649 21.2366C221.009 20.7066 215.359 21.8866 209.699 21.8866C206.419 21.8866 203.139 21.4866 199.859 21.4166C193.139 21.2666 186.679 21.1266 179.959 21.4366C174.119 21.7066 168.279 21.9666 162.449 21.6666C161.629 21.6266 160.799 21.5666 159.999 21.7766C159.499 21.9066 159.029 22.1266 158.519 22.2066C157.969 22.2966 157.409 22.2066 156.859 22.1166C155.949 21.9766 155.039 21.8266 154.129 21.6866C153.709 21.6166 153.219 21.4566 152.789 21.4866C152.719 21.4866 152.669 21.5166 152.599 21.5266C152.299 21.5866 151.979 21.5666 151.679 21.5766C150.619 21.6166 149.549 21.6266 148.489 21.6466C143.909 21.7066 139.329 21.7766 134.759 21.8366C129.029 21.9166 123.309 20.7466 117.649 21.6566C112.879 22.4266 108.009 21.3266 103.219 21.8366C102.449 21.9166 101.679 22.0466 100.899 22.0466C99.9892 22.0466 99.0792 21.9066 98.1792 21.7966C94.6992 21.3966 91.1992 21.6766 87.7092 21.9666C87.6592 22.2966 87.6892 22.6366 87.7892 22.9566C86.6592 21.6566 84.8392 21.6066 83.2192 21.6466C81.7792 21.6766 80.3292 21.6966 78.8892 21.6966C67.9092 21.6966 56.9192 21.3766 45.9392 21.4766C43.5192 21.4966 41.0892 21.5366 38.6992 21.9266C39.5492 20.9466 40.8792 20.7466 42.0992 20.5966C47.4492 19.9466 52.8592 20.7066 58.2392 20.9166C63.2692 21.1166 68.2792 20.2766 73.2892 19.8366C75.7792 19.6166 78.2792 19.4866 80.7792 19.6366C81.9292 19.7066 83.0492 19.9066 84.1892 20.0366C84.3592 20.0566 84.4992 20.0366 84.6592 19.9966C85.1392 19.9166 85.6792 20.0366 86.1592 20.0666C86.7092 20.1066 87.2492 20.1366 87.7992 20.1666C88.8892 20.2266 89.9892 20.2666 91.0792 20.2866C93.2692 20.3466 95.4592 20.3566 97.6392 20.3466C99.8292 20.3466 102.019 20.3166 104.209 20.2966C106.399 20.2866 108.589 20.2766 110.779 20.3166C111.339 20.3166 111.899 20.3366 112.449 20.3566C119.289 20.5366 126.179 21.1766 132.959 20.1166C133.429 20.0466 133.919 19.9066 134.379 20.0366C134.599 20.0966 134.809 20.0666 135.029 20.0666C135.579 20.0466 136.129 20.0366 136.679 20.0266C137.779 20.0066 138.869 19.9966 139.969 20.0066C141.529 20.0066 143.089 20.0366 144.639 20.0666C147.139 20.1066 149.639 20.1466 152.129 20.1866C153.199 20.2066 154.269 20.2266 155.339 20.2866C155.629 20.3066 155.919 20.3266 156.199 20.3566L156.189 20.3266Z" fill="#EB924D"/>
<path d="M36.1905 25.5261C36.1905 25.5261 36.1605 25.5561 36.1405 25.5661C35.8905 25.7861 35.6105 25.9561 35.3005 26.0661C33.8705 26.6061 31.9305 26.0861 30.5305 26.0661C28.5005 26.0361 26.4705 26.0661 24.4405 26.0361H23.8405C18.4405 25.9661 13.0405 25.8861 7.63047 25.8161C4.94047 25.7761 2.73047 23.8561 1.87047 21.0661C1.30047 19.2061 1.26047 17.2161 1.23047 15.2561C1.23047 14.7261 1.26047 14.0961 1.68047 13.8361C1.85047 13.7261 2.05047 13.7061 2.25047 13.6961C3.05047 13.6261 3.86047 13.5561 4.66047 13.4861C4.96047 13.4561 5.27047 13.4361 5.54047 13.5961C5.81047 13.7561 5.97047 14.1461 5.81047 14.4261C5.83047 13.8861 5.85047 13.3561 5.88047 12.8161C6.17047 12.7961 6.45047 12.7661 6.74047 12.7461C6.61047 14.7061 6.59047 16.6761 6.68047 18.6461C6.70047 19.1961 6.77047 19.8261 7.16047 20.1561C7.46047 20.4061 7.86047 20.4261 8.23047 20.4361C18.6405 20.6361 29.0405 20.8161 39.4505 20.9561C39.0805 21.4661 38.7205 21.9761 38.3505 22.4861C38.6205 22.2161 38.4905 21.6761 38.1905 21.4561C37.8905 21.2261 37.5005 21.2161 37.1405 21.2161C27.5705 21.2061 18.0105 21.1361 8.45047 20.9961C7.72047 20.9861 6.91047 20.9461 6.38047 20.3861C5.85047 19.8261 5.76047 18.9361 5.71047 18.1361C5.64047 17.0461 5.57047 15.9561 5.50047 14.8661C5.48047 14.6261 5.46047 14.3561 5.31047 14.1761C5.19047 14.0461 5.02047 13.9861 4.85047 13.9461C3.93047 13.7461 2.96047 13.9261 2.15047 14.4561C2.02047 14.5461 1.89047 14.6461 1.82047 14.7861C1.77047 14.8861 1.76047 15.0061 1.75047 15.1161C1.56047 16.8661 1.25047 20.1061 2.40047 21.4961C3.18047 22.4561 3.73047 23.6861 4.69047 24.4561C5.87047 25.4061 7.53047 25.4761 8.93047 25.5561C10.2405 25.6261 11.5405 25.6861 12.8505 25.7361C13.2505 25.7461 13.6405 25.8161 14.0405 25.7961C14.2005 25.7961 14.3605 25.7361 14.5205 25.7461C14.6505 25.7461 14.7405 25.7461 14.8605 25.6861C15.1305 25.5361 15.3305 25.2561 15.4805 24.9761C15.6805 24.5961 15.8205 24.1761 16.0805 23.8461C15.9305 24.2161 15.8605 24.6461 15.8905 25.0561C15.8905 25.1261 15.9005 25.1961 15.9205 25.2561C15.9605 25.3761 16.0505 25.4161 16.1605 25.4361C16.5605 25.4961 16.9805 25.4761 17.3805 25.4961C18.2005 25.5361 19.0205 25.5661 19.8405 25.5961C21.4805 25.6561 23.1305 25.6861 24.7705 25.6961C25.5805 25.6961 26.4105 25.7661 27.2205 25.6961C27.3405 25.6961 27.4505 25.6261 27.5705 25.6161C27.7705 25.5961 27.9705 25.6261 28.1705 25.6361C28.5805 25.6561 28.9905 25.6661 29.4005 25.6861C30.5005 25.7361 31.6105 25.8461 32.7105 25.8461C33.3505 25.8761 34.0005 25.9061 34.6505 25.9361C35.2905 25.9661 35.7005 25.7961 36.2205 25.5361L36.1905 25.5261Z" fill="#EB924D"/>
<path d="M115.331 21.4665C78.9709 21.4665 42.7609 21.1965 7.69091 20.6665C6.91091 20.6565 6.25091 19.9865 6.17091 19.1065C5.74091 14.7465 5.71091 10.7565 6.08091 6.89651C6.16091 6.07651 6.83091 5.42651 7.61091 5.42651C18.3509 5.37651 29.0909 5.32653 39.8209 5.28653C50.5809 5.28653 61.3409 5.22652 72.1109 5.18652C73.8309 5.18652 75.6809 5.48652 77.3109 4.83652C78.7109 4.12652 79.8409 2.93651 81.0809 1.92651C80.5009 2.62651 79.9109 3.31653 79.3809 4.06653C79.2909 4.18653 79.1509 4.31651 79.0809 4.45651C78.9009 4.80651 79.1909 4.96651 79.4609 4.98651C80.6209 5.05651 81.7909 5.11652 82.9509 5.18652C83.4709 5.21652 83.9809 5.20653 84.5009 5.16653C84.7009 5.15653 84.9109 5.20651 85.1109 5.20651C85.3809 5.20651 85.6609 5.20651 85.9309 5.20651C87.0209 5.20651 88.1209 5.19652 89.2109 5.18652C89.6409 5.18652 90.0609 5.18652 90.4909 5.18652C92.6909 5.18652 94.8809 5.18652 97.0809 5.18652C99.2809 5.18652 101.471 5.18652 103.671 5.18652C105.871 5.18652 108.071 5.18652 110.261 5.18652C112.111 5.18652 113.951 5.18652 115.801 5.18652C121.181 5.18652 126.571 5.18652 131.951 5.18652C134.691 5.18652 137.421 5.18652 140.161 5.18652C140.821 5.18652 141.481 5.18652 142.131 5.18652C142.411 5.18652 142.661 5.13653 142.931 5.22653C143.111 5.28653 143.271 5.30654 143.461 5.29654C143.961 5.29654 144.461 5.25651 144.951 5.17651C145.211 5.13651 145.481 5.07651 145.731 4.98651C146.161 4.82651 146.551 4.54653 146.901 4.22653C147.201 3.94653 147.461 3.62651 147.821 3.45651C148.211 3.26651 148.531 2.99652 148.881 2.71652C149.321 2.35652 149.761 1.99654 150.201 1.63654C150.591 1.31654 150.971 1.00652 151.361 0.686523C150.221 2.29652 148.531 3.41651 147.711 5.23651C147.751 5.14651 148.371 5.13653 148.471 5.12653C148.741 5.09653 149.001 5.07653 149.271 5.06653C149.801 5.04653 150.341 5.06653 150.871 5.12653C151.921 5.24653 152.991 5.19653 154.051 5.19653C156.221 5.19653 158.391 5.19651 160.571 5.20651C162.751 5.20651 164.921 5.20652 167.101 5.21652C169.281 5.21652 171.461 5.21651 173.641 5.23651C175.821 5.23651 178.011 5.24653 180.191 5.25653C182.381 5.25653 184.571 5.26652 186.751 5.27652C188.941 5.27652 191.131 5.28654 193.321 5.29654C195.511 5.29654 197.711 5.30653 199.901 5.31653C202.091 5.31653 204.291 5.33652 206.481 5.33652C208.681 5.33652 210.871 5.35652 213.071 5.36652C215.271 5.36652 217.461 5.38651 219.661 5.39651C221.861 5.39651 224.061 5.41651 226.251 5.42651C226.631 5.42651 227.021 5.42651 227.401 5.42651C228.201 5.42651 228.871 6.09652 228.951 6.96652C229.311 10.7565 229.271 14.7265 228.841 19.0865C228.751 19.9765 228.091 20.6465 227.301 20.6665C189.461 21.1965 151.781 21.4665 115.311 21.4665H115.331Z" fill="url(#paint3_linear_931_30)"/>
<path d="M226.442 13.6659C226.702 14.3659 226.842 15.1359 226.822 15.8959C226.822 16.1159 226.632 18.0959 226.622 18.0959C225.462 18.1159 224.302 18.1259 223.132 18.1459C219.572 18.1959 216.012 18.2359 212.452 18.2759C211.622 18.2959 210.782 18.3059 209.952 18.3059C206.832 18.3459 203.712 18.3859 200.592 18.4159C199.332 18.4359 198.072 18.4459 196.812 18.4559C196.642 18.4559 196.472 18.4559 196.302 18.4559C195.672 18.4559 195.042 18.4559 194.422 18.4759C190.852 18.5059 187.272 18.5459 183.702 18.5659C179.412 18.5959 175.092 18.8059 170.812 18.5359C170.482 18.5159 170.082 18.4559 169.932 18.1359C169.802 17.8659 169.902 17.5359 170.002 17.2559C170.382 16.2059 170.752 15.1559 171.122 14.1159C170.322 15.3359 169.452 16.4959 168.512 17.5859C168.152 17.9959 167.772 18.4059 167.312 18.6559C167.222 18.7059 167.132 18.7459 167.042 18.7659C166.712 18.8759 166.392 18.8659 166.032 18.7659C165.502 18.6159 164.932 18.7059 164.392 18.7059C163.852 18.7059 163.262 18.7059 162.692 18.7059C162.052 18.7059 161.412 18.7059 160.782 18.7259C155.662 18.7559 150.542 18.7759 145.412 18.7959C144.192 18.7959 142.982 18.7959 141.772 18.7959C139.572 18.8159 137.372 18.8159 135.172 18.8159C131.332 18.8359 127.492 18.8459 123.652 18.8459C120.882 18.8459 118.112 18.8459 115.332 18.8459H107.562C103.172 18.8459 98.7917 18.8259 94.4117 18.8159H93.4817C89.4117 18.8159 85.3417 18.7859 81.2817 18.7659C80.1917 18.7659 79.0917 18.7659 78.0017 18.7459H77.9417C77.4217 18.7459 76.8917 18.7459 76.3717 18.7459C76.0417 18.7459 75.6717 18.7159 75.3217 18.7159C75.1717 18.7159 75.0117 18.7359 74.8617 18.7659C73.9517 18.9759 73.0717 18.9659 72.1417 18.9759C71.9517 18.9759 71.7517 18.9759 71.5517 18.9759C71.2017 18.9759 70.8517 18.9759 70.5017 18.9959C70.3217 18.9959 69.0017 18.8959 68.9317 19.0259C69.4217 18.0559 69.9617 17.1259 70.5717 16.2459C70.9317 15.6959 71.3317 15.1759 71.7417 14.6659C71.2317 14.9159 70.7717 15.2659 70.3417 15.6659C69.8017 16.1659 69.2917 16.7359 68.7717 17.2459C67.9917 18.0159 66.9317 18.8859 65.8217 18.8759C65.4917 18.8759 65.1917 18.6959 64.8717 18.6559C64.8517 18.6559 64.8217 18.6559 64.8017 18.6559C64.4817 18.6259 64.1317 18.6559 63.8117 18.6759C63.0717 18.6759 62.3317 18.7059 61.5917 18.7059C61.4117 18.7059 61.2017 18.7059 61.0917 18.5459C60.9717 18.3659 61.0417 18.0959 61.1417 17.8859C61.6017 16.7559 62.1517 15.6759 62.7617 14.6459C61.7117 15.3959 60.9817 16.5859 60.0417 17.5159C59.6017 17.9459 59.0917 18.3159 58.5317 18.5259C57.9317 18.7559 57.4617 18.6859 56.8617 18.6059C56.5617 18.5659 56.2317 18.6259 55.9217 18.6259C54.1917 18.6059 52.4617 18.5959 50.7317 18.5759C48.2917 18.5559 45.8617 18.5359 43.4117 18.5059L40.3617 18.4759C39.3617 18.4759 38.3717 18.4459 37.3717 18.4459C35.7117 18.4259 34.0517 18.4159 32.3917 18.3859C29.6517 18.3559 26.9017 18.3259 24.1617 18.2959C22.9417 18.2759 21.7317 18.2659 20.5217 18.2559C19.0617 18.2259 17.5817 18.2159 16.1117 18.1959C15.4617 18.1959 8.43173 18.2259 8.41173 18.0859C8.36173 17.5659 8.38173 17.0059 8.25173 16.4959C8.16173 16.1959 8.01173 15.9359 7.96173 15.6259C7.84173 14.8859 8.05173 13.8459 8.71173 13.5059C8.93173 13.3859 9.20173 13.3559 9.45173 13.3359C11.4317 13.1459 13.4017 12.9459 15.3817 12.7559C15.5217 12.7359 15.6517 12.7259 15.7917 12.7259C13.7917 12.6759 11.7817 12.6359 9.78173 12.5859C9.35173 12.5859 8.89173 12.5559 8.50173 12.3359C8.27173 12.2059 8.18173 12.1259 8.15173 11.8659C8.11173 11.5459 8.25173 7.98585 8.32173 7.98585C10.8517 7.98585 13.3817 7.95586 15.9217 7.95586C19.3817 7.93586 22.8617 7.92588 26.3417 7.91588C27.9317 7.91588 29.5317 7.89586 31.1217 7.89586C32.5817 7.89586 34.0517 7.87587 35.5217 7.87587C44.2617 7.84587 53.0517 7.81587 61.8717 7.78587C63.5217 7.78587 65.1717 7.78587 66.8217 7.78587C68.4917 7.78587 70.1517 7.78587 71.8217 7.78587C72.6617 7.78587 73.5117 7.78587 74.3517 7.78587C79.6117 7.78587 84.8717 7.76587 90.1417 7.75587H90.6317C97.0717 7.75587 103.522 7.73585 109.972 7.73585H119.122C121.932 7.73585 124.752 7.73585 127.572 7.73585C128.222 7.73585 128.882 7.73585 129.542 7.73585C130.032 7.73585 130.532 7.67588 131.002 7.88588C131.402 8.06588 131.742 8.20587 132.192 8.22587C132.392 8.22587 133.842 8.22587 133.892 7.96586C133.632 9.39586 133.282 10.8059 132.862 12.1859C133.742 11.6459 134.262 10.6159 134.812 9.67586C135.142 9.10586 135.532 8.52586 136.022 8.11586C136.062 8.08586 136.112 8.04588 136.142 8.01588C136.382 7.83588 136.672 7.62586 136.962 7.64586C137.632 7.67586 138.312 7.74588 138.992 7.76588C139.482 7.78588 139.962 7.86588 140.442 7.91588C141.162 7.98588 141.842 7.93586 142.492 8.33586C142.492 8.33586 142.492 8.33586 142.512 8.33586L142.492 8.36586C140.982 10.5359 139.462 12.6959 137.952 14.8659C137.732 15.1759 137.522 15.4859 137.382 15.8459C139.132 14.1659 140.792 12.3459 142.322 10.4159C142.722 9.92588 143.102 9.42586 143.472 8.92586C143.672 8.65586 143.882 8.37587 144.162 8.22587C144.402 8.10587 144.662 8.08587 144.922 8.06587C148.622 7.74587 152.492 7.78588 156.282 7.79588C159.432 7.79588 162.582 7.79587 165.732 7.81587C166.922 7.81587 168.102 7.81587 169.292 7.81587H169.542C173.812 7.81587 178.092 7.83587 182.362 7.84587C186.732 7.84587 191.102 7.87588 195.472 7.88588C196.272 7.88588 197.062 7.88588 197.862 7.88588H199.232C200.562 7.88588 201.902 7.88587 203.232 7.90587C205.032 7.90587 206.822 7.90586 208.622 7.92586C209.192 7.92586 209.772 7.92586 210.342 7.92586C210.772 7.92586 211.192 7.92586 211.622 7.92586C213.022 7.92586 214.432 7.92588 215.822 7.94588C217.812 7.94588 219.802 7.96587 221.792 7.97587C223.442 7.97587 225.092 7.97586 226.732 7.99586C226.812 7.99586 226.822 10.2259 226.872 10.4359C226.902 10.5659 226.982 10.6559 227.002 10.7959C227.052 11.1459 226.842 11.5259 226.592 11.7159C226.262 11.9759 225.842 12.0259 225.442 12.0759C221.742 12.5359 218.012 12.9759 214.302 12.7859C213.802 12.7659 213.302 12.7359 212.802 12.6859C213.292 12.7459 213.782 12.7959 214.272 12.8459C218.322 13.2959 222.382 13.5559 226.442 13.6659Z" fill="url(#paint4_linear_931_30)"/>
<path d="M233.509 6.50666C233.509 7.02666 233.479 7.48665 233.249 7.93665C233.779 5.42665 232.369 2.54667 230.129 1.76667C229.359 1.49667 228.529 1.43664 227.719 1.39664C222.809 1.12664 217.909 0.86666 212.999 0.69666C212.979 0.69666 212.949 0.69666 212.929 0.69666C210.739 0.61666 208.539 0.556668 206.349 0.516668C204.159 0.476668 201.959 0.436641 199.759 0.426641C197.569 0.406641 195.369 0.406641 193.179 0.426641C190.979 0.426641 188.789 0.456659 186.589 0.476659C184.389 0.506659 182.199 0.546644 179.999 0.586644C177.809 0.626644 175.609 0.676638 173.409 0.736638C171.219 0.786638 169.019 0.846652 166.819 0.906652C165.729 0.936652 164.629 0.956648 163.529 0.996648C162.839 1.01665 162.199 1.01664 161.549 0.836644C161.449 0.806644 161.349 0.776648 161.249 0.746648C160.959 0.636648 160.649 0.546668 160.339 0.516668C159.879 0.456668 159.429 0.476659 158.969 0.476659C157.599 0.456659 156.229 0.44665 154.859 0.43665C149.429 0.38665 143.999 0.316668 138.579 0.266668C138.129 0.266668 137.669 0.236655 137.219 0.316655C137.129 0.336655 137.049 0.356642 136.959 0.396642C136.709 0.516642 136.449 0.626638 136.199 0.736638C135.569 1.00664 134.949 1.27665 134.319 1.55665C134.319 1.34665 134.319 1.13664 134.319 0.926641C134.319 0.886641 134.319 0.836646 134.289 0.806646C134.269 0.776646 134.229 0.776668 134.189 0.766668C133.809 0.726668 133.439 0.686652 133.059 0.656652C132.889 0.636652 132.709 0.636654 132.539 0.596654C132.439 0.566654 132.339 0.516638 132.239 0.486638C131.889 0.416638 131.489 0.476659 131.139 0.476659C130.759 0.476659 130.369 0.476659 129.989 0.476659C128.349 0.476659 126.699 0.496648 125.049 0.496648C123.399 0.496648 121.759 0.516668 120.109 0.516668C118.459 0.516668 116.819 0.516657 115.169 0.536657C113.529 0.536657 111.879 0.536646 110.229 0.556646C109.809 0.556646 109.399 0.556646 108.989 0.556646H108.639C108.379 0.556646 108.109 0.576647 107.849 0.526647C107.629 0.496647 107.419 0.376654 107.209 0.346654C106.849 0.286654 106.479 0.326654 106.119 0.346654C105.149 0.366654 104.179 0.376642 103.209 0.396642C101.559 0.426642 99.9193 0.456638 98.2693 0.486638C96.6193 0.516638 94.9793 0.536646 93.3293 0.556646C91.6793 0.586646 90.0393 0.596643 88.3893 0.616643C86.7393 0.636643 85.0993 0.646661 83.4493 0.666661C81.7993 0.666661 80.1593 0.69666 78.5093 0.69666C76.8593 0.69666 75.2193 0.716659 73.5693 0.726659C71.9193 0.726659 70.2793 0.726648 68.6293 0.746648H61.2093C60.8893 0.746648 60.5893 0.746642 60.2793 0.646642C60.1593 0.616642 60.0593 0.576646 59.9293 0.556646C59.1793 0.476646 58.3993 0.536647 57.6393 0.526647C55.9893 0.506647 54.3493 0.496648 52.6993 0.496648C51.0493 0.496648 49.4093 0.496648 47.7593 0.496648C46.1093 0.496648 44.4693 0.516647 42.8193 0.526647C41.1793 0.556647 39.5593 0.616641 37.9193 0.676641C37.0993 0.706641 36.2693 0.736668 35.4493 0.766668C35.0393 0.766668 34.6293 0.796646 34.2193 0.806646C34.0093 0.806646 33.8093 0.806665 33.5993 0.826665C33.5393 0.826665 33.0193 0.806664 33.0093 0.856664C32.9593 1.06666 32.9193 1.27665 32.9193 1.49665C32.5093 0.786648 31.5993 0.706649 30.8393 0.716649C30.0193 0.716649 29.1893 0.736648 28.3693 0.746648C26.7193 0.746648 25.0793 0.776647 23.4293 0.776647C21.7793 0.796647 20.1293 0.806655 18.4893 0.816655C17.6593 0.816655 16.8393 0.836654 16.0093 0.846654C15.8393 0.846654 15.6493 0.876655 15.4793 0.816655C15.0193 0.676655 14.5293 0.666664 14.0593 0.606664C12.0593 0.376664 10.0293 0.146638 8.02929 0.486638C5.51929 0.916638 2.98929 2.42665 1.99929 5.02665C1.28929 6.85665 1.44929 8.94664 1.61929 10.9266C1.64929 11.2666 1.67929 11.5967 1.74929 11.9367C1.79929 12.2067 1.88929 12.4867 2.02929 12.7567C1.84929 12.6967 1.66929 12.6166 1.51929 12.4866C1.41929 12.3966 1.41929 12.3566 1.38929 12.2166C1.33929 12.0066 1.28929 11.8167 1.23929 11.6067C1.04929 10.8067 1.23929 9.86665 1.27929 9.05665C1.32929 8.17665 1.39929 7.23666 1.46929 6.38666C1.79929 2.93666 4.45929 0.316646 7.59929 0.306646C8.99929 0.306646 10.4093 0.286657 11.8093 0.286657C12.8693 0.286657 13.9293 0.286668 14.9993 0.266668H15.3693C17.8993 0.246668 20.4393 0.236638 22.9693 0.236638C24.0893 0.236638 25.2193 0.236638 26.3393 0.236638C27.0093 0.236638 27.6993 0.236638 28.3793 0.236638C29.6593 0.236638 30.9393 0.236649 32.2193 0.216649C33.8593 0.216649 35.5093 0.21666 37.1493 0.19666C38.7893 0.17666 40.4393 0.196641 42.0693 0.176641C43.7193 0.176641 45.3593 0.176652 47.0093 0.156652C48.6593 0.136652 50.2993 0.156663 51.9393 0.136663C53.5893 0.136663 55.2293 0.136643 56.8793 0.116643H56.9793C57.2993 0.116643 57.6193 0.146643 57.9293 0.116643C57.9793 0.116643 58.0193 0.116643 58.0693 0.116643C58.1893 0.0966431 58.2893 0.0766443 58.4093 0.0866443C58.5393 0.106644 58.6693 0.116653 58.7793 0.126653H58.8693C59.3693 0.126653 59.8893 0.126653 60.3993 0.126653H61.1493C62.8793 0.126653 64.6093 0.126653 66.3493 0.126653C67.7793 0.126653 69.2093 0.126653 70.6393 0.126653H72.4193C73.7093 0.126653 75.0193 0.126653 76.3093 0.126653C77.9493 0.126653 79.5993 0.126653 81.2293 0.126653C82.8593 0.126653 84.5193 0.126653 86.1693 0.126653H91.3893C92.9493 0.126653 94.4893 0.126653 96.0393 0.126653H103.459C103.869 0.126653 104.279 0.106653 104.699 0.126653C104.819 0.126653 104.939 0.186641 105.059 0.176641C105.149 0.176641 105.249 0.146653 105.349 0.126653H108.589C111.199 0.126653 113.809 0.126653 116.429 0.126653C123.609 0.126653 130.809 0.126642 138.009 0.146642C139.849 0.146642 141.679 0.146642 143.519 0.146642C145.709 0.146642 147.879 0.146642 150.069 0.146642C152.259 0.146642 154.459 0.146642 156.659 0.146642H158.349C158.789 0.166642 159.189 0.326657 159.639 0.286657C159.869 0.266657 160.099 0.216652 160.309 0.156652H161.569C163.629 0.156652 165.689 0.156641 167.759 0.176641C169.479 0.176641 171.199 0.176641 172.919 0.176641C183.609 0.206641 194.319 0.236647 205.059 0.276647C207.449 0.276647 209.829 0.296646 212.219 0.306646C213.169 0.306646 214.099 0.306665 215.049 0.326665C216.089 0.326665 217.129 0.326665 218.169 0.326665C221.259 0.346665 224.349 0.356643 227.449 0.366643C230.219 0.366643 232.909 2.59666 233.479 5.66666C233.529 5.97666 233.529 6.29666 233.519 6.60666L233.509 6.50666Z" fill="#EB924D"/>
<path d="M78.9692 4.34625C78.8792 4.44625 78.7992 4.55625 78.7792 4.68625C78.7592 4.77625 78.7392 5.05625 78.7892 5.12625C78.8592 5.21625 79.2792 5.13626 79.3892 5.13626C79.7992 5.13626 80.2092 5.11626 80.6192 5.10626C81.3492 5.08626 82.0792 5.05627 82.8192 5.01627C82.3592 4.90627 81.8892 4.97625 81.4192 4.99625C80.6892 5.02625 79.9392 4.74626 79.2292 4.54626L80.2592 3.15625C80.1492 3.30625 79.9492 3.43625 79.8092 3.56625C79.6592 3.70625 79.4992 3.85625 79.3492 3.99625C79.2392 4.09625 79.0792 4.21626 78.9592 4.35626L78.9692 4.34625Z" fill="#EB924D"/>
<path d="M148.73 4.16586C148.63 4.30586 148.54 4.45585 148.57 4.62585C148.6 4.77585 148.72 4.88584 148.85 4.92584C148.98 4.96584 149.12 4.95586 149.26 4.94586C149.95 4.89586 150.64 4.83586 151.34 4.78586C151.67 4.75586 151.99 4.73586 152.32 4.75586C152.84 4.79586 153.34 4.95587 153.85 5.04587C154.81 5.20587 155.78 5.09584 156.74 5.23584C156.71 5.23584 156.66 5.25587 156.63 5.26587C156.59 5.27587 156.54 5.28587 156.5 5.29587C156.41 5.30587 156.33 5.31586 156.24 5.31586C156.06 5.31586 155.88 5.31586 155.71 5.28586C155.35 5.24586 155 5.16584 154.64 5.14584C154.46 5.13584 154.29 5.14586 154.11 5.16586C154.04 5.17586 153.97 5.18584 153.9 5.17584C153.84 5.17584 153.79 5.14584 153.73 5.14584C153.33 5.10584 152.91 5.14585 152.51 5.15585C152.2 5.16585 151.9 5.17586 151.59 5.19586C151.01 5.22586 150.42 5.26585 149.84 5.30585C149.43 5.32585 149.03 5.34586 148.62 5.34586C148.54 5.34586 148.47 5.34584 148.39 5.36584C148.33 5.39584 148.27 5.40585 148.2 5.40585C148.07 5.40585 147.95 5.34585 147.86 5.24585C147.84 5.22585 147.82 5.19585 147.82 5.15585C147.82 5.12585 147.82 5.08585 147.84 5.05585C147.93 4.82585 148.04 4.61586 148.17 4.41586C148.23 4.32586 148.3 4.21586 148.38 4.13586C148.4 4.11586 148.43 4.09587 148.46 4.07587C148.53 4.01587 148.57 3.91585 148.62 3.83585C149 3.19585 149.5 2.64585 150.07 2.21585C150.14 2.16585 150.21 2.13585 150.29 2.08585C150.38 2.02585 150.46 1.91585 150.53 1.83585C150.69 1.64585 150.84 1.45586 150.99 1.25586C150.53 1.85586 150.07 2.45587 149.65 3.07587C149.58 3.18587 149.49 3.23587 149.41 3.32587C149.2 3.56587 149 3.83585 148.8 4.08585C148.79 4.10585 148.77 4.12584 148.76 4.14584L148.73 4.16586Z" fill="#EB924D"/>
<path d="M90.1713 26.5667C89.3313 26.5667 88.4813 26.5667 87.6413 26.5667C85.4913 26.5667 83.3313 26.5667 81.1813 26.5367C80.5713 26.5367 79.9513 26.5367 79.3413 26.5367C77.8013 26.5367 76.2613 26.5367 74.7313 26.5167C73.1913 26.5167 71.6513 26.4966 70.1113 26.4866C69.5013 26.4866 68.8913 26.4866 68.2713 26.4866C66.1213 26.4866 63.9813 26.4567 61.8313 26.4467C59.6813 26.4367 57.5413 26.4166 55.3913 26.3966C53.4913 26.3766 51.6113 26.3667 49.7113 26.3567C49.4613 26.3567 49.2113 26.3567 48.9613 26.3567C48.1213 26.3567 47.2913 26.3567 46.4613 26.3567C44.0013 26.3267 41.5513 26.2667 39.0913 26.1967C38.8713 26.1967 36.4213 26.3467 36.7113 25.7867V25.7667C37.2813 24.8667 37.9213 23.9166 38.4313 23.0566C38.3213 23.2966 38.2113 23.5267 38.1013 23.7667C37.8213 24.3567 37.5513 24.9567 37.2813 25.5367C38.6113 25.8567 39.9813 25.9366 41.3513 25.9966C57.4813 26.7466 73.6413 25.8366 89.7813 26.4066C89.9213 26.4066 90.0513 26.5066 90.1813 26.6166L90.1713 26.5667Z" fill="#EB924D"/>
<path d="M109.642 25.776C109.662 25.926 109.642 26.076 109.552 26.186C109.322 26.476 108.912 26.276 108.612 26.326C108.462 26.356 108.392 26.446 108.252 26.516C107.892 26.696 107.452 26.606 107.062 26.606C104.902 26.606 102.742 26.606 100.582 26.606C98.4222 26.606 96.2622 26.606 94.1022 26.586C92.7922 26.586 91.4822 26.586 90.1722 26.566H89.9922C90.1422 26.436 90.3322 26.456 90.5222 26.436C91.7822 26.386 93.0322 26.336 94.2922 26.306C95.5422 26.276 96.7922 26.246 98.0522 26.236C99.3122 26.226 100.562 26.236 101.822 26.256C103.072 26.276 104.322 26.296 105.582 26.346C105.732 26.346 105.872 26.346 106.022 26.366C107.212 26.406 108.492 26.426 109.442 25.626C109.472 25.716 109.542 25.776 109.632 25.776H109.642Z" fill="#EB924D"/>
<path d="M111.061 25.7463C111.541 26.1363 112.121 26.2763 112.731 26.3263C112.201 26.3263 111.651 26.4163 111.191 26.7063C110.691 25.7863 110.181 24.8663 109.691 23.9463C110.151 24.5463 110.491 25.2863 111.071 25.7463H111.061Z" fill="#EB924D"/>
<path d="M117.911 26.2261C117.911 26.2261 117.911 26.2261 117.911 26.2061C117.911 26.4161 117.911 26.6161 117.891 26.8261C116.981 26.6861 116.081 26.5761 115.161 26.4861C114.591 26.4361 114.031 26.3861 113.461 26.3461C113.571 26.3461 113.671 26.3461 113.781 26.3461C115.151 26.3161 116.521 26.2661 117.891 26.2361L117.911 26.2261Z" fill="#EB924D"/>
<path d="M133.578 26.596H133.038C131.658 26.596 130.278 26.596 128.898 26.596C128.368 26.596 127.838 26.596 127.298 26.616C126.148 26.636 124.998 26.656 123.848 26.596C122.328 26.516 120.238 27.286 118.978 26.036C118.858 25.916 118.738 25.776 118.648 25.626C120.628 26.856 123.148 26.536 125.458 26.356C128.158 26.146 130.888 26.226 133.578 26.586V26.596Z" fill="#EB924D"/>
<path d="M185.331 26.0161C185.751 25.8161 186.141 25.5561 186.471 25.2061C186.441 25.2961 186.411 25.3861 186.371 25.4761C186.251 25.7661 186.081 26.0961 185.801 26.1361C185.581 26.1761 185.371 26.0461 185.141 26.0561C184.981 26.0561 184.921 26.1561 184.781 26.2361C184.691 26.2761 184.621 26.2861 184.521 26.2961C183.911 26.3861 183.231 26.3161 182.611 26.3161C181.321 26.3361 180.031 26.3461 178.741 26.3461C176.561 26.3661 174.381 26.3761 172.201 26.3961C170.351 26.4161 168.501 26.4261 166.651 26.4261C166.321 26.4261 165.981 26.4261 165.651 26.4261C164.541 26.4261 163.441 26.4461 162.331 26.4561C161.261 26.4561 160.181 26.4561 159.111 26.4761C156.931 26.4761 154.751 26.5061 152.581 26.5061C150.411 26.5061 148.231 26.5261 146.061 26.5361C145.091 26.5361 144.121 26.5361 143.161 26.5361C141.951 26.5361 140.741 26.5361 139.541 26.5561C137.551 26.5561 135.551 26.5561 133.571 26.5761H131.621C131.781 26.4761 131.961 26.4161 132.151 26.4061C133.791 26.3161 135.411 26.2361 137.051 26.1561C137.781 26.1161 138.511 26.0561 139.251 26.0461C139.401 26.0461 139.541 26.0461 139.701 26.0761C139.911 26.1061 140.121 26.1661 140.331 26.2261C140.971 26.3961 141.621 26.2561 142.261 26.1961C142.601 26.1661 142.961 26.0561 143.291 26.1461C143.451 26.1861 143.621 26.1961 143.791 26.2161C144.131 26.2461 144.471 26.2661 144.811 26.2661C145.511 26.2661 146.201 26.1861 146.881 26.0461C146.991 26.0261 147.101 26.0061 147.211 26.0261C147.331 26.0561 147.431 26.1261 147.541 26.1961C148.191 26.6061 149.001 26.4061 149.761 26.2861C150.291 26.1961 150.841 26.1361 151.381 26.1261C151.661 26.1261 151.931 26.1261 152.211 26.1261C153.431 26.1761 154.651 26.1761 155.881 26.1961C157.521 26.2261 159.171 26.2261 160.821 26.2361C162.471 26.2361 164.121 26.2361 165.761 26.2061C167.411 26.1861 169.051 26.1561 170.701 26.1161C171.581 26.0961 172.461 26.0761 173.341 26.0461C174.231 26.0161 175.121 25.9861 176.011 26.0461C176.821 26.0861 177.621 26.1961 178.441 26.1961C178.791 26.1961 179.161 26.1961 179.491 26.0861C179.701 26.0161 179.881 25.8761 180.081 25.8161C180.201 25.7761 180.311 25.7461 180.441 25.7361C181.131 25.6461 181.831 25.7361 182.521 25.7361C183.491 25.7661 184.451 25.8161 185.421 25.8861C185.481 25.8861 185.261 25.9761 185.321 25.9861L185.331 26.0161Z" fill="#EB924D"/>
<path d="M232.971 21.7461C232.001 24.1361 229.851 25.7861 227.381 25.8161C226.501 25.8361 225.621 25.8461 224.751 25.8461C222.561 25.8761 220.361 25.9061 218.161 25.9361C215.971 25.9661 213.771 25.9861 211.571 26.0161H211.531L205.001 26.0961C203.161 26.1261 201.311 26.1361 199.471 26.1661C199.121 26.1661 198.771 26.1661 198.421 26.1661C196.231 26.1861 194.041 26.2061 191.861 26.2261C191.201 26.2261 190.531 26.2761 189.881 26.2461C189.211 26.2161 188.531 26.1561 187.871 26.1561C187.751 26.1561 187.621 26.1561 187.521 26.0761C187.331 25.9561 187.271 25.6761 187.241 25.4361C187.191 25.0461 187.151 24.6661 187.121 24.2761C187.121 24.2561 187.141 24.2461 187.141 24.2361C187.121 24.8761 187.571 25.4561 188.111 25.7061C188.641 25.9661 189.251 25.9661 189.831 25.9661C191.981 25.9661 194.131 25.9661 196.281 25.9661C197.301 25.9661 198.311 25.9661 199.331 25.9661C199.821 25.9661 200.311 25.9661 200.791 25.9661C201.041 25.9661 201.281 25.9661 201.531 25.9661C201.781 25.9661 202.041 25.9961 202.291 25.9661C202.441 25.9361 202.581 25.9061 202.731 25.8961C202.931 25.8961 203.141 25.8661 203.341 25.8661C204.161 25.8361 204.981 25.7961 205.801 25.7661C207.131 25.7161 208.451 25.6761 209.771 25.6361C211.061 25.6061 212.341 25.5761 213.611 25.5461C215.111 25.5161 216.621 25.4961 218.121 25.4561C219.601 25.4261 221.071 25.4061 222.551 25.4361C224.131 25.4661 225.711 25.5761 227.291 25.4561C228.091 25.3961 228.891 25.2761 229.661 25.0561C229.811 25.0161 229.971 24.9361 230.121 24.9161C230.141 24.9161 230.171 24.9161 230.211 24.9161C230.281 24.8961 230.351 24.8561 230.401 24.8061C230.861 24.4261 231.321 24.0361 231.761 23.6161C231.951 23.4461 232.131 23.2661 232.261 23.0261C232.341 22.8761 232.381 22.7061 232.451 22.5461C232.571 22.2661 232.751 22.0261 232.951 21.7961L232.971 21.7461Z" fill="#EB924D"/>
<path d="M32.3897 18.4063C29.6497 18.3763 26.8997 18.3463 24.1597 18.3163C22.9397 18.2963 21.7297 18.2863 20.5197 18.2763C20.2997 17.8163 20.0797 17.3863 19.8697 16.9663C18.4097 14.0563 17.1097 11.0363 15.9297 7.96632C19.3897 7.94632 22.8697 7.93631 26.3497 7.92631C26.9197 8.87631 27.4697 9.82632 28.0197 10.7763C29.4797 13.2963 30.9897 15.8263 32.3997 18.4163L32.3897 18.4063ZM40.3597 14.3663C38.8097 12.1363 37.2297 9.94634 35.5197 7.88634C34.0497 7.88634 32.5797 7.88633 31.1197 7.90633C32.7597 11.2963 34.7297 14.4763 36.8197 17.6163C37.0097 17.8963 37.1897 18.1863 37.3797 18.4763C38.3797 18.4763 39.3697 18.5063 40.3697 18.5063L43.4197 18.5363C42.3697 17.1063 41.3097 15.7163 40.3697 14.3663H40.3597ZM66.8197 7.78633C65.1697 7.78633 63.5197 7.78633 61.8697 7.78633C62.4997 11.5263 63.4897 15.1763 64.8097 18.6763C64.8297 18.6763 64.8597 18.6763 64.8797 18.6763C65.2097 18.7163 65.4997 18.8963 65.8297 18.8963C66.9397 18.8963 67.9997 18.0363 68.7797 17.2663C69.3097 16.7463 69.8097 16.1863 70.3497 15.6863C69.3097 12.9763 68.1297 10.3263 66.8197 7.77632V7.78633ZM70.5797 16.2863C69.9697 17.1663 69.4297 18.0963 68.9397 19.0663C68.9997 18.9363 70.3297 19.0463 70.5097 19.0363C70.8597 19.0363 71.2097 19.0363 71.5597 19.0163C71.2597 18.0963 70.9297 17.1763 70.5897 16.2763L70.5797 16.2863ZM74.3497 7.77632C73.5097 7.77632 72.6597 7.77632 71.8197 7.77632C72.9297 11.4563 74.0797 15.1263 75.3197 18.7463C75.6697 18.7463 76.0297 18.7763 76.3697 18.7763C76.8897 18.7763 77.4197 18.7763 77.9397 18.7763C76.8197 15.0763 75.6097 11.4063 74.3497 7.76634V7.77632ZM120.99 12.3363C120.4 10.7763 119.77 9.24631 119.12 7.73631H109.97C110.46 11.0563 111.16 14.2763 112.08 17.5363C112.2 17.9863 112.33 18.4263 112.45 18.8863H115.33C118.1 18.8863 120.87 18.8863 123.65 18.8863C122.76 16.6863 121.81 14.5063 120.99 12.3463V12.3363ZM140.43 7.89632C139.95 7.85632 139.47 7.76632 138.98 7.74632C138.3 7.72632 137.62 7.65633 136.95 7.62633C136.66 7.60633 136.37 7.81632 136.13 7.99632C136.09 8.02632 136.04 8.06633 136.01 8.09633C135.89 10.1363 135.81 12.0763 135.65 13.7263C135.5 15.3863 135.32 17.1063 135.17 18.8463C137.37 18.8463 139.57 18.8463 141.77 18.8263C141.85 17.3763 141.91 15.9563 141.98 14.5763C142.04 13.3163 142.17 11.8963 142.31 10.3963C142.37 9.73632 142.43 9.04634 142.48 8.35634V8.32634C141.83 7.92634 141.15 7.97633 140.43 7.90633V7.89632ZM169.28 7.79634C168.09 7.79634 166.91 7.79634 165.72 7.79634C164.5 11.3663 163.5 15.0263 162.69 18.7463C163.26 18.7463 163.82 18.7463 164.39 18.7463C164.96 18.7463 165.51 18.6563 166.03 18.8063C166.39 18.8963 166.71 18.9063 167.04 18.8063C167.9 15.1563 168.73 11.4963 169.53 7.82634H169.28V7.79634ZM211.6 7.93632C210.62 10.3163 209.62 12.6863 208.59 15.0463C208.61 14.9963 208.61 14.9463 208.63 14.8963C209.13 12.6163 209.75 10.2963 210.32 7.92631C209.75 7.92631 209.17 7.92631 208.6 7.92631C206.8 7.92631 205.01 7.90633 203.21 7.90633C202.82 9.59633 202.45 11.2763 202.04 12.8763C201.58 14.6763 201.07 16.5363 200.58 18.4163C203.7 18.3863 206.83 18.3463 209.94 18.3063C210.77 18.3063 211.61 18.2863 212.44 18.2763C212.49 18.1263 212.54 17.9963 212.59 17.8563C213.16 16.1863 213.71 14.5263 214.26 12.8563C214.26 12.8363 214.28 12.8163 214.28 12.7963C214.8 11.1863 215.31 9.58631 215.8 7.95631C214.41 7.95631 213 7.93632 211.6 7.93632ZM197.85 7.88634C196.73 11.4263 195.56 14.9463 194.42 18.4863C195.05 18.4863 195.68 18.4663 196.3 18.4663C197.37 14.9663 198.32 11.4263 199.22 7.88634H197.85ZM90.6297 7.74632H90.1397C91.2397 11.4563 92.3297 15.1663 93.4697 18.8563H94.1397C93.0097 15.1463 91.8197 11.4463 90.6297 7.74632Z" fill="url(#paint5_linear_931_30)"/>
<defs>
<linearGradient id="paint0_linear_931_30" x1="136.42" y1="-48.3537" x2="129.7" y2="-26.7837" gradientUnits="userSpaceOnUse">
<stop stop-color="#CF5C2B"/>
<stop offset="1" stop-color="#59173E"/>
</linearGradient>
<linearGradient id="paint1_linear_931_30" x1="117.131" y1="-12.9433" x2="118.001" y2="56.1067" gradientUnits="userSpaceOnUse">
<stop stop-color="#CF5C2B"/>
<stop offset="1" stop-color="#59173E"/>
</linearGradient>
<linearGradient id="paint2_linear_931_30" x1="114.979" y1="-10.6741" x2="114.979" y2="83.3559" gradientUnits="userSpaceOnUse">
<stop stop-color="#CF5C2B"/>
<stop offset="1" stop-color="#59173E"/>
</linearGradient>
<linearGradient id="paint3_linear_931_30" x1="117.521" y1="80.2165" x2="117.521" y2="6.29652" gradientUnits="userSpaceOnUse">
<stop stop-color="#CF5C2B"/>
<stop offset="1" stop-color="#59173E"/>
</linearGradient>
<linearGradient id="paint4_linear_931_30" x1="117.342" y1="49.2759" x2="117.562" y2="-15.0542" gradientUnits="userSpaceOnUse">
<stop stop-color="#CF5C2B"/>
<stop offset="1" stop-color="#59173E"/>
</linearGradient>
<linearGradient id="paint5_linear_931_30" x1="115.86" y1="47.8963" x2="115.86" y2="-24.2637" gradientUnits="userSpaceOnUse">
<stop stop-color="#CF5C2B"/>
<stop offset="1" stop-color="#59173E"/>
</linearGradient>
</defs>
</svg>
