<svg width="228" height="74" viewBox="0 0 228 74" fill="none" xmlns="http://www.w3.org/2000/svg">
<path d="M227.759 32.8596C227.529 31.8496 227.059 30.9096 226.659 29.9596C226.639 29.9096 226.619 29.8596 226.599 29.8196C226.089 28.6196 225.499 27.4496 224.879 26.2996C224.569 25.7296 224.249 25.1596 223.919 24.5896C223.859 24.4796 223.789 24.3796 223.709 24.2896C223.619 24.1896 223.579 24.0696 223.509 23.9496C223.359 23.6796 223.179 23.4196 222.999 23.1696C222.389 22.3196 221.769 21.4696 220.989 20.7796C220.609 20.4396 220.199 20.1496 219.749 19.9096C219.499 19.7796 219.239 19.6696 218.979 19.5896C218.729 19.5096 218.479 19.4796 218.229 19.4196C218.229 19.2996 218.259 19.1596 218.269 19.0296C218.269 18.8896 218.269 18.7596 218.269 18.6196C218.259 18.3396 218.209 18.0596 218.149 17.7896C218.019 17.2396 217.799 16.7196 217.559 16.2196C217.289 15.6596 216.969 15.1196 216.629 14.5996C216.459 14.3396 216.269 14.0796 216.079 13.8296C215.939 13.6396 215.889 13.4096 215.769 13.2096C215.659 13.0296 215.549 12.8596 215.439 12.6796C215.369 12.5696 215.299 12.4596 215.249 12.3396C215.179 12.1796 215.029 12.0596 214.919 11.9296C214.679 11.6496 214.429 11.3696 214.199 11.0796C212.399 8.88961 210.569 6.68961 208.389 4.86961C207.439 4.06961 206.419 3.34961 205.329 2.74961C205.019 2.57961 204.709 2.41961 204.399 2.28961C202.069 1.25961 199.649 1.08961 197.079 1.03961C194.379 0.989609 191.679 0.94961 188.979 0.90961C186.279 0.86961 183.579 0.829609 180.869 0.789609C178.169 0.749609 175.459 0.71961 172.759 0.67961C170.049 0.64961 167.349 0.619609 164.639 0.589609C161.929 0.559609 159.219 0.539609 156.509 0.509609C153.799 0.489609 151.089 0.46961 148.369 0.44961C145.649 0.42961 142.939 0.41961 140.219 0.39961C137.499 0.38961 134.789 0.379609 132.069 0.369609C129.349 0.369609 126.629 0.349609 123.909 0.349609C121.189 0.349609 118.469 0.349609 115.739 0.349609C113.009 0.349609 110.289 0.349609 107.569 0.349609C104.839 0.349609 102.119 0.359609 99.3886 0.369609C96.6586 0.379609 93.9286 0.38961 91.1986 0.40961C88.4686 0.41961 85.7386 0.43961 82.9986 0.45961C80.2686 0.47961 77.5286 0.499609 74.7986 0.519609C72.0586 0.539609 69.3286 0.569609 66.5886 0.599609C63.8486 0.629609 61.1086 0.65961 58.3686 0.68961C51.9886 0.76961 45.6686 0.82961 39.1986 0.92961C34.1586 1.00961 28.3486 0.979609 24.1186 4.28961C21.6486 6.21961 19.9986 8.11961 17.9686 10.4796C15.8486 12.9296 13.8086 15.4596 11.8686 18.0496C10.0486 20.4796 8.27856 22.9596 6.69856 25.5596C5.27856 27.8896 3.72856 30.1396 2.29856 32.4696C1.08856 34.4296 -0.141443 36.6396 0.00855659 39.0296C0.118557 40.6696 1.11856 42.3896 1.80856 43.8696C2.15856 44.6296 2.61856 45.3296 3.03856 46.0696C3.42856 46.7596 3.87856 47.4296 4.38856 48.0496C4.67856 48.4096 5.00856 48.7696 5.41856 48.9796C6.21856 49.3796 7.24856 49.1896 7.98856 49.6996C7.46856 49.7696 7.10856 50.2896 7.03856 50.8096C6.97856 51.3296 7.13856 51.8496 7.31856 52.3396C7.94856 54.0396 8.74856 55.6796 9.71856 57.2096C10.6886 58.7396 11.8886 60.0196 13.0386 61.4096C14.3986 63.0496 15.8086 64.6396 17.2786 66.1696C18.6986 67.6496 20.1586 69.2696 21.8786 70.4696C24.7886 72.5096 28.1286 72.3196 31.5086 72.3996C42.2886 72.6496 53.0986 73.1596 63.8786 73.1596C77.5686 73.4096 91.2486 73.5596 104.939 73.6096C118.589 73.6496 132.249 73.5896 145.899 73.4196C159.519 73.2496 173.139 72.9696 186.759 72.5796C190.599 72.4696 194.589 72.3996 198.459 71.8696C200.369 71.6096 201.879 71.2996 203.479 70.2096C205.889 68.5696 207.769 65.9196 209.659 63.7296C210.879 62.3096 212.079 60.8696 213.259 59.4096C214.329 58.0896 215.499 56.9296 215.909 55.2696C215.969 55.0296 216.019 54.7796 216.159 54.5796C216.319 54.3496 216.579 54.2196 216.809 54.0696C218.509 52.9996 219.579 50.9796 220.619 49.3296C222.449 46.3796 224.139 43.3396 225.809 40.2896C227.049 38.0496 228.339 35.4996 227.759 32.8596Z" fill="url(#paint0_linear_850_268)"/>
<path d="M225.809 40.2793C225.489 40.8593 225.169 41.4493 224.839 42.0193C224.709 42.2593 224.579 42.4893 224.439 42.7293C223.459 44.4693 222.409 46.1893 221.249 47.8393C220.629 48.7293 219.979 49.5893 219.299 50.4293C218.659 51.1993 218.129 51.9893 217.179 52.4193C217.019 52.4993 216.849 52.5593 216.689 52.5993C216.139 52.7593 215.569 52.8193 214.989 52.8693C213.349 53.0193 211.729 53.1793 210.099 53.3393C210.059 53.3393 210.009 53.3393 209.969 53.3393C209.089 53.4293 208.209 53.4993 207.329 53.5893C208.509 53.5293 209.699 53.5493 210.889 53.6293C212.589 53.7493 214.259 54.0093 215.919 54.3993C215.519 55.4593 214.929 56.4393 214.199 57.3093C211.879 59.9993 209.689 63.1593 206.709 65.1993C205.109 66.2893 203.589 66.5993 201.689 66.8593C197.819 67.3893 193.829 67.4593 189.999 67.5693C176.379 67.9593 162.759 68.2393 149.139 68.4093C142.509 68.4893 135.899 68.5493 129.269 68.5793C127.629 68.5793 125.999 68.5793 124.359 68.5993C118.959 68.5993 113.579 68.6193 108.179 68.5993C94.4888 68.5493 80.7988 68.4093 67.1088 68.1493C63.7588 68.1493 60.4088 68.0993 57.0488 68.0193C49.6088 67.8593 42.1688 67.5493 34.7388 67.3793C31.3588 67.2993 28.0088 67.4893 25.0988 65.4393C23.3888 64.2393 21.9188 62.6193 20.5088 61.1393C20.3588 60.9893 20.2188 60.8293 20.0688 60.6693C18.7888 59.3093 17.5488 57.9193 16.3588 56.4793C15.3688 55.2993 14.3988 54.1093 13.3788 52.9493C12.9388 52.4493 12.5888 51.8793 12.2488 51.3093C11.7888 50.5393 11.2588 49.7893 11.0788 48.8993C11.0488 48.7393 11.0388 48.5693 11.1388 48.4493C11.2288 48.3393 11.3588 48.3093 11.4888 48.2993C13.9088 47.8693 16.4288 48.1093 18.8088 47.6293C19.2888 47.5393 19.7688 47.4193 20.2288 47.2493C18.0288 47.2493 15.8288 47.2293 13.6288 47.2093C13.0788 47.2093 12.5288 47.2093 11.9688 47.1393C11.7588 47.1093 11.5488 47.0793 11.3388 47.0293C10.3588 46.8093 9.46883 46.2793 8.75883 45.5793C8.40883 45.2193 8.09883 44.8093 7.85883 44.3693C6.87883 42.5393 5.88883 40.7093 5.01883 38.8193C4.33883 37.3393 3.32883 35.6193 3.22883 33.9793C3.22883 33.8893 3.22883 33.8193 3.22883 33.7293C3.19883 32.6093 3.46883 31.5093 3.90883 30.4693C4.62883 28.7193 5.77883 27.0693 6.69883 25.5493C8.27883 22.9493 10.0488 20.4693 11.8688 18.0393C13.8088 15.4393 15.8388 12.9193 17.9588 10.4693C18.3488 10.0093 18.7288 9.57934 19.0988 9.15934C20.6488 7.37934 22.1088 5.83934 24.1088 4.27934C28.3388 0.969336 34.1488 0.999336 39.1788 0.919336C45.6488 0.809336 51.9688 0.759336 58.3488 0.679336C61.0888 0.639336 63.8188 0.609336 66.5688 0.579336C69.3088 0.549336 72.0388 0.529336 74.7888 0.499336C77.5188 0.479336 80.2488 0.449336 82.9988 0.429336C85.7288 0.409336 88.4588 0.399336 91.1988 0.379336C93.9288 0.379336 96.6488 0.349336 99.3888 0.339336C102.129 0.329336 104.839 0.339336 107.579 0.319336C110.299 0.319336 113.019 0.319336 115.759 0.319336C118.499 0.319336 121.199 0.319336 123.929 0.319336C126.639 0.319336 129.359 0.319336 132.089 0.339336C134.799 0.339336 137.519 0.359336 140.239 0.369336C142.959 0.389336 145.669 0.399336 148.389 0.419336C151.099 0.439336 153.819 0.459336 156.529 0.489336C159.239 0.509336 161.959 0.539336 164.659 0.559336C167.369 0.589336 170.079 0.619336 172.789 0.659336C175.489 0.689336 178.199 0.729336 180.899 0.769336C183.599 0.809336 186.309 0.849336 189.009 0.889336C191.709 0.929336 194.419 0.979336 197.109 1.02934C199.689 1.07934 202.109 1.23934 204.429 2.27934C204.739 2.41934 205.049 2.56934 205.359 2.74934C207.909 4.14934 210.029 6.20934 211.949 8.37934C212.399 8.87934 212.849 9.38934 213.289 9.89934C214.059 10.7693 214.799 11.6693 215.439 12.6293C216.209 13.7793 216.929 14.9593 217.599 16.1693C217.769 16.4893 217.949 16.9293 217.709 17.2093C217.599 17.3393 217.439 17.3993 217.269 17.4393C217.249 17.4393 217.229 17.4393 217.209 17.4593C214.869 18.0793 212.449 18.4193 210.029 18.4693C211.109 18.6493 212.189 18.8093 213.289 18.9193C214.719 19.0793 216.159 19.1693 217.599 19.1893C218.639 19.2093 219.739 19.2093 220.639 19.7293C220.659 19.7293 220.669 19.7493 220.689 19.7593C221.779 20.4293 222.359 21.8493 222.979 22.9193C223.669 24.1193 224.339 25.3293 225.089 26.4993C225.639 27.3693 226.049 28.3593 226.439 29.3193C226.539 29.5393 226.619 29.7593 226.709 29.9693C227.119 30.9293 227.579 31.8693 227.799 32.8793C228.389 35.5193 227.089 38.0693 225.849 40.2993L225.809 40.2793Z" fill="url(#paint1_linear_850_268)"/>
<path d="M220.637 19.7493C215.877 20.8293 209.547 20.1293 206.117 20.4393C202.267 20.7793 198.427 21.2893 194.597 21.7893C192.577 22.0493 190.557 22.3093 188.537 22.5393C186.927 22.7193 185.407 22.8293 183.887 23.3993C182.367 23.9793 180.707 23.8493 179.107 23.8993C177.087 23.9593 175.077 24.0493 173.057 24.1493C164.997 24.5593 156.957 25.2893 148.947 26.3393C144.947 26.8593 140.957 27.4693 136.977 28.1493C134.987 28.4893 133.007 28.8493 131.017 29.2293C130.027 29.4193 129.037 29.6093 128.047 29.8093C127.537 29.9093 127.017 30.0193 126.507 30.1293C126.157 30.1993 125.547 30.4593 125.207 30.3993C127.227 30.7393 129.167 31.5293 130.857 32.6893C113.207 35.3393 95.4166 37.1193 77.5866 37.9993C74.1066 38.1693 70.6166 38.3093 67.1466 37.9993C65.4366 37.8493 63.7466 37.5993 62.0766 37.1993C59.7666 36.6393 57.2966 36.9193 54.9166 36.8893C50.6366 36.8393 46.3466 36.6993 42.0666 36.4693C34.4566 36.0493 26.8566 35.5393 19.2566 35.0593C14.2266 34.7393 8.33664 34.9893 3.23664 33.7493C3.20664 32.6293 3.47664 31.5293 3.91664 30.4893C9.50664 29.8693 15.8266 30.8293 21.1566 30.9193C28.7566 31.0493 36.3666 30.8993 43.9666 30.7093C58.8566 30.3093 73.7566 30.5593 88.6566 29.9493C99.1266 29.5093 109.457 28.3393 119.777 26.8693C112.927 26.8193 106.057 26.5593 99.1766 26.0293C84.2466 24.8793 69.1466 23.0193 54.1866 23.6993C46.5866 24.0493 39.1666 23.4693 31.6166 22.8093C27.9366 22.4893 24.1166 22.1993 20.5166 21.3193C17.4966 20.5793 14.7466 19.1893 11.8766 18.0593C13.8166 15.4593 15.8466 12.9393 17.9666 10.4893C18.3566 10.0293 18.7366 9.5993 19.1066 9.1793C20.7366 8.9493 22.3866 8.7893 24.0966 8.8093C28.5066 8.8593 32.8866 9.5793 37.2666 10.0993C45.3966 11.0893 53.0166 13.0693 60.9766 14.8893C69.1766 16.7593 77.7566 17.4093 86.0966 18.4293C94.1866 19.4293 102.267 20.1393 110.417 20.4093C125.357 20.9093 140.737 19.7993 155.467 17.1493C169.807 14.5593 184.237 12.0293 198.787 11.0993C203.327 10.8093 208.397 10.0093 213.257 9.8993C214.027 10.7693 214.767 11.6693 215.407 12.6293C216.177 13.7793 216.897 14.9593 217.567 16.1693C217.737 16.4893 217.917 16.9293 217.677 17.2093C217.557 17.3593 217.367 17.4093 217.187 17.4593C214.847 18.0793 212.427 18.4193 210.007 18.4693C212.507 18.9093 215.037 19.1493 217.577 19.1893C218.617 19.2093 219.717 19.2093 220.617 19.7293C220.637 19.7293 220.647 19.7493 220.667 19.7593L220.637 19.7493ZM227.757 32.8593C227.537 31.8493 227.067 30.9093 226.667 29.9493C226.577 29.7393 226.497 29.5193 226.397 29.2993C224.537 29.2593 222.677 29.2593 220.827 29.2393C213.337 29.1693 205.837 29.2093 198.347 29.3893C182.737 29.7593 167.717 32.1193 152.427 35.1693C149.077 35.8393 145.687 36.2393 142.307 36.7793C138.767 37.3393 135.237 37.8893 131.697 38.4393C123.567 39.6993 115.427 40.9493 107.287 42.1793C103.217 42.7993 99.1466 43.4093 95.0766 44.0193C93.0366 44.3193 91.0066 44.6293 88.9666 44.9293C86.9966 45.2193 84.9666 45.6993 82.9866 45.8093C90.8166 45.4093 98.6266 46.7293 106.317 48.2793C100.087 48.8193 93.8766 49.5793 87.6966 50.5593C83.7166 51.1893 79.7366 51.9193 75.7866 52.7393C73.8166 53.1493 71.8666 53.6593 69.8866 54.0293C69.2566 54.1493 68.6766 54.1093 68.0466 54.0993C66.4766 54.0693 64.9166 54.7793 63.4366 55.1993C55.0466 57.6093 46.5466 58.1993 37.9466 59.3893C31.9766 60.2093 26.0066 60.3893 20.0566 60.6693C20.2066 60.8293 20.3466 60.9793 20.4966 61.1393C21.9066 62.6193 23.3766 64.2393 25.0866 65.4393C27.9966 67.4793 31.3466 67.2993 34.7266 67.3793C42.1566 67.5493 49.5966 67.8493 57.0366 68.0193C71.3866 65.9093 84.1366 59.3693 97.8566 54.6493C112.667 49.5393 128.277 46.4293 143.797 44.4993C153.147 43.3393 162.567 43.4093 171.987 43.6293C154.297 48.7393 139.267 58.1893 124.347 68.5993C125.987 68.5993 127.617 68.5793 129.257 68.5793C143.137 58.9193 159.717 52.0193 176.227 49.4793C186.257 47.9293 196.497 48.4493 206.607 48.2093C211.487 48.0793 216.387 47.9693 221.257 47.8493C222.407 46.1993 223.467 44.4893 224.447 42.7393C224.587 42.5093 224.717 42.2693 224.847 42.0293C225.177 41.4593 225.497 40.8693 225.817 40.2893C227.057 38.0593 228.357 35.4993 227.767 32.8693L227.757 32.8593Z" fill="url(#paint2_linear_850_268)"/>
<path d="M216.868 30.9692C217.268 32.2492 217.968 33.4292 218.888 34.3992C219.048 34.5692 219.238 34.7592 219.238 34.9992C219.238 35.1392 219.178 35.2692 219.108 35.3892C218.488 36.6092 217.878 37.8392 217.258 39.0592C216.948 39.6792 216.638 40.2992 216.318 40.9192C216.178 41.1892 216.038 41.4492 215.948 41.7392C215.758 42.3292 215.308 42.8092 214.928 43.2992C214.198 44.2292 213.448 45.2292 212.618 46.0792C212.288 46.4192 211.898 46.6192 211.608 47.0192C210.758 48.1792 209.918 49.3692 209.178 50.5992C208.898 51.0692 208.868 51.5392 208.728 52.0392C208.648 52.3092 208.518 52.5392 208.348 52.7592C207.478 53.8792 206.248 54.7092 205.238 55.6992C204.348 56.5792 203.558 57.5792 202.558 58.3292C200.008 60.2292 196.658 59.6292 193.498 59.9792C187.198 60.6692 180.838 60.0392 174.508 59.8292C165.468 59.5292 157.148 60.8492 148.098 60.7192C143.718 60.6592 139.338 60.5892 134.958 60.5292C135.368 61.3092 135.788 62.0992 136.198 62.8792C132.018 60.6192 127.048 60.4492 122.298 60.3792C116.628 60.2992 110.948 60.2992 105.278 60.2992C104.308 60.2992 103.288 60.3092 102.438 60.7792C101.588 61.2492 100.988 62.3392 101.408 63.2192C101.018 61.3692 98.5983 60.9392 96.7083 60.9192C79.3983 60.7192 62.0983 60.5092 44.7883 60.3092C42.7583 60.2892 40.7283 60.2592 38.6983 60.1492C36.7783 60.0492 34.8583 59.8692 32.9583 59.5392C32.0183 59.3792 31.0783 59.1792 30.1483 58.9392C29.6883 58.8192 29.2183 58.6792 28.7683 58.5392C28.2083 58.3592 27.8083 58.0992 27.3183 57.7592C27.0283 57.5592 26.6783 57.3392 26.4983 57.0292C25.6883 55.6692 24.6983 54.3792 23.6983 53.1392C22.9683 52.2392 22.1983 51.3692 21.4183 50.5092C21.0183 50.0692 20.6183 49.6392 20.2083 49.2092C19.2883 48.2292 18.6583 47.0792 17.9983 45.8992C15.6983 41.8292 13.8283 37.5392 11.9883 33.2492C16.8583 39.4092 22.4683 45.2692 27.3383 51.4192C28.6383 53.0692 30.0083 54.7592 31.8783 55.7192C33.7883 56.6992 36.0183 56.7892 38.1583 56.8592C90.0183 58.5792 141.938 58.1792 193.758 55.6792C196.628 55.5392 199.608 55.3692 202.118 53.9692C204.168 52.8292 205.708 50.9692 207.108 49.0992C211.088 43.7992 214.328 37.0792 216.868 30.9492V30.9692Z" fill="#EB924D"/>
<path d="M159.009 7.92973C158.579 8.51973 158.109 9.10973 157.469 9.45973C156.579 9.94973 155.499 9.90973 154.489 9.79973C153.809 9.71973 153.139 9.60973 152.469 9.46973C153.619 9.05973 154.809 8.77973 156.019 8.62973C156.329 8.58973 156.639 8.55973 156.909 8.41973C157.169 8.27973 157.369 8.04973 157.559 7.81973C158.089 7.20973 158.629 6.60973 159.189 6.02973C159.749 5.44973 160.329 4.87973 160.919 4.32973C161.079 4.17973 161.249 4.02973 161.419 3.87973C161.509 3.79973 161.589 3.72973 161.679 3.64973C161.739 3.58973 161.819 3.49973 161.899 3.46973C161.569 4.07973 161.169 4.65973 160.809 5.23973C160.439 5.82973 160.059 6.40973 159.669 6.97973C159.449 7.29973 159.229 7.61973 158.999 7.92973H159.009Z" fill="#EB924D"/>
<path d="M18.2492 22.1494C18.3592 22.1794 18.4692 22.2094 18.5492 22.2794C18.7492 22.4394 18.7592 22.7394 18.7492 22.9994C18.7292 23.4794 18.7192 23.9694 18.6992 24.4494C19.3192 23.3894 19.9192 22.3194 20.5092 21.2394C19.5492 20.7194 18.3992 20.7194 17.2992 20.7394C16.8192 20.7394 16.3392 20.7594 15.8492 20.7694C15.5992 20.7694 15.3592 20.7694 15.1092 20.7794C14.9992 20.7794 14.8792 20.7794 14.7692 20.7794C14.7092 20.7794 14.4992 20.7494 14.4492 20.7894C14.2192 20.9994 15.1892 21.2294 15.2792 21.2594C15.7392 21.3994 16.2092 21.5294 16.6692 21.6694L18.2392 22.1294L18.2492 22.1494Z" fill="#EB924D"/>
<path d="M24.4395 45.4097C24.0095 44.5597 23.5695 43.6497 23.6495 42.6997C23.6595 42.5397 23.6895 42.3797 23.7895 42.2497C23.9395 42.0497 24.2095 41.9897 24.4495 41.9497C27.9595 41.3297 31.4995 40.8197 35.0395 40.4497C34.3295 40.1797 33.5795 40.1897 32.8295 40.2197C30.4295 40.3397 28.0295 40.3197 25.6295 40.1897C24.2495 40.1097 22.8395 39.9897 21.5195 40.3897C22.0795 41.3897 22.4195 42.4897 22.8695 43.5497C23.3295 44.5997 23.9395 45.6297 24.8895 46.2697C24.8095 45.9397 24.5895 45.7297 24.4395 45.4297V45.4097Z" fill="#EB924D"/>
<path d="M208.939 31.3494C209.749 31.4494 210.569 31.5994 211.289 31.9594C212.019 32.3294 212.659 32.9294 212.909 33.7094C213.159 34.4594 213.029 35.2694 212.909 36.0394C213.499 35.3894 213.929 34.6094 214.179 33.7594C214.219 33.6094 214.259 33.4494 214.229 33.2994C214.209 33.1794 214.139 33.0694 214.079 32.9594C213.699 32.3194 213.309 31.6794 212.909 31.0594C212.799 30.8894 212.689 30.7194 212.539 30.5994C212.299 30.4094 211.989 30.3494 211.689 30.3094C211.599 30.2994 211.509 30.2794 211.419 30.2694C210.409 30.1394 209.389 30.1294 208.369 30.1594C208.179 30.1594 208.019 30.1594 207.829 30.1194C207.639 30.0794 207.449 30.1294 207.249 30.1594C206.749 30.2394 206.249 30.3094 205.739 30.3594C205.239 30.4094 204.729 30.4494 204.219 30.4694C203.969 30.4794 203.709 30.4894 203.459 30.4894C203.329 30.4894 203.209 30.4894 203.079 30.4894C202.959 30.4894 202.829 30.5094 202.719 30.4894C203.129 30.5594 203.529 30.6394 203.939 30.7194C204.439 30.8194 204.939 30.9194 205.449 31.0194C205.699 31.0694 205.949 31.1194 206.199 31.1794C206.289 31.1994 206.369 31.2094 206.459 31.1994C206.599 31.1794 206.739 31.1894 206.889 31.1994C207.499 31.2394 208.109 31.2694 208.709 31.3394C208.789 31.3394 208.859 31.3594 208.939 31.3694V31.3494Z" fill="#EB924D"/>
<path d="M218.62 33.3291C217.87 31.5391 217.23 30.2491 216.48 28.9991C215.41 27.2191 214.21 25.3991 212.91 23.5791C209.68 19.0791 206.04 13.0991 201.09 10.3691C201.01 10.3191 200.93 10.2791 200.85 10.2491C200.01 9.86906 198.67 9.77906 196.92 9.74906C194.22 9.69906 191.52 9.64906 188.83 9.60906C186.14 9.56906 183.43 9.51906 180.74 9.48906C178.04 9.44906 175.34 9.40906 172.64 9.37906C171.86 9.37906 171.08 9.35906 170.3 9.34906C168.47 9.32906 166.64 9.34906 164.81 9.22906C164 9.17906 163.2 9.28906 162.39 9.22906C161.4 9.14906 160.4 9.06906 159.42 8.85906C160.33 6.91906 161.24 4.97906 162.15 3.03906C161.15 4.10906 160.22 5.24906 159.37 6.43906C158.96 7.01906 158.56 7.62906 158.02 8.10906C157.62 8.45906 157.21 8.91906 156.7 9.09906C156.24 9.26906 155.74 9.27906 155.25 9.28906C153.22 9.31906 151.17 9.42906 149.15 9.26906C145.45 8.97906 141.7 9.11906 137.99 9.10906C127.85 9.05906 117.71 9.02906 107.56 9.05906C104.83 9.05906 102.11 9.05906 99.3798 9.07906C93.9398 9.09906 88.4798 9.13906 83.0298 9.16906C80.2998 9.18906 77.5698 9.21906 74.8398 9.23906C72.1098 9.26906 69.3798 9.28906 66.6398 9.31906C59.0098 9.31906 51.3598 9.49906 43.7298 9.60906C39.8098 9.66906 32.8098 8.53906 29.4598 11.1591C27.6598 12.5691 26.4198 14.0091 24.5298 16.1991C24.1398 16.6491 23.7598 17.1091 23.3698 17.5591C23.1498 17.8091 22.8698 17.9991 22.6798 18.2791C22.4098 18.6691 22.2198 19.0691 21.8798 19.4091C21.5498 19.7291 21.1598 19.9891 20.7298 20.1491C20.0798 20.3891 19.3698 20.4291 18.6798 20.4591C17.7298 20.4991 16.7898 20.5391 15.8398 20.5891C15.0898 20.6191 14.3098 20.6591 13.6398 21.0191C15.6498 20.8791 17.6798 21.1891 19.5498 21.9091C19.6198 21.9391 19.6998 21.9691 19.7298 22.0491C19.7598 22.1291 19.7198 22.2091 19.6698 22.2791C19.3898 22.7491 19.0698 23.1491 18.6698 23.5091C18.2998 23.8491 18.0198 24.3791 17.7198 24.7891C17.3298 25.3291 16.9398 25.8691 16.5598 26.4091C15.7098 27.6191 14.8898 28.8491 14.1298 30.1091C13.8898 30.5091 13.6398 30.9091 13.3698 31.3291C12.9598 31.9691 12.3998 32.8591 12.0898 33.4791C12.1998 33.7091 12.3098 33.9491 12.4098 34.1591C12.5898 34.5191 12.7598 34.8791 12.9198 35.2191C14.0998 37.7991 15.5098 40.3491 17.0898 42.8191C18.5098 45.0391 20.0398 47.1891 21.6298 49.2191C23.2498 51.2691 24.9698 53.2691 26.7698 55.1491L27.2998 55.6991C28.6498 57.1191 29.6598 58.5491 31.7498 58.6091C43.5198 58.9391 55.2998 59.4591 67.0698 59.4591H67.2298C76.5798 59.6291 85.9198 59.7591 95.2698 59.8291C96.1898 59.8291 97.1199 59.7691 98.0499 59.7691C99.0099 59.7691 99.9698 59.7691 100.93 59.7691C101.16 59.7691 101.43 59.7891 101.56 59.9791C101.66 60.1291 101.64 60.3291 101.61 60.5091C101.26 62.7491 100.92 64.9991 100.57 67.2391C101.52 64.9491 102.48 62.6591 103.43 60.3691C103.5 60.2091 103.57 60.0391 103.7 59.9391C103.85 59.8191 104.06 59.7891 104.26 59.7691C105.22 59.6791 106.2 59.6891 107.16 59.8091C107.58 59.8591 107.99 59.9891 108.4 59.9491C108.86 59.8991 109.33 59.9191 109.79 59.9191C111.84 59.9191 113.88 59.9191 115.93 59.9191H116.24C121.16 59.9191 126.09 59.8691 131 59.8591C132.11 59.8591 133.2 60.2791 134.12 60.8891C135.23 61.6291 136.12 62.6491 136.95 63.6891C136.55 62.4891 136.23 61.2691 135.98 60.0291C137.11 59.9191 138.24 59.8091 139.37 59.6991C140.28 59.6091 141.15 59.7891 142.06 59.7791C144.36 59.7591 146.66 59.6991 148.95 59.6991C162.48 59.5291 176.19 59.2391 189.68 58.8691L190.73 58.8391C193.79 58.7491 198.82 59.3791 201.65 58.0091C202.08 57.8091 202.41 57.4491 202.73 57.0991C205.16 54.4591 207.54 51.7091 209.77 48.8991C211.15 47.1691 212.44 45.3991 213.63 43.6691C215.18 41.3891 216.53 38.9891 218.13 36.0891C218.3 35.7691 218.76 34.9491 219.01 34.3691C218.97 34.2791 218.67 33.5991 218.56 33.3491L218.62 33.3291ZM209.67 40.9191C208.56 42.5691 207.33 44.2191 206.03 45.8591C204.02 48.3991 201.75 51.0391 199.27 53.7391C198.8 53.8791 197.81 54.0391 195.82 54.0391C195.05 54.0391 194.29 54.0191 193.56 53.9991C192.8 53.9791 192.1 53.9591 191.44 53.9591C191.17 53.9591 190.91 53.9591 190.66 53.9591L189.61 53.9891C176.15 54.3691 162.47 54.6491 148.96 54.8191C138.15 54.9591 127.16 55.0191 116.29 55.0191C113.6 55.0191 110.9 55.0191 108.21 55.0191C94.6898 54.9691 80.9398 54.8291 67.3598 54.5691H67.1598C58.6198 54.5691 49.9398 54.2891 41.5598 54.0191C38.4298 53.9191 35.3098 53.8191 32.1898 53.7291C31.9798 53.5391 31.6598 53.1891 31.4098 52.9291C31.2298 52.7291 31.0398 52.5191 30.8498 52.3291L30.3198 51.7691C28.6198 49.9991 26.9998 48.1291 25.4898 46.1891C25.0298 45.6091 24.4798 45.0791 24.0898 44.4691C23.6098 43.7191 23.1398 42.9691 22.6598 42.2191C22.5498 42.0491 22.4298 41.8391 22.4898 41.6391C22.5698 41.3591 22.9298 41.2891 23.2198 41.2691C27.5098 40.9491 31.7998 40.6291 36.0898 40.2991C31.9598 39.8991 27.8298 39.4991 23.7098 39.0991C22.8398 39.0191 21.9498 38.9291 21.1398 38.5891C20.5698 38.3591 20.0398 37.9791 19.6698 37.4791C19.5098 37.2591 19.3898 37.0191 19.2398 36.7991C19.0098 36.4791 18.8398 36.1291 18.6598 35.7791C18.4298 35.3491 18.2098 34.9191 17.9998 34.4791C17.9598 34.3991 17.5798 33.7591 17.6198 33.6891C17.8598 33.3091 18.0898 32.9391 18.3098 32.5891C19.7198 30.2591 21.4198 27.9291 22.7498 26.1591C24.4598 23.8591 26.3198 21.5791 28.2398 19.3491C29.9998 17.3091 31.0598 16.0891 32.4898 14.9591C32.6398 14.8391 33.5798 14.2391 37.1598 14.2391C38.2698 14.2391 39.4198 14.2991 40.5198 14.3491C41.5798 14.3991 42.5598 14.4391 43.4798 14.4391H43.8398C46.1398 14.4091 48.4298 14.3691 50.7398 14.3291C55.9698 14.2391 61.3798 14.1491 66.6898 14.1491C69.4698 14.1191 72.1898 14.0991 74.9198 14.0691C77.6498 14.0491 80.3698 14.0191 83.1098 13.9991C88.5498 13.9691 93.9998 13.9291 99.4398 13.9091C102.16 13.9091 104.88 13.9091 107.6 13.8891C110.39 13.8891 113.19 13.8891 115.98 13.8891C131.58 13.8891 147.46 13.9691 164.51 14.1291C167.21 14.1591 169.91 14.1891 172.61 14.2291C175.3 14.2591 178.01 14.2991 180.7 14.3391C183.39 14.3691 186.09 14.4191 188.78 14.4591C191.47 14.4991 194.17 14.5491 196.86 14.5991C198.16 14.6191 198.73 14.6791 198.97 14.7291C202.12 16.5591 204.98 20.6591 207.5 24.2691C208.01 25.0091 208.52 25.7291 209 26.4091C209.48 27.0791 210.29 27.7891 210.2 28.6991C207.44 29.9691 204.4 30.6091 201.36 30.5491C204.65 30.5891 207.93 30.8191 211.19 31.2391C211.42 31.2691 211.65 31.2991 211.86 31.4091C212.36 31.6691 212.5 32.2591 212.81 32.6891C212.95 32.8891 213.15 32.9991 213.28 33.1991C213.35 33.3091 213.78 34.0791 213.73 34.1691C212.3 36.7691 211.06 38.9391 209.7 40.9291L209.67 40.9191Z" fill="url(#paint3_linear_850_268)"/>
<path d="M215.919 54.3996C215.519 55.4596 214.929 56.4396 214.199 57.3096C211.879 59.9996 209.689 63.1596 206.709 65.1996C205.109 66.2896 203.589 66.5996 201.689 66.8596C197.819 67.3896 193.829 67.4596 189.999 67.5696C176.379 67.9596 162.759 68.2396 149.139 68.4096C142.509 68.4896 135.899 68.5496 129.269 68.5796C127.629 68.5796 125.999 68.5796 124.359 68.5996C118.959 68.5996 113.579 68.6196 108.179 68.5996C94.4892 68.5496 80.7992 68.4096 67.1092 68.1496C63.7592 68.1496 60.4092 68.0996 57.0492 68.0196C49.6092 67.8596 42.1692 67.5496 34.7392 67.3796C31.3592 67.2996 28.0092 67.4896 25.0992 65.4396C23.3892 64.2396 21.9192 62.6196 20.5092 61.1396C20.3592 60.9896 20.2192 60.8296 20.0692 60.6696C18.7892 59.3096 17.5492 57.9196 16.3592 56.4796C15.3692 55.2996 14.3992 54.1096 13.3792 52.9496C12.9392 52.4496 12.5892 51.8796 12.2492 51.3096C11.7892 50.5396 11.2592 49.7896 11.0792 48.8996C11.0492 48.7396 11.0392 48.5696 11.1392 48.4496C11.2292 48.3396 11.3592 48.3096 11.4892 48.2996C13.9092 47.8696 16.4292 48.1096 18.8092 47.6296C19.2292 47.6096 19.6492 47.5896 20.0792 47.5596C18.1992 48.1896 16.2592 48.6296 14.2992 48.8696C13.8492 48.9196 13.3592 48.9896 13.0492 49.3096C12.4692 49.9196 12.7792 50.7696 13.1192 51.3696C13.4092 51.8896 13.7292 52.3996 14.0692 52.8796C14.7492 53.8696 15.4892 54.7996 16.2892 55.6796C17.5492 57.0796 18.9092 58.3896 20.2692 59.6996C21.2292 60.6196 22.1892 61.5396 23.1592 62.4596C23.8292 63.1096 24.4992 63.7496 25.2792 64.2496C26.5992 65.0996 28.1492 65.5196 29.6592 65.9096C30.4092 66.0996 31.1592 66.2796 31.9192 66.4196C32.1892 66.4696 32.4492 66.5396 32.7292 66.5296C33.0092 66.5096 33.2892 66.5596 33.5792 66.5896C34.2392 66.6596 34.9092 66.7196 35.5792 66.7396C36.9192 66.8096 38.2592 66.8096 39.5992 66.7396C40.6792 66.6796 41.7092 66.6296 42.7292 66.2996C43.2292 66.1396 43.7492 66.2496 44.2492 66.3296C45.6092 66.5096 46.9592 66.6996 48.3192 66.8796C49.1192 66.8796 49.9092 67.2096 50.7092 67.1396C50.9392 67.1196 51.1792 67.0496 51.4092 67.0496C51.5592 67.0496 51.7192 67.0496 51.8792 67.0796C52.7892 67.2196 53.6992 67.4396 54.6192 67.5596C55.7792 67.7196 57.1092 67.8796 58.2692 67.5996C58.3592 67.5796 58.4292 67.5396 58.5292 67.5096C58.7992 67.4196 59.1192 67.4796 59.3992 67.4796C61.0992 67.5196 62.8092 67.5596 64.5192 67.5896C67.9292 67.6696 71.3492 67.7396 74.7692 67.7996C78.1892 67.8796 81.6192 67.9496 85.0392 68.0096C86.7392 68.0496 88.4492 68.1096 90.1592 68.1196C90.3892 68.1196 90.5892 68.0796 90.8092 68.0096C91.3592 67.8196 91.9892 67.8396 92.5692 67.7896C93.2492 67.7396 93.9292 67.6896 94.6092 67.6496C97.3292 67.4796 100.049 67.3796 102.789 67.3396C105.519 67.2896 108.249 67.2896 110.989 67.3396C113.709 67.3696 116.439 67.4396 119.179 67.4996C119.779 67.5196 120.379 67.5296 120.979 67.5496C122.649 67.5896 124.299 67.6296 125.969 67.6796C126.429 67.6796 126.919 67.6596 127.369 67.7796C127.819 67.9096 128.179 67.9796 128.659 67.9596C130.029 67.9196 131.399 67.8696 132.779 67.8296C135.519 67.7496 138.269 67.6796 141.009 67.6096C143.749 67.5396 146.499 67.4796 149.239 67.4396C149.999 67.4196 150.749 67.4096 151.509 67.3896C167.449 67.1096 182.899 66.3996 198.839 66.3096C200.409 66.3096 202.019 66.2796 203.459 65.6696C204.859 65.0796 206.079 63.7896 206.129 62.2996C206.159 62.6796 206.589 62.9796 206.999 62.9496C207.459 62.9196 207.839 62.6196 208.199 62.3396C210.729 60.3296 213.349 58.1996 214.689 55.2596C213.469 54.6096 212.199 54.0696 210.899 53.6296C212.599 53.7496 214.269 54.0096 215.929 54.3996H215.919Z" fill="#EB924D"/>
<path d="M225.808 40.2796C225.488 40.8596 225.168 41.4496 224.838 42.0196C224.708 42.2596 224.578 42.4896 224.438 42.7296C223.458 44.4696 222.408 46.1896 221.248 47.8396C220.628 48.7296 219.978 49.5896 219.298 50.4296C218.658 51.1996 218.128 51.9896 217.178 52.4196C217.018 52.4996 216.848 52.5596 216.688 52.5996C219.838 48.5896 222.968 44.4896 224.858 39.7496C225.538 38.0496 226.048 36.2896 226.928 34.6796C227.078 34.4196 227.228 34.1396 227.218 33.8396C227.218 33.5996 227.088 33.3696 226.988 33.1596C226.098 31.4696 225.038 29.6296 223.238 29.0196C222.908 28.8996 222.488 28.6896 222.598 28.3696C222.658 28.2096 222.828 28.1296 222.968 28.0196C223.578 27.5396 223.288 26.5696 222.938 25.8596C222.268 24.4996 221.598 23.1596 220.928 21.7996C220.698 21.3296 220.458 20.8396 220.038 20.5096C219.638 20.1896 219.118 20.0496 218.628 19.9396C216.848 19.5096 215.048 19.1696 213.238 18.8896C214.668 19.0496 216.108 19.1396 217.548 19.1596C218.588 19.1796 219.688 19.1796 220.588 19.6996C220.608 19.6996 220.618 19.7196 220.638 19.7296C221.728 20.3996 222.308 21.8196 222.928 22.8896C223.618 24.0896 224.288 25.2996 225.038 26.4696C225.588 27.3396 225.998 28.3296 226.388 29.2896C226.488 29.5096 226.568 29.7296 226.658 29.9396C227.068 30.8996 227.528 31.8396 227.748 32.8496C228.338 35.4896 227.038 38.0396 225.798 40.2696L225.808 40.2796Z" fill="#EB924D"/>
<path d="M217.659 17.1991C217.549 17.3291 217.389 17.3891 217.219 17.4291C215.639 15.0491 214.049 12.6691 212.469 10.2891C211.669 9.08914 211.079 8.00914 209.829 7.32914C208.829 6.78914 207.969 6.08914 206.869 5.75914C206.399 5.60914 205.859 5.48914 205.569 5.08914C205.409 4.86914 205.349 4.57914 205.229 4.31914C204.669 3.12914 203.319 3.18914 202.279 2.75914C201.939 2.60914 201.669 2.55914 201.289 2.52914C200.259 2.46914 199.239 2.41914 198.209 2.36914C196.159 2.24914 194.109 2.13914 192.059 2.01914C188.469 1.81914 184.869 1.60914 181.279 1.40914C179.299 1.29914 177.319 1.18914 175.329 1.20914C173.369 1.22914 171.429 1.36914 169.469 1.29914C168.859 1.27914 168.229 1.27914 167.649 1.08914C167.079 0.899141 166.469 0.989141 165.869 0.999141C164.409 1.02914 162.939 1.06914 161.479 1.09914C157.379 1.19914 153.279 1.38914 149.179 1.38914C148.409 1.40914 147.609 1.42914 146.929 1.78914C146.219 2.14914 145.939 2.74914 145.879 3.50914C145.879 3.60914 145.879 3.73914 145.819 3.82914C145.689 3.97914 145.529 3.92914 145.359 3.86914C144.789 3.64914 144.299 3.08914 143.879 2.65914C143.579 2.33914 143.289 2.00914 142.999 1.68914C142.809 1.47914 142.729 1.31914 142.449 1.30914C142.199 1.30914 141.919 1.38914 141.679 1.42914C140.689 1.56914 139.689 1.64914 138.689 1.68914C137.689 1.72914 136.699 1.70914 135.699 1.64914C135.239 1.61914 134.749 1.61914 134.309 1.49914C134.029 1.41914 133.779 1.28914 133.489 1.26914C132.489 1.18914 131.449 1.28914 130.439 1.29914C129.409 1.30914 128.379 1.32914 127.359 1.33914C123.249 1.38914 119.139 1.43914 115.019 1.49914C113.229 1.51914 111.439 1.54914 109.649 1.56914C108.719 1.57914 107.789 1.68914 106.939 2.09914C105.709 2.68914 106.539 4.23914 106.339 5.26914C106.219 3.96914 105.939 2.43914 104.739 1.91914C104.299 1.72914 103.799 1.71914 103.319 1.71914C103.259 1.71914 103.199 1.71914 103.139 1.71914C101.089 1.69914 99.0388 1.67914 96.9888 1.66914C93.5988 1.64914 90.2488 1.48914 86.8588 1.43914C77.3788 1.29914 67.8888 1.53914 58.4088 1.61914C54.2888 1.64914 50.1688 1.68914 46.0488 1.72914C45.0188 1.72914 43.9888 1.74914 42.9588 1.74914C37.8888 1.79914 32.6988 1.86914 27.9788 3.68914C26.5588 4.23914 25.3188 5.02914 24.1688 5.99914C23.6588 6.42914 23.2188 6.95914 22.8988 7.53914C24.5088 8.27914 26.2388 8.75914 27.9988 8.95914C27.1088 9.24914 26.1588 9.26914 25.2288 9.27914C24.0288 9.29914 22.8188 9.31914 21.6188 9.33914C21.1888 9.33914 20.7488 9.34914 20.3388 9.45914C19.5988 9.63914 18.9688 10.1091 18.4488 10.6491C18.1788 10.9291 17.8788 11.2291 17.6788 11.5591C17.5388 11.7991 17.4788 12.0691 17.3488 12.3191C16.9088 13.1191 16.1888 13.8391 15.6188 14.5591C15.0088 15.3391 14.3888 16.1291 13.7788 16.9091C10.4988 21.0991 7.15883 25.3591 5.19883 30.3091C4.76883 31.3891 4.41883 32.4791 4.16883 33.6091C3.93883 34.6991 5.53883 34.9391 6.54883 35.3791C7.55883 35.8291 8.67883 36.0591 9.56883 36.7091C8.40883 36.4991 7.22883 36.3891 6.02883 36.3791C5.82883 36.3791 5.57883 36.3791 5.44883 36.5491C5.26883 36.7491 5.35883 37.0691 5.46883 37.3291C5.72883 37.9591 5.95883 38.5391 6.30883 39.1091C6.47883 39.4091 6.53883 39.7091 6.60883 40.0491C6.75883 40.7991 6.97883 41.5091 7.28883 42.1991C7.89883 43.5891 8.80883 44.8291 9.94883 45.8191C10.5688 46.3491 11.2388 46.8191 11.9688 47.1891C11.7588 47.1591 11.5488 47.1291 11.3388 47.0791C10.3588 46.8591 9.46883 46.3291 8.75883 45.6291C8.40883 45.2691 8.09883 44.8591 7.85883 44.4191C6.87883 42.5891 5.88883 40.7591 5.01883 38.8691C4.33883 37.3891 3.32883 35.6691 3.22883 34.0291C3.22883 33.9391 3.22883 33.8691 3.22883 33.7791C3.19883 32.6591 3.46883 31.5591 3.90883 30.5191C4.62883 28.7691 5.77883 27.1191 6.69883 25.5991C8.27883 22.9991 10.0488 20.5191 11.8688 18.0891C13.8088 15.4891 15.8388 12.9691 17.9588 10.5191C18.3488 10.0591 18.7288 9.62914 19.0988 9.20914C20.6488 7.42914 22.1088 5.88914 24.1088 4.32914C28.3388 1.01914 34.1488 1.04914 39.1788 0.969141C45.6488 0.859141 51.9688 0.809141 58.3488 0.729141C61.0888 0.689141 63.8188 0.659141 66.5688 0.629141C69.3088 0.599141 72.0388 0.579141 74.7888 0.549141C77.5188 0.529141 80.2488 0.499141 82.9988 0.479141C85.7288 0.459141 88.4588 0.449141 91.1988 0.429141C93.9288 0.429141 96.6488 0.399141 99.3888 0.389141C102.129 0.379141 104.839 0.389141 107.579 0.369141C110.299 0.369141 113.019 0.369141 115.759 0.369141C118.499 0.369141 121.199 0.369141 123.929 0.369141C126.639 0.369141 129.359 0.369141 132.089 0.389141C134.799 0.389141 137.519 0.409141 140.239 0.419141C142.959 0.439141 145.669 0.449141 148.389 0.469141C151.099 0.489141 153.819 0.509141 156.529 0.539141C159.239 0.559141 161.959 0.589141 164.659 0.609141C167.369 0.639141 170.079 0.669141 172.789 0.709141C175.489 0.739141 178.199 0.779141 180.899 0.819141C183.599 0.859141 186.309 0.899141 189.009 0.939141C191.709 0.979141 194.419 1.02914 197.109 1.07914C199.689 1.12914 202.109 1.28914 204.429 2.32914C204.739 2.46914 205.049 2.61914 205.359 2.79914C207.909 4.19914 210.029 6.25914 211.949 8.42914C212.399 8.92914 212.849 9.43914 213.289 9.94914C214.059 10.8191 214.799 11.7191 215.439 12.6791C216.209 13.8291 216.929 15.0091 217.599 16.2191C217.769 16.5391 217.949 16.9791 217.709 17.2591L217.659 17.1991Z" fill="#EB924D"/>
<path d="M67.3176 35.4192C62.9776 32.9892 55.7576 33.7392 52.3176 37.0092C50.1476 39.0692 50.0476 42.9192 52.3176 44.9692C57.3276 49.4792 66.1276 47.5592 69.3076 41.9692C69.3676 41.9192 69.4276 41.8592 69.4876 41.8092C71.9176 39.6192 70.1876 35.9692 67.3076 35.4292L67.3176 35.4192Z" fill="#EB924D"/>
<path d="M68.3488 33.2795C64.0088 30.8495 56.7888 31.5995 53.3488 34.8695C51.1788 36.9295 51.0788 40.7795 53.3488 42.8295C58.3588 47.3395 67.1588 45.4195 70.3388 39.8295C70.3988 39.7795 70.4588 39.7195 70.5188 39.6695C72.9488 37.4795 71.2188 33.8295 68.3388 33.2895L68.3488 33.2795Z" fill="url(#paint4_linear_850_268)"/>
<path d="M67.3176 34.6594C62.9776 32.2294 55.7576 32.9794 52.3176 36.2494C50.1476 38.3094 50.0476 42.1594 52.3176 44.2094C57.3276 48.7194 66.1276 46.7994 69.3076 41.2094C69.3676 41.1594 69.4276 41.0994 69.4876 41.0394C71.9176 38.8494 70.1876 35.1994 67.3076 34.6594H67.3176Z" fill="url(#paint5_linear_850_268)"/>
<path d="M178.787 21.4295C176.077 19.9195 171.577 20.3795 169.437 22.4195C168.087 23.6995 168.017 26.0995 169.437 27.3795C172.567 30.1895 178.047 28.9895 180.037 25.5095C180.077 25.4795 180.117 25.4395 180.147 25.4095C181.657 24.0395 180.587 21.7695 178.787 21.4295Z" fill="#EB924D"/>
<path d="M179.428 20.0994C176.718 18.5894 172.218 19.0494 170.078 21.0894C168.728 22.3694 168.658 24.7694 170.078 26.0494C173.208 28.8594 178.688 27.6594 180.678 24.1794C180.718 24.1494 180.758 24.1094 180.788 24.0794C182.298 22.7094 181.228 20.4394 179.428 20.0994Z" fill="url(#paint6_linear_850_268)"/>
<path d="M178.787 20.9597C176.077 19.4497 171.577 19.9097 169.437 21.9497C168.087 23.2297 168.017 25.6297 169.437 26.9097C172.567 29.7197 178.047 28.5197 180.037 25.0397C180.077 25.0097 180.117 24.9697 180.147 24.9397C181.657 23.5697 180.587 21.2997 178.787 20.9597Z" fill="url(#paint7_linear_850_268)"/>
<defs>
<linearGradient id="paint0_linear_850_268" x1="129.569" y1="-59.5404" x2="122.649" y2="-17.0004" gradientUnits="userSpaceOnUse">
<stop stop-color="#CF5C2B"/>
<stop offset="1" stop-color="#59173E"/>
</linearGradient>
<linearGradient id="paint1_linear_850_268" x1="124.879" y1="-50.8607" x2="94.2088" y2="228.149" gradientUnits="userSpaceOnUse">
<stop stop-color="#CF5C2B"/>
<stop offset="1" stop-color="#59173E"/>
</linearGradient>
<linearGradient id="paint2_linear_850_268" x1="117.297" y1="-4.99069" x2="107.647" y2="210.949" gradientUnits="userSpaceOnUse">
<stop stop-color="#CF5C2B"/>
<stop offset="1" stop-color="#59173E"/>
</linearGradient>
<linearGradient id="paint3_linear_850_268" x1="115.59" y1="103.599" x2="115.59" y2="49.4891" gradientUnits="userSpaceOnUse">
<stop stop-color="#CF5C2B"/>
<stop offset="1" stop-color="#59173E"/>
</linearGradient>
<linearGradient id="paint4_linear_850_268" x1="69.3088" y1="17.4195" x2="58.3688" y2="46.6595" gradientUnits="userSpaceOnUse">
<stop stop-color="#CF5C2B"/>
<stop offset="1" stop-color="#59173E"/>
</linearGradient>
<linearGradient id="paint5_linear_850_268" x1="105.988" y1="-66.0606" x2="11.6076" y2="152.939" gradientUnits="userSpaceOnUse">
<stop stop-color="#CF5C2B"/>
<stop offset="1" stop-color="#59173E"/>
</linearGradient>
<linearGradient id="paint6_linear_850_268" x1="180.018" y1="10.2094" x2="173.208" y2="28.4394" gradientUnits="userSpaceOnUse">
<stop stop-color="#CF5C2B"/>
<stop offset="1" stop-color="#59173E"/>
</linearGradient>
<linearGradient id="paint7_linear_850_268" x1="202.897" y1="-41.8403" x2="144.047" y2="94.7097" gradientUnits="userSpaceOnUse">
<stop stop-color="#CF5C2B"/>
<stop offset="1" stop-color="#59173E"/>
</linearGradient>
</defs>
</svg>
